<svg xmlns="http://www.w3.org/2000/svg" xmlns:xlink="http://www.w3.org/1999/xlink" width="114.765" height="115.7" viewBox="0 0 114.765 115.7">
  <defs>
    <linearGradient id="linear-gradient" x1="0.5" y1="-0.444" x2="0.5" y2="2.757" gradientUnits="objectBoundingBox">
      <stop offset="0" stop-color="#fff33b"/>
      <stop offset="0.014" stop-color="#fee72e"/>
      <stop offset="0.042" stop-color="#fed51b"/>
      <stop offset="0.07" stop-color="#fdca10"/>
      <stop offset="0.1" stop-color="#fdc70c"/>
      <stop offset="0.4" stop-color="#f3903f"/>
      <stop offset="0.8" stop-color="#ed683c"/>
      <stop offset="1" stop-color="#e93e3a"/>
    </linearGradient>
    <linearGradient id="linear-gradient-2" x1="0.5" y1="-0.145" x2="0.5" y2="2.255" xlink:href="#linear-gradient"/>
    <linearGradient id="linear-gradient-3" x1="0.498" y1="-4.405" x2="0.498" y2="2.016" xlink:href="#linear-gradient"/>
    <linearGradient id="linear-gradient-4" x1="0.5" y1="-1.045" x2="0.5" y2="1.503" xlink:href="#linear-gradient"/>
  </defs>
  <g id="Hand-Heartbeat-Mediacl_care-Health_care-Care" data-name="Hand-Heartbeat-Mediacl care-Health care-Care" transform="translate(-2.044 -1.999)">
    <path id="Trazado_12130" data-name="Trazado 12130" d="M74.279,31.136a1.928,1.928,0,0,1-1.928,1.928H66.566A1.905,1.905,0,0,1,64.85,32L63.5,29.3,58.814,52.733a1.905,1.905,0,0,1-1.89,1.543h-.058A1.94,1.94,0,0,1,55.016,52.6L50.773,21.552,47.244,39.235a1.928,1.928,0,0,1-3.7.289L39.319,28.244,37.429,32a1.905,1.905,0,0,1-1.716,1.061H29.928a1.928,1.928,0,1,1,0-3.857h4.589l3.336-6.653a1.927,1.927,0,0,1,3.529.193l3.413,9.1L49.25,9.539a1.928,1.928,0,0,1,3.8.135L57.291,40.72,60.82,23.037a1.928,1.928,0,0,1,3.606-.482l3.336,6.653h4.589a1.928,1.928,0,0,1,1.928,1.928Z" transform="translate(24.095 5.574)" fill="url(#linear-gradient)"/>
    <path id="Trazado_12131" data-name="Trazado 12131" d="M77.706,19.356a1.928,1.928,0,1,1-3.857,0,13.514,13.514,0,0,0-13.5-13.5,13.182,13.182,0,0,0-11.8,6.71,2.019,2.019,0,0,1-3.394,0,13.182,13.182,0,0,0-11.8-6.711,13.514,13.514,0,0,0-13.5,13.5c0,14.269,21.5,34.825,27,39.839.713-.656,1.678-1.562,2.835-2.661a1.93,1.93,0,1,1,2.68,2.777c-2.526,2.43-4.184,3.857-4.242,3.934a1.98,1.98,0,0,1-2.545,0C44.385,62.183,16,37.385,16,19.356A17.488,17.488,0,0,1,46.853,8.21,17.488,17.488,0,0,1,77.706,19.356Z" transform="translate(12.956 0)" fill="url(#linear-gradient-2)"/>
    <path id="Trazado_12132" data-name="Trazado 12132" d="M26.526,72.466a1.917,1.917,0,0,1-2.719.135L2.6,53.318A1.928,1.928,0,0,1,5.18,50.465L26.391,69.748a1.928,1.928,0,0,1,.135,2.719Z" transform="translate(0 44.596)" fill="url(#linear-gradient-3)"/>
    <path id="Trazado_12133" data-name="Trazado 12133" d="M109.663,31.85a9.32,9.32,0,0,0-6.768-2.989,10.151,10.151,0,0,0-7.424,2.97l-19.5,19.476a9.667,9.667,0,0,0-9.2-6.749H31.413a9.63,9.63,0,0,0-6.826,2.815L7.559,64.4A1.95,1.95,0,0,0,7,65.808,1.886,1.886,0,0,0,7.637,67.2L28.848,86.479a1.944,1.944,0,0,0,1.292.5,1.984,1.984,0,0,0,1.157-.386l7.193-5.4H69.362a9.63,9.63,0,0,0,6.826-2.815l33.186-33.186a9.8,9.8,0,0,0,2.835-6.826,9.641,9.641,0,0,0-2.545-6.518Zm-3.027,10.606L73.45,75.642a5.7,5.7,0,0,1-4.088,1.7H37.853a1.9,1.9,0,0,0-1.157.386l-6.441,4.821L11.725,65.711l15.6-15.6a5.7,5.7,0,0,1,4.088-1.7H66.778a5.785,5.785,0,1,1,0,11.57h-27a1.928,1.928,0,0,0,0,3.857h27a9.667,9.667,0,0,0,9.333-7.193L98.19,34.55a6.263,6.263,0,0,1,4.628-1.832,5.432,5.432,0,0,1,3.992,1.735,5.733,5.733,0,0,1-.174,8Z" transform="translate(4.601 24.934)" fill="url(#linear-gradient-4)"/>
  </g>
</svg>
