<svg xmlns="http://www.w3.org/2000/svg" xmlns:xlink="http://www.w3.org/1999/xlink" width="60" height="60" viewBox="0 0 60 60">
  <defs>
    <linearGradient id="linear-gradient" x1="0.5" y1="-0.122" x2="0.5" y2="1.048" gradientUnits="objectBoundingBox">
      <stop offset="0" stop-color="#fff33b"/>
      <stop offset="0.014" stop-color="#fee72e"/>
      <stop offset="0.042" stop-color="#fed51b"/>
      <stop offset="0.07" stop-color="#fdca10"/>
      <stop offset="0.1" stop-color="#fdc70c"/>
      <stop offset="0.4" stop-color="#f3903f"/>
      <stop offset="0.8" stop-color="#ed683c"/>
      <stop offset="1" stop-color="#e93e3a"/>
    </linearGradient>
    <linearGradient id="linear-gradient-2" y1="-30.661" y2="4.429" xlink:href="#linear-gradient"/>
  </defs>
  <g id="book-openbook-graduate-graduate_school-education" data-name="book-openbook-graduate-graduate school-education" transform="translate(-2 -2)">
    <path id="Trazado_12325" data-name="Trazado 12325" d="M61,6H58V3a1,1,0,0,0-1-1H36a4.994,4.994,0,0,0-4,2.03A4.994,4.994,0,0,0,28,2H7A1,1,0,0,0,6,3V6H3A1,1,0,0,0,2,7V47a1,1,0,0,0,1,1H7v5.02A4.987,4.987,0,0,0,10,62H56a1,1,0,0,0,1-1V53.44A3.98,3.98,0,0,0,59,50a3.906,3.906,0,0,0-.56-2H61a1,1,0,0,0,1-1V7A1,1,0,0,0,61,6ZM33,7a3.009,3.009,0,0,1,3-3H56V42H33V25.98a32.662,32.662,0,0,0,11.38-2.1,16.9,16.9,0,0,0,2.13-1.05,1.012,1.012,0,0,0,.49-.86V16.44L48.18,16H49v6.18a2.993,2.993,0,0,0-.22,5.56l-1.75,7.02a1.022,1.022,0,0,0,.18.86A1,1,0,0,0,48,36h4a1,1,0,0,0,.79-.38,1.022,1.022,0,0,0,.18-.86l-1.75-7.02A2.993,2.993,0,0,0,51,22.18V15a1,1,0,0,0-1-1H48.18L33,8.31ZM32,24a31.313,31.313,0,0,1-11.62-1.98A12.543,12.543,0,0,1,19,21.38V17.19l12.65,4.75a1.051,1.051,0,0,0,.7,0L45,17.19v4.19a14.72,14.72,0,0,1-1.38.65A31.528,31.528,0,0,1,32,24Zm18,2a1,1,0,1,1,1-1A1,1,0,0,1,50,26Zm.72,8H49.28L50,31.12ZM32,10.07,42.49,14H32v2H42.49L32,19.93,18.85,15ZM8,4H28a3.009,3.009,0,0,1,3,3V8.31L15.65,14.06a1,1,0,0,0,0,1.88l1.35.5v5.53a1.012,1.012,0,0,0,.49.86,15.626,15.626,0,0,0,2.13,1.04A32.425,32.425,0,0,0,31,25.98V42H8ZM55,60H10a3,3,0,0,1,0-6H55Zm0-8H9V48H55a2,2,0,0,1,0,4Zm5-6H4V8H6V43a1,1,0,0,0,1,1H57a1,1,0,0,0,1-1V8h2Z" fill="url(#linear-gradient)"/>
    <path id="Trazado_12326" data-name="Trazado 12326" d="M12,56H52v2H12Z" fill="url(#linear-gradient-2)"/>
  </g>
</svg>
