<svg xmlns="http://www.w3.org/2000/svg" width="389" height="289.324" viewBox="0 0 389 289.324">
  <g id="Grupo_13298" data-name="Grupo 13298" transform="translate(-289.472 -5914)">
    <g id="Grupo_13185" data-name="Grupo 13185" transform="translate(562.878 5994.97)">
      <path id="Trazado_12346" data-name="Trazado 12346" d="M651.534,6025.732c-3.52,4.266-6.821,8.74-10,13.319,4.919-16.611-5.695-24.1-5.695-24.1-5.6,18.99.088,26.321,2.653,28.531-1.912,2.911-3.725,5.889-5.5,8.9.6-17.885-11.908-22.334-11.908-22.334-.292,18.471,6.137,24.541,9.491,26.452-2.795,5.008-5.373,10.144-7.77,15.363-1.014-19-14.6-22.01-14.6-22.01,2.03,19.372,9.8,24.15,13.119,25.324a216.3,216.3,0,0,0-12.719,38.1,1.3,1.3,0,0,0,2.555.528,211.479,211.479,0,0,1,7.035-23.816c22.488-.123,24.739-11.213,24.739-11.213-11.336-1.886-18.171,1.178-22.154,4.576,2.065-5.2,4.262-10.355,6.725-15.385.891.878,9.245,8.189,28.958-4.3,0,0-12-10.021-28.839,4.049a211.919,211.919,0,0,1,13.387-23.29c23.582,5.582,28.305-5.354,28.305-5.354-13.992-5.535-22.241-1.206-26.132,2.188,3.1-4.5,6.324-8.887,9.749-13.076,21.261-8.47,19.264-19.79,19.264-19.79C656.615,6011.794,652.581,6020.88,651.534,6025.732Z" transform="translate(-608.206 -6008.395)" fill="#80b2f1"/>
    </g>
    <g id="Grupo_13186" data-name="Grupo 13186" transform="translate(365.502 5993.275)">
      <path id="Trazado_12347" data-name="Trazado 12347" d="M398.781,6018.955c3.89,2.26,7.669,4.738,11.385,7.33-8.42-11.238-2.4-19.867-2.4-19.867,9.611,12.852,7.308,19.993,5.965,22.381,2.278,1.677,4.5,3.434,6.7,5.227-5.473-13.4,2.856-20.247,2.856-20.247,5.4,13.932,2.18,20.319.148,22.7,3.542,3.022,6.955,6.2,10.252,9.5-4.55-14.7,5.01-20.752,5.01-20.752,3.874,15.26-.733,21.041-2.946,22.852a175.068,175.068,0,0,1,20.412,25.378c.75,1.139-1.056,2.25-1.806,1.11a171.141,171.141,0,0,0-12.059-16.117c-17.245,6.147-22.075-1.641-22.075-1.641,8.147-4.577,14.238-4.149,18.237-2.676-3.037-3.373-6.163-6.673-9.458-9.806-.436.913-4.781,8.778-23.369,4.773,0,0,6.373-10.93,23.207-4.93a172.321,172.321,0,0,0-16.772-13.954c-16.485,10.777-23.164,3.793-23.164,3.793,9.158-8.083,16.685-7.086,20.613-5.592-3.631-2.556-7.33-4.987-11.125-7.215-18.647-.525-20.29-9.667-20.29-9.667C390.986,6009.792,396.62,6015.564,398.781,6018.955Z" transform="translate(-378.107 -6006.418)" fill="#80b2f1"/>
    </g>
    <g id="Grupo_13187" data-name="Grupo 13187" transform="translate(577.175 6041.766)">
      <path id="Trazado_12348" data-name="Trazado 12348" d="M668.794,6065.646a12.8,12.8,0,0,1,2.571,4.079c5.393,13.022-21.494,41.4-33.263,49.557l-13.228,6.329c2.693-5.257,10.22-36.087,13.347-43.241,4.828-11.042,21.116-24.475,29.738-17.5A9.268,9.268,0,0,1,668.794,6065.646Z" transform="translate(-624.873 -6062.949)" fill="#ffb833"/>
      <path id="Trazado_12349" data-name="Trazado 12349" d="M688.9,6077.807c.057.075.111.155.165.236a11.188,11.188,0,0,1,1.29,2.8,23.719,23.719,0,0,1-4.855,22.791,37.9,37.9,0,0,1-6.619,5.548,102.5,102.5,0,0,1-38.913,16.386l-15.094,1.592c3.453-2.282,15.964-17.409,18.8-20.419,4.208-4.484,7.363-9.836,10.751-14.966s7.142-10.188,12.181-13.711,11.612-5.345,17.468-3.448a10.105,10.105,0,0,1,4.286,2.548A6.5,6.5,0,0,1,688.9,6077.807Z" transform="translate(-624.873 -6064.5)" fill="#f87314"/>
      <path id="Trazado_12350" data-name="Trazado 12350" d="M625.836,6135.568q-.5.2-.963.37C625.185,6135.825,625.508,6135.7,625.836,6135.568Z" transform="translate(-624.873 -6073.276)" fill="#d7fbff"/>
      <path id="Trazado_12351" data-name="Trazado 12351" d="M626,6135.546c.1-.039.2-.085.305-.127C626.2,6135.461,626.1,6135.506,626,6135.546Z" transform="translate(-625.033 -6073.254)" fill="#d7fbff"/>
      <path id="Trazado_12352" data-name="Trazado 12352" d="M664.938,6101.408c5.027-3.975,10.2-8.05,14.377-12.935,3.085-3.61,5.673-7.681,9.25-10.758a6.442,6.442,0,0,1,.544.642c.057.074.111.155.165.235-4.015,3.432-6.788,8.183-10.385,12.064-4.594,4.961-10.059,9.228-15.408,13.335-7.891,6.063-26.985,19.044-37.129,23.222C637.2,6122.719,656.484,6108.1,664.938,6101.408Z" transform="translate(-625.083 -6065.049)" fill="#fff"/>
      <path id="Trazado_12353" data-name="Trazado 12353" d="M650.938,6090.268c-5.6,7.14-19.4,29.45-26.065,35.591,7.18-6.639,20.854-30.568,26.769-38.366,3.587-4.723,6.818-9.66,9.976-14.674a41.725,41.725,0,0,1,6.248-8.125,9.325,9.325,0,0,1,.841.778c-3.052,2.875-5.267,6.608-7.514,10.193A170.22,170.22,0,0,1,650.938,6090.268Z" transform="translate(-624.873 -6063.197)" fill="#fff"/>
      <path id="Trazado_12354" data-name="Trazado 12354" d="M697.88,6125.5a11.693,11.693,0,0,1-.076,1.209c-.469,4.365-3.19,9.255-9.333,13.059-11.83,7.327-57.811-4.682-63.6-6.633l12.64-6.2c7.623-3.245,48.239-12.969,54.782-10.782C695.625,6117.258,697.945,6121,697.88,6125.5Z" transform="translate(-624.873 -6070.47)" fill="#80b2f1"/>
      <path id="Trazado_12355" data-name="Trazado 12355" d="M690.076,6129.794c3.871-.7,7.69-1.665,11.487-2.7a11.693,11.693,0,0,1-.076,1.209c-3.549.957-7.11,1.856-10.721,2.523a77.568,77.568,0,0,1-15.86,1.063c-8.049-.161-16.109-.174-24.137.343,8.628-.886,17.266-1.609,22.3-1.519A86.41,86.41,0,0,0,690.076,6129.794Z" transform="translate(-628.556 -6072.072)" fill="#fff"/>
      <path id="Trazado_12356" data-name="Trazado 12356" d="M624.873,6135.585l14.942-1.876c2.42-.265,4.844-.464,7.271-.621C638.472,6133.973,629.87,6135.021,624.873,6135.585Z" transform="translate(-624.873 -6072.924)" fill="#fff"/>
    </g>
    <path id="Trazado_12357" data-name="Trazado 12357" d="M513.371,6151.481a55.556,55.556,0,0,0,8.374,20.214l-12.728,12.729,15.332,15.332,12.73-12.728a55.5,55.5,0,0,0,20.212,8.371v18h21.686v-18a55.468,55.468,0,0,0,20.213-8.375l12.729,12.732,15.333-15.334-12.731-12.729a55.51,55.51,0,0,0,8.373-20.211h18V6129.8h-18a55.523,55.523,0,0,0-8.373-20.213l12.731-12.727-15.333-15.334-12.73,12.73a55.528,55.528,0,0,0-20.211-8.375v-18H557.291v18a55.567,55.567,0,0,0-20.212,8.373l-12.73-12.729-15.332,15.333,12.73,12.727a55.514,55.514,0,0,0-8.375,20.214h-18v21.685Zm26.382-10.841a28.379,28.379,0,1,1,28.379,28.378A28.379,28.379,0,0,1,539.753,6140.64Z" transform="translate(-29.281 -21.883)" fill="#6b614f"/>
    <path id="Trazado_12358" data-name="Trazado 12358" d="M410.071,6091.811a32.119,32.119,0,0,0,2.079,12.487l-8.835,5.512,6.639,10.644,8.837-5.509a32.107,32.107,0,0,0,10.3,7.355l-2.351,10.148,12.224,2.832,2.351-10.147a32.1,32.1,0,0,0,12.486-2.081l5.512,8.838,10.643-6.641-5.512-8.836a32.132,32.132,0,0,0,7.359-10.3l10.147,2.35,2.832-12.225-10.147-2.35a32.131,32.131,0,0,0-2.08-12.485l8.836-5.513-6.638-10.645-8.838,5.513a32.1,32.1,0,0,0-10.3-7.358l2.35-10.146-12.224-2.833-2.35,10.147a32.12,32.12,0,0,0-12.485,2.078l-5.514-8.835-10.643,6.638,5.512,8.838a32.093,32.093,0,0,0-7.36,10.3l-10.146-2.35-2.832,12.225Zm16.287-2.667a16.419,16.419,0,1,1,12.29,19.7A16.418,16.418,0,0,1,426.358,6089.145Z" transform="translate(-15.708 -19.401)" fill="#f87314"/>
    <g id="Grupo_13189" data-name="Grupo 13189" transform="translate(455.005 5993.313)">
      <g id="Grupo_13188" data-name="Grupo 13188">
        <path id="Trazado_12359" data-name="Trazado 12359" d="M493.389,6050.839a23.983,23.983,0,0,0,6.728,6.621l-2.9,7.2,8.663,3.509,2.9-7.2a23.872,23.872,0,0,0,9.423-.077l3.037,7.152,8.6-3.65-3.037-7.152a23.863,23.863,0,0,0,6.6-6.728l7.193,2.914,3.49-8.671-7.192-2.914a24,24,0,0,0-.091-9.438l7.136-3.03-3.659-8.616-7.135,3.031a23.993,23.993,0,0,0-6.728-6.62l2.9-7.2-8.662-3.511-2.9,7.2a23.89,23.89,0,0,0-9.423.074l-3.036-7.15-8.6,3.649,3.037,7.152a23.879,23.879,0,0,0-6.6,6.726l-7.193-2.913-3.49,8.669,7.193,2.914a23.968,23.968,0,0,0,.089,9.439l-7.134,3.03,3.658,8.614Zm8.628-8.748a12.221,12.221,0,1,1,16.035,6.5A12.232,12.232,0,0,1,502.018,6042.091Z" transform="translate(-482.449 -6006.462)" fill="#ffb833"/>
      </g>
    </g>
    <g id="Grupo_13195" data-name="Grupo 13195" transform="translate(293.844 5966.928)">
      <g id="Grupo_13190" data-name="Grupo 13190" transform="translate(28.306)">
        <path id="Trazado_12360" data-name="Trazado 12360" d="M327.568,5975.7l24.717,18.5.588-6.988Z" transform="translate(-327.568 -5975.703)" fill="#d2804b"/>
        <path id="Trazado_12361" data-name="Trazado 12361" d="M327.568,5975.7l29.952,7.271-6.322,5.666Z" transform="translate(-327.568 -5975.703)" fill="#fdd373"/>
        <path id="Trazado_12362" data-name="Trazado 12362" d="M327.568,5975.7l23.6,12.966,1.114,5.531,2.619-8.727Z" transform="translate(-327.568 -5975.702)" fill="#fd9a5a"/>
        <path id="Trazado_12363" data-name="Trazado 12363" d="M351.2,5988.64l-7.782,6.656L327.568,5975.7Z" transform="translate(-327.568 -5975.703)" fill="#fdd373"/>
      </g>
      <g id="Grupo_13194" data-name="Grupo 13194" transform="translate(0 21.339)">
        <g id="Grupo_13191" data-name="Grupo 13191" transform="translate(56.212)">
          <path id="Trazado_12364" data-name="Trazado 12364" d="M361.511,6001.54a.218.218,0,0,0,.1-.41,9.178,9.178,0,0,0-1.222-.537.217.217,0,1,0-.146.41,8.8,8.8,0,0,1,1.165.511A.218.218,0,0,0,361.511,6001.54Z" transform="translate(-360.101 -6000.58)" fill="#327ad4"/>
        </g>
        <g id="Grupo_13192" data-name="Grupo 13192" transform="translate(0 2.062)">
          <path id="Trazado_12365" data-name="Trazado 12365" d="M297.963,6113.32c-.255-.833-.5-1.685-.727-2.532a.216.216,0,0,1,.154-.267.219.219,0,0,1,.266.153c.226.842.47,1.69.723,2.519a.218.218,0,0,1-.144.272.223.223,0,0,1-.063.009A.219.219,0,0,1,297.963,6113.32Zm-1.366-5.091c-.2-.854-.383-1.722-.551-2.578a.218.218,0,0,1,.172-.255.214.214,0,0,1,.256.172c.166.851.351,1.713.547,2.563a.218.218,0,0,1-.163.261.237.237,0,0,1-.049,0A.216.216,0,0,1,296.6,6108.229Zm-1.013-5.173c-.138-.859-.264-1.738-.375-2.609a.217.217,0,1,1,.431-.055c.11.867.235,1.741.373,2.6a.217.217,0,0,1-.18.249.172.172,0,0,1-.035,0A.217.217,0,0,1,295.585,6103.056Zm-.664-5.229c-.081-.872-.149-1.756-.2-2.628a.217.217,0,0,1,.434-.026c.052.866.12,1.747.2,2.614a.216.216,0,0,1-.2.236h-.021A.217.217,0,0,1,294.921,6097.827Zm-.319-5.261c-.021-.767-.033-1.545-.033-2.314v-.321a.217.217,0,0,1,.218-.216h0a.216.216,0,0,1,.216.218v.319c0,.764.011,1.54.033,2.3a.216.216,0,0,1-.211.223h-.007A.218.218,0,0,1,294.6,6092.566Zm.23-5.044a.218.218,0,0,1-.209-.225c.031-.875.077-1.76.135-2.633a.218.218,0,0,1,.232-.2.216.216,0,0,1,.2.231c-.058.868-.1,1.749-.135,2.618a.218.218,0,0,1-.217.211Zm.341-5.247a.217.217,0,0,1-.195-.238c.086-.869.187-1.75.3-2.618a.217.217,0,1,1,.431.056c-.113.864-.214,1.741-.3,2.6a.217.217,0,0,1-.216.2Zm.668-5.214a.218.218,0,0,1-.179-.25c.141-.865.3-1.738.464-2.594a.217.217,0,1,1,.426.083c-.166.852-.322,1.72-.462,2.58a.217.217,0,0,1-.214.183Zm.993-5.162a.218.218,0,0,1-.164-.261c.194-.853.4-1.715.624-2.56a.217.217,0,1,1,.42.109c-.219.841-.428,1.7-.621,2.546a.218.218,0,0,1-.212.17A.26.26,0,0,1,296.834,6071.9Zm1.312-5.09a.217.217,0,0,1-.147-.27c.247-.843.511-1.69.783-2.517a.217.217,0,1,1,.413.135c-.27.824-.533,1.666-.779,2.5a.217.217,0,0,1-.208.155A.244.244,0,0,1,298.145,6066.809Zm1.628-5a.216.216,0,0,1-.13-.278c.3-.821.615-1.649.94-2.462a.217.217,0,1,1,.4.162c-.323.808-.637,1.632-.935,2.448a.217.217,0,0,1-.2.144A.2.2,0,0,1,299.773,6061.81Zm1.939-4.884a.218.218,0,0,1-.112-.287c.352-.8.72-1.611,1.095-2.4a.218.218,0,0,1,.393.187c-.373.783-.739,1.585-1.089,2.384a.215.215,0,0,1-.2.131A.226.226,0,0,1,301.712,6056.925Zm2.247-4.751a.219.219,0,0,1-.093-.294c.4-.778.822-1.56,1.247-2.32a.217.217,0,1,1,.379.212c-.423.757-.841,1.534-1.24,2.309a.217.217,0,0,1-.193.118A.22.22,0,0,1,303.959,6052.174Zm2.55-4.6a.217.217,0,0,1-.074-.3c.452-.751.923-1.5,1.4-2.234a.217.217,0,1,1,.365.237c-.472.727-.939,1.475-1.39,2.222a.218.218,0,0,1-.187.1A.213.213,0,0,1,306.509,6047.577Zm2.85-4.417a.217.217,0,0,1-.054-.3c.5-.718,1.02-1.435,1.546-2.136a.215.215,0,0,1,.3-.043.218.218,0,0,1,.044.3c-.522.7-1.04,1.409-1.536,2.123a.218.218,0,0,1-.3.054Zm3.142-4.214a.218.218,0,0,1-.033-.306c.551-.685,1.119-1.366,1.689-2.024a.217.217,0,1,1,.329.284c-.566.655-1.131,1.332-1.68,2.012a.213.213,0,0,1-.169.081A.223.223,0,0,1,312.5,6038.947Zm3.428-3.987a.217.217,0,0,1-.012-.307q.508-.549,1.028-1.085.4-.411.8-.815a.218.218,0,0,1,.31.306q-.4.4-.8.813-.516.533-1.022,1.079a.219.219,0,0,1-.16.069A.209.209,0,0,1,315.929,6034.96Zm3.664-3.771a.216.216,0,0,1,0-.307c.719-.738,1.288-1.344,1.791-1.911a.218.218,0,1,1,.325.29c-.508.571-1.082,1.183-1.8,1.925a.218.218,0,0,1-.307,0ZM336.436,6028a.217.217,0,0,1-.214-.221.213.213,0,0,1,.22-.215c.882.014,1.766,0,2.611-.055a.227.227,0,0,1,.23.2.218.218,0,0,1-.2.23c-.67.04-1.364.061-2.063.061C336.823,6028,336.63,6028,336.436,6028Zm-2.639-.127c-.841-.065-1.724-.158-2.625-.275a.218.218,0,0,1,.056-.432c.894.117,1.77.209,2.6.274a.217.217,0,0,1-.017.434Zm7.668-.385a.218.218,0,0,1,.184-.247,26.019,26.019,0,0,0,2.555-.513.218.218,0,0,1,.107.422c-.837.212-1.711.388-2.6.52a.15.15,0,0,1-.033,0A.217.217,0,0,1,341.465,6027.482Zm-18.388-.224a.219.219,0,0,1-.045-.305,20.479,20.479,0,0,0,1.214-1.822c.069-.117.136-.236.2-.355a.217.217,0,1,1,.381.21c-.068.123-.138.246-.208.365a20.7,20.7,0,0,1-1.24,1.86.218.218,0,0,1-.175.089A.226.226,0,0,1,323.078,6027.259Zm5.487-.06q-1.011-.172-2.014-.368c-.192-.037-.384-.076-.577-.115a.217.217,0,1,1,.087-.426l.573.114q1,.193,2,.366a.217.217,0,0,1-.036.432A.225.225,0,0,1,328.565,6027.2Zm17.992-.987a.219.219,0,0,1,.123-.282,21.114,21.114,0,0,0,2.363-1.088.218.218,0,0,1,.206.384,21.989,21.989,0,0,1-2.411,1.111.259.259,0,0,1-.079.014A.218.218,0,0,1,346.557,6026.212Zm-23.157-.094a23.586,23.586,0,0,1-2.522-.822.217.217,0,0,1,.159-.4,23.413,23.413,0,0,0,2.476.807.217.217,0,0,1-.057.427A.205.205,0,0,1,323.4,6026.118Zm-4.916-1.984a11.937,11.937,0,0,1-2.129-1.612.218.218,0,1,1,.3-.314,11.542,11.542,0,0,0,2.052,1.553.217.217,0,0,1-.112.4A.221.221,0,0,1,318.484,6024.134Zm32.715-.362a.216.216,0,0,1,.05-.3,18.4,18.4,0,0,0,2-1.659.218.218,0,1,1,.3.315,18.8,18.8,0,0,1-2.044,1.7.212.212,0,0,1-.126.041A.217.217,0,0,1,351.2,6023.771Zm-25.563-1.083a.219.219,0,0,1-.135-.277,12.933,12.933,0,0,0,.6-2.511.218.218,0,1,1,.431.056,13.383,13.383,0,0,1-.615,2.6.218.218,0,0,1-.206.147A.235.235,0,0,1,325.636,6022.689Zm-10.914-2.3a8.813,8.813,0,0,1-.887-2.535.217.217,0,0,1,.173-.253.22.22,0,0,1,.254.174,8.368,8.368,0,0,0,.844,2.409.218.218,0,0,1-.384.2Zm40.288-.21a.216.216,0,0,1-.042-.3,14.714,14.714,0,0,0,1.372-2.191.217.217,0,1,1,.388.2,15.028,15.028,0,0,1-1.414,2.257.217.217,0,0,1-.173.087A.214.214,0,0,1,355.01,6020.179Zm-28.889-2.847a8.466,8.466,0,0,0-.672-2.462.217.217,0,1,1,.4-.177,8.9,8.9,0,0,1,.707,2.589.219.219,0,0,1-.19.242h-.027A.217.217,0,0,1,326.122,6017.332Zm31.316-1.782a.218.218,0,0,1-.152-.268,11.8,11.8,0,0,0,.408-2.543.218.218,0,0,1,.435.023,12.3,12.3,0,0,1-.424,2.637.219.219,0,0,1-.209.159A.213.213,0,0,1,357.438,6015.55Zm-43.481-.135a.219.219,0,0,1-.182-.249,6.083,6.083,0,0,1,.963-2.525.217.217,0,1,1,.359.245,5.636,5.636,0,0,0-.893,2.346.217.217,0,0,1-.214.185Zm10.037-2.612a7.454,7.454,0,0,0-2.107-1.422.217.217,0,1,1,.178-.4,7.9,7.9,0,0,1,2.23,1.505.217.217,0,0,1-.3.313Zm-7.306-1.644a.218.218,0,0,1,.1-.29,5.513,5.513,0,0,1,2.657-.521.217.217,0,0,1,.208.226.212.212,0,0,1-.226.208,5.129,5.129,0,0,0-2.451.48.215.215,0,0,1-.29-.1Zm40.877-1a12.948,12.948,0,0,0-.639-2.5.217.217,0,0,1,.407-.149,13.288,13.288,0,0,1,.661,2.584.218.218,0,0,1-.182.249l-.033,0A.217.217,0,0,1,357.565,6010.163Zm-1.776-4.814a10.682,10.682,0,0,0-1.624-1.992.217.217,0,1,1,.3-.313,11.075,11.075,0,0,1,1.69,2.072.216.216,0,0,1-.067.3.208.208,0,0,1-.116.035A.217.217,0,0,1,355.789,6005.349Z" transform="translate(-294.569 -6002.983)" fill="#327ad4"/>
        </g>
        <g id="Grupo_13193" data-name="Grupo 13193" transform="translate(4.213 114.66)">
          <path id="Trazado_12366" data-name="Trazado 12366" d="M300.135,6135.913a.217.217,0,0,0,.2-.292q-.223-.61-.436-1.225a.217.217,0,0,0-.411.141q.214.619.438,1.234A.218.218,0,0,0,300.135,6135.913Z" transform="translate(-299.481 -6134.249)" fill="#327ad4"/>
        </g>
      </g>
    </g>
    <g id="Grupo_13198" data-name="Grupo 13198" transform="translate(507.613 5914)">
      <g id="Grupo_13196" data-name="Grupo 13196" transform="translate(23.38 10.484)">
        <path id="Trazado_12367" data-name="Trazado 12367" d="M695.436,6064.643a.19.19,0,0,1-.2-.18q-.06-1.14-.127-2.282a.191.191,0,1,1,.381-.022q.067,1.143.127,2.284a.191.191,0,0,1-.129.19A.18.18,0,0,1,695.436,6064.643Zm-.266-4.565a.191.191,0,0,1-.2-.178q-.075-1.14-.155-2.28a.19.19,0,0,1,.38-.026q.081,1.141.155,2.283a.191.191,0,0,1-.128.192A.214.214,0,0,1,695.17,6060.078Zm-.322-4.562a.193.193,0,0,1-.205-.176q-.088-1.14-.184-2.279a.191.191,0,0,1,.38-.033q.1,1.141.185,2.281a.19.19,0,0,1-.128.2A.243.243,0,0,1,694.847,6055.516Zm-.383-4.559a.191.191,0,0,1-.208-.173q-.1-1.138-.216-2.275a.19.19,0,0,1,.379-.038q.112,1.139.217,2.278a.192.192,0,0,1-.128.2A.269.269,0,0,1,694.465,6050.957Zm-.448-4.553a.192.192,0,0,1-.21-.17q-.121-1.136-.25-2.272a.191.191,0,0,1,.379-.043q.13,1.137.251,2.275a.191.191,0,0,1-.127.2A.3.3,0,0,1,694.017,6046.4Zm-.516-4.547a.191.191,0,0,1-.213-.167q-.138-1.135-.287-2.268a.192.192,0,0,1,.165-.214.19.19,0,0,1,.214.164q.148,1.136.287,2.271a.191.191,0,0,1-.166.213Zm-.589-4.538a.19.19,0,0,1-.215-.162q-.158-1.132-.325-2.264a.191.191,0,0,1,.378-.056q.167,1.134.325,2.267a.192.192,0,0,1-.127.207A.168.168,0,0,1,692.912,6037.319Zm-.667-4.528a.189.189,0,0,1-.217-.158q-.177-1.13-.365-2.258a.19.19,0,1,1,.376-.063q.188,1.13.366,2.261a.191.191,0,0,1-.127.21Zm-.747-4.516a.191.191,0,0,1-.221-.154q-.2-1.126-.407-2.25a.191.191,0,1,1,.375-.07q.21,1.126.408,2.254a.19.19,0,0,1-.125.212A.127.127,0,0,1,691.5,6028.275Zm-.835-4.5a.189.189,0,0,1-.224-.15q-.221-1.121-.453-2.241a.191.191,0,1,1,.373-.078q.233,1.121.454,2.245a.189.189,0,0,1-.125.217A.088.088,0,0,1,690.663,6023.775Zm-.926-4.482a.192.192,0,0,1-.227-.146q-.245-1.117-.5-2.231a.191.191,0,0,1,.371-.086q.257,1.115.5,2.236a.19.19,0,0,1-.123.221Zm-1.022-4.462a.19.19,0,0,1-.23-.141q-.269-1.111-.55-2.219a.19.19,0,1,1,.369-.094q.282,1.11.552,2.224a.191.191,0,0,1-.124.225Zm-1.122-4.438a.19.19,0,0,1-.233-.135q-.295-1.105-.6-2.206a.189.189,0,0,1,.133-.236.192.192,0,0,1,.235.133q.308,1.1.6,2.21a.191.191,0,0,1-.122.229Zm-1.228-4.41a.191.191,0,0,1-.237-.13q-.322-1.1-.657-2.19a.183.183,0,0,1,.126-.238.19.19,0,0,1,.239.127q.336,1.094.659,2.194a.192.192,0,0,1-.121.234Zm-1.339-4.377a.191.191,0,0,1-.239-.124q-.35-1.088-.715-2.171a.191.191,0,0,1,.119-.241h0a.191.191,0,0,1,.242.12q.364,1.085.715,2.176a.191.191,0,0,1-.119.239Zm-1.7-4.458q-.38-1.078-.774-2.15a.191.191,0,0,1,.113-.245.183.183,0,0,1,.245.114q.4,1.074.775,2.155a.192.192,0,0,1-.117.244h0A.19.19,0,0,1,683.33,5997.147Zm-1.577-4.29q-.411-1.066-.836-2.126a.191.191,0,0,1,.106-.248.194.194,0,0,1,.248.105q.427,1.063.837,2.133a.19.19,0,0,1-.109.246l-.007,0A.191.191,0,0,1,681.753,5992.857Zm-1.7-4.242q-.443-1.053-.9-2.1a.19.19,0,0,1,.1-.25.193.193,0,0,1,.251.1q.458,1.05.9,2.107a.191.191,0,0,1-.1.25l-.011,0A.19.19,0,0,1,680.051,5988.616Zm-1.831-4.187q-.473-1.04-.965-2.071a.191.191,0,0,1,.09-.254.186.186,0,0,1,.254.09q.493,1.034.968,2.077a.191.191,0,0,1-.094.253l-.017.007A.191.191,0,0,1,678.22,5984.429Zm-1.964-4.126q-.508-1.025-1.033-2.038a.192.192,0,0,1,.082-.258.188.188,0,0,1,.256.082q.526,1.017,1.035,2.044a.191.191,0,0,1-.086.256l-.023.009A.19.19,0,0,1,676.256,5980.3Zm-2.1-4.058q-.542-1.007-1.1-2a.19.19,0,0,1,.332-.186q.562,1,1.1,2.008a.189.189,0,0,1-.077.258l-.028.012A.191.191,0,0,1,674.156,5976.245Zm-2.239-3.983q-.576-.986-1.172-1.961a.19.19,0,0,1,.325-.2q.6.979,1.176,1.966a.19.19,0,0,1-.068.261.237.237,0,0,1-.035.017A.192.192,0,0,1,671.918,5972.262Zm-2.379-3.9q-.611-.965-1.242-1.917a.19.19,0,1,1,.317-.21q.633.955,1.247,1.922a.189.189,0,0,1-.059.262.173.173,0,0,1-.04.02A.192.192,0,0,1,669.538,5968.363Zm-26.693,9.159a.191.191,0,0,1-.12-.362h0l.219-.072a10.4,10.4,0,0,0,1.831-.836.191.191,0,1,1,.192.329,10.614,10.614,0,0,1-1.9.867l-.017.006C642.986,5977.477,642.916,5977.5,642.846,5977.522Zm-2.275.475a11,11,0,0,1-1.3.057c-.338-.005-.683-.024-1.024-.058a.191.191,0,0,1-.172-.208.189.189,0,0,1,.208-.171c.331.031.666.05.993.056a10.78,10.78,0,0,0,1.252-.055.19.19,0,0,1,.081.369A.154.154,0,0,1,640.571,5978Zm5.986-2.829a.191.191,0,0,1,0-.27,7.849,7.849,0,0,0,1.354-1.766.191.191,0,0,1,.334.186,8.261,8.261,0,0,1-1.42,1.852.2.2,0,0,1-.072.044A.19.19,0,0,1,646.556,5975.168Zm-10.585,2.408a16.391,16.391,0,0,1-2.184-.766.19.19,0,0,1,.151-.35,15.922,15.922,0,0,0,2.133.746.191.191,0,0,1-.1.369Zm12.883-6.293a.191.191,0,0,1-.142-.23,9.655,9.655,0,0,0,.247-2.224.191.191,0,1,1,.382,0,10.03,10.03,0,0,1-.257,2.312.191.191,0,0,1-.124.137A.193.193,0,0,1,648.854,5971.283Zm18.163-6.728q-.647-.94-1.314-1.869a.191.191,0,1,1,.31-.222q.669.931,1.318,1.874a.19.19,0,0,1-.049.265.218.218,0,0,1-.046.024A.192.192,0,0,1,667.017,5964.555Zm-35.291,11.216a23,23,0,0,1-1.934-1.258.191.191,0,1,1,.224-.309,22.6,22.6,0,0,0,1.9,1.237.19.19,0,0,1-.19.33Zm17.245-9.029a.192.192,0,0,1-.221-.155,17.644,17.644,0,0,0-.546-2.194.2.2,0,0,1,.124-.24.191.191,0,0,1,.239.125,18.086,18.086,0,0,1,.558,2.243.191.191,0,0,1-.126.213A.124.124,0,0,1,648.971,5966.742Zm15.382-5.9q-.466-.625-.942-1.244-.22-.286-.443-.572a.191.191,0,1,1,.3-.235l.445.575q.476.622.944,1.247a.19.19,0,0,1-.039.267.207.207,0,0,1-.051.028A.193.193,0,0,1,664.353,5960.845Zm-36.36,12.225a22.806,22.806,0,0,1-1.638-1.625.191.191,0,0,1,.282-.257,21.959,21.959,0,0,0,1.611,1.6.191.191,0,0,1,.015.269.18.18,0,0,1-.08.053A.191.191,0,0,1,627.993,5973.07Zm19.421-10.805c-.153-.359-.312-.714-.476-1.062s-.322-.669-.488-1a.191.191,0,1,1,.34-.171q.252.5.492,1.008.25.53.483,1.076a.192.192,0,0,1-.1.25l-.013,0A.192.192,0,0,1,647.414,5962.265Zm14.126-5.016c-.5-.6-.993-1.186-1.479-1.738a.191.191,0,0,1,.286-.251c.488.555.988,1.143,1.487,1.747a.19.19,0,0,1-.026.268.192.192,0,0,1-.059.034A.19.19,0,0,1,661.54,5957.249Zm-36.652,12.417a22.845,22.845,0,0,1-1.282-1.917.19.19,0,0,1,.327-.2c.386.645.811,1.279,1.261,1.885a.192.192,0,0,1-.039.267.177.177,0,0,1-.052.026A.188.188,0,0,1,624.889,5969.666Zm33.635-15.84c-.533-.562-1.071-1.107-1.6-1.621a.191.191,0,0,1,.265-.274c.535.518,1.079,1.068,1.615,1.633a.191.191,0,0,1-.008.269.189.189,0,0,1-.269-.007Zm-13.149,4.368c-.372-.653-.767-1.31-1.176-1.952a.191.191,0,0,1,.323-.2c.412.646.81,1.309,1.185,1.968a.19.19,0,0,1-.071.26.32.32,0,0,1-.033.015A.191.191,0,0,1,645.374,5958.194Zm-22.849,7.517a20.905,20.905,0,0,1-.814-2.016l-.043-.127a.189.189,0,0,1,.118-.24h0a.191.191,0,0,1,.241.12l.042.124a20.527,20.527,0,0,0,.8,1.979.191.191,0,0,1-.093.254l-.018.007A.19.19,0,0,1,622.525,5965.711Zm32.719-15.051c-.581-.509-1.171-1-1.754-1.452a.191.191,0,0,1,.235-.3c.588.459,1.185.952,1.77,1.466a.191.191,0,0,1,.018.268.187.187,0,0,1-.082.055A.191.191,0,0,1,655.244,5950.66Zm-12.315,3.691c-.432-.614-.89-1.229-1.358-1.83a.191.191,0,1,1,.3-.234c.472.605.932,1.226,1.368,1.843a.19.19,0,0,1-.045.266.164.164,0,0,1-.048.024A.191.191,0,0,1,642.929,5954.351Zm-21.64,7.136a.19.19,0,0,1-.226-.147,17.482,17.482,0,0,1-.319-2.29.191.191,0,1,1,.38-.028,17,17,0,0,0,.313,2.24.191.191,0,0,1-.125.219Zm30.364-13.624c-.635-.434-1.282-.842-1.922-1.215a.191.191,0,0,1,.191-.33c.649.377,1.3.791,1.945,1.229a.192.192,0,0,1,.05.266.187.187,0,0,1-.1.072A.189.189,0,0,1,651.652,5947.864Zm-11.523,2.893c-.491-.574-1-1.146-1.519-1.7a.191.191,0,0,1,.279-.261c.521.558,1.036,1.134,1.53,1.711a.19.19,0,0,1-.021.269.2.2,0,0,1-.062.035A.19.19,0,0,1,640.13,5950.756Zm-19.208,6.185a.191.191,0,0,1-.176-.205,14.523,14.523,0,0,1,.356-2.288.191.191,0,0,1,.371.089,14.143,14.143,0,0,0-.347,2.228.192.192,0,0,1-.2.176Zm26.8-11.36c-.688-.331-1.389-.633-2.084-.9a.191.191,0,1,1,.136-.357c.706.269,1.417.575,2.114.911a.19.19,0,0,1,.089.253.192.192,0,0,1-.11.1A.186.186,0,0,1,647.725,5945.582Zm-10.705,1.844c-.534-.526-1.093-1.052-1.658-1.565a.191.191,0,1,1,.256-.282c.569.516,1.131,1.046,1.668,1.575a.19.19,0,0,1,0,.269.188.188,0,0,1-.269,0Zm-15.09,5.074a.191.191,0,0,1-.1-.25c.1-.247.218-.491.338-.734a13.818,13.818,0,0,1,.748-1.312.191.191,0,1,1,.321.207,13.175,13.175,0,0,0-.727,1.275q-.175.354-.329.714a.192.192,0,0,1-.114.105A.184.184,0,0,1,621.93,5952.5Zm21.556-8.523a20.2,20.2,0,0,0-2.216-.47.19.19,0,1,1,.058-.376,20.543,20.543,0,0,1,2.258.479.191.191,0,0,1,.011.365A.184.184,0,0,1,643.486,5943.976Zm-19.142,4.662a.191.191,0,0,1-.012-.269,14.78,14.78,0,0,1,1.693-1.579.191.191,0,1,1,.238.3,14.433,14.433,0,0,0-1.65,1.538.191.191,0,0,1-.269.012Zm14.672-5.357a21.413,21.413,0,0,0-2.267.017.192.192,0,0,1-.2-.18.189.189,0,0,1,.179-.2,21.767,21.767,0,0,1,2.307-.017.191.191,0,0,1,.053.371A.169.169,0,0,1,639.016,5943.28Zm-5.373,1.084c-.2-.17-.409-.339-.618-.51-.249.063-.495.127-.739.2a.19.19,0,0,1-.236-.13.185.185,0,0,1,.131-.235c.156-.045.314-.089.473-.13-.262-.208-.525-.417-.789-.62a.191.191,0,0,1-.033-.268.189.189,0,0,1,.267-.034c.343.265.685.534,1.021.806.433-.1.872-.19,1.313-.265a.19.19,0,1,1,.064.375q-.5.085-1,.195.2.163.393.326a.191.191,0,0,1-.245.292Zm-5.776,1.379a.191.191,0,0,1,.069-.261,17.7,17.7,0,0,1,2.067-1.031.192.192,0,0,1,.25.1.19.19,0,0,1-.1.25,17.326,17.326,0,0,0-2.023,1.011.281.281,0,0,1-.034.016A.191.191,0,0,1,627.866,5945.744Zm2.169-4.168c-.613-.439-1.246-.875-1.879-1.293a.191.191,0,1,1,.21-.318c.637.421,1.273.86,1.891,1.3a.191.191,0,0,1-.222.311Zm-3.8-2.52c-.642-.394-1.3-.783-1.964-1.159a.191.191,0,0,1,.188-.332c.665.376,1.33.77,1.976,1.167a.19.19,0,1,1-.2.324Zm-3.968-2.251c-.671-.352-1.356-.7-2.038-1.026a.19.19,0,1,1,.166-.343c.685.331,1.375.677,2.05,1.031a.191.191,0,0,1,.08.257.184.184,0,0,1-.106.091A.188.188,0,0,1,622.265,5936.8Zm-4.109-1.985c-.689-.305-1.4-.606-2.1-.893a.191.191,0,1,1,.143-.354c.709.288,1.42.591,2.112.9a.191.191,0,0,1-.016.355A.186.186,0,0,1,618.156,5934.82Zm-4.229-1.72-.4-.147q-.872-.318-1.75-.614a.191.191,0,0,1,.123-.361q.881.3,1.758.617l.4.148a.191.191,0,0,1,0,.36A.2.2,0,0,1,613.927,5933.1Zm-4.324-1.464c-.721-.224-1.458-.44-2.19-.646a.191.191,0,1,1,.1-.367c.735.207,1.475.424,2.2.647a.192.192,0,0,1,.126.239.2.2,0,0,1-.121.124A.193.193,0,0,1,609.6,5931.636Zm-4.4-1.234c-.727-.185-1.473-.364-2.219-.535a.191.191,0,0,1,.085-.372c.749.171,1.5.353,2.229.537a.191.191,0,0,1,.015.366A.2.2,0,0,1,605.207,5930.4Zm-4.451-1.021q-1.118-.229-2.241-.435a.191.191,0,0,1,.069-.375q1.127.207,2.25.438a.19.19,0,0,1,.023.367A.187.187,0,0,1,600.756,5929.382Zm-4.492-.825q-1.126-.182-2.258-.346a.191.191,0,0,1,.055-.377q1.133.163,2.265.347a.19.19,0,0,1,.157.219.187.187,0,0,1-.126.149A.184.184,0,0,1,596.263,5928.557Zm-4.521-.65q-1.132-.141-2.269-.266a.191.191,0,0,1,.041-.379q1.14.124,2.276.267a.191.191,0,0,1,.038.37A.18.18,0,0,1,591.742,5927.907Zm-4.543-.5q-1.136-.107-2.276-.2a.191.191,0,1,1,.03-.38q1.141.09,2.282.2a.192.192,0,0,1,.172.208.194.194,0,0,1-.129.163A.188.188,0,0,1,587.2,5927.412Zm-4.556-.361q-1.14-.075-2.282-.137a.191.191,0,0,1,.021-.381q1.144.062,2.286.137a.191.191,0,1,1-.025.38Zm-4.565-.247q-1.141-.05-2.284-.087a.191.191,0,1,1,.013-.381q1.144.038,2.288.087a.191.191,0,0,1,.054.371A.185.185,0,0,1,578.078,5926.8Zm-4.57-.153q-1.143-.027-2.286-.047a.19.19,0,1,1,.006-.381q1.145.019,2.289.047a.19.19,0,0,1,.186.194.188.188,0,0,1-.129.176A.176.176,0,0,1,573.508,5926.65Z" transform="translate(-571.034 -5926.222)" fill="#327ad4"/>
      </g>
      <g id="Grupo_13197" data-name="Grupo 13197">
        <path id="Trazado_12368" data-name="Trazado 12368" d="M543.778,5918.507l27.246,7.445-1.846-6.145Z" transform="translate(-543.778 -5914.641)" fill="#d2804b"/>
        <path id="Trazado_12369" data-name="Trazado 12369" d="M543.778,5917.866,571.712,5914l-3.479,6.944Z" transform="translate(-543.778 -5914)" fill="#fdd373"/>
        <path id="Trazado_12370" data-name="Trazado 12370" d="M543.778,5918.364l24.441,3.112,2.805,4.333-.7-8.306Z" transform="translate(-543.778 -5914.499)" fill="#fd9a5a"/>
        <path id="Trazado_12371" data-name="Trazado 12371" d="M568.233,5921.585l-4.389,8.277-20.066-11.356Z" transform="translate(-543.778 -5914.641)" fill="#fdd373"/>
      </g>
    </g>
    <g id="Grupo_13204" data-name="Grupo 13204" transform="translate(439.921 5926.872)">
      <g id="Grupo_13200" data-name="Grupo 13200" transform="translate(18.546)">
        <g id="Grupo_13199" data-name="Grupo 13199">
          <path id="Trazado_12372" data-name="Trazado 12372" d="M515.32,5942.638l-.238-10.136a3.473,3.473,0,0,0-3.455-3.39l-21.657-.106a3.471,3.471,0,0,0-3.485,3.47v13.967a3.471,3.471,0,0,0,3.471,3.47h20.615a3.473,3.473,0,0,1,.877.113l8.525,2.226-4.255-8.079A3.464,3.464,0,0,1,515.32,5942.638Z" transform="translate(-486.485 -5929.006)" fill="#e4effd"/>
        </g>
      </g>
      <g id="Grupo_13203" data-name="Grupo 13203" transform="translate(0 12.227)">
        <g id="Grupo_13202" data-name="Grupo 13202">
          <g id="Grupo_13201" data-name="Grupo 13201">
            <path id="Trazado_12373" data-name="Trazado 12373" d="M501.953,5958.783l-.269-11.435a3.914,3.914,0,0,0-3.9-3.822l-28.847-.121a3.915,3.915,0,0,0-3.931,3.915v15.756a3.915,3.915,0,0,0,3.915,3.915H496.6a3.95,3.95,0,0,1,.989.127l9.617,2.511-4.8-9.114A3.925,3.925,0,0,1,501.953,5958.783Z" transform="translate(-464.885 -5943.28)" fill="#fff"/>
            <path id="Trazado_12374" data-name="Trazado 12374" d="M507.422,5969.8l-9.889-2.582a3.783,3.783,0,0,0-.958-.124H468.9a4.043,4.043,0,0,1-4.039-4.038V5947.3a4.04,4.04,0,0,1,4.038-4.039h.017l28.847.12a4.019,4.019,0,0,1,4.021,3.945l.269,11.434a3.808,3.808,0,0,0,.435,1.677Zm-38.52-26.291a3.791,3.791,0,0,0-3.791,3.791v15.756a3.8,3.8,0,0,0,3.791,3.79h27.671a4.051,4.051,0,0,1,1.021.132l9.345,2.439-4.668-8.864a4.086,4.086,0,0,1-.464-1.786l-.269-11.436a3.771,3.771,0,0,0-3.774-3.7l-28.847-.121Z" transform="translate(-464.864 -5943.26)" fill="#80b2f1"/>
          </g>
        </g>
        <path id="Trazado_12375" data-name="Trazado 12375" d="M494.482,5952.266H475.194a.684.684,0,0,1-.684-.684h0a.684.684,0,0,1,.684-.684h19.288a.684.684,0,0,1,.684.684h0A.684.684,0,0,1,494.482,5952.266Z" transform="translate(-466.236 -5944.346)" fill="#80b2f1"/>
        <path id="Trazado_12376" data-name="Trazado 12376" d="M494.482,5956.653H475.194a.684.684,0,0,1-.684-.684h0a.684.684,0,0,1,.684-.684h19.288a.684.684,0,0,1,.684.684h0A.684.684,0,0,1,494.482,5956.653Z" transform="translate(-466.236 -5944.97)" fill="#80b2f1"/>
        <path id="Trazado_12377" data-name="Trazado 12377" d="M490.484,5960.765h-15.29a.683.683,0,0,1-.684-.683h0a.684.684,0,0,1,.684-.684h15.29a.684.684,0,0,1,.684.684h0A.683.683,0,0,1,490.484,5960.765Z" transform="translate(-466.236 -5945.555)" fill="#80b2f1"/>
      </g>
    </g>
    <g id="character4" transform="translate(497.574 5952.873)">
      <path id="Trazado_12378" data-name="Trazado 12378" d="M583.055,5976.152c-5.03,3.289-4.551,9.993-3.6,10.589,1.906,1.188,5.643-.71,5.643-.71a14.594,14.594,0,0,1-.752,3.326c-.383.513,5.124,1.834,5.444.747-.064-.687-1.3-4.714-1.206-6.1.9-1.049.718-1.681,1.036-2.83C590.606,5977.629,587.177,5973.457,583.055,5976.152Z" transform="translate(-538.727 -5961.589)" fill="#fdbb9a"/>
      <path id="Trazado_12379" data-name="Trazado 12379" d="M586.264,5996.179c-3.783-.569-9.461,10.684-12.148,10.916-.794.069-3.864-8.5-3.864-8.5s-2.98-.2-2.914.537c.634,7.087,2.7,14.135,6.339,14.135C579.561,6013.266,588.925,5996.58,586.264,5996.179Z" transform="translate(-537.09 -5964.557)" fill="#fdbb9a"/>
      <g id="Grupo_13206" data-name="Grupo 13206">
        <path id="Trazado_12380" data-name="Trazado 12380" d="M560.7,5981.327v6.344a48.867,48.867,0,0,0-25.457,11.278c0-1.442.065-4.3.164-7.833.323-11.6,1.018-30.478,1.018-30.478,3.914,7.2,9.974,12.368,15.062,15.74A52.564,52.564,0,0,0,560.7,5981.327Z" transform="translate(-532.526 -5959.505)" fill="#f4f4ef"/>
        <path id="Trazado_12381" data-name="Trazado 12381" d="M560.7,5983.936v6.344a48.872,48.872,0,0,0-25.457,11.278c0-1.442.108-13.641.206-17.174,5.268,11.7,20.045,4.126,16.038-5.4A52.564,52.564,0,0,0,560.7,5983.936Z" transform="translate(-532.526 -5962.115)" fill="#6b614f" opacity="0.25"/>
        <path id="Trazado_12382" data-name="Trazado 12382" d="M537.13,5963.4a48.638,48.638,0,0,0,13.912,13.65,55.656,55.656,0,0,0,8.853,4.821v5.081a45.751,45.751,0,0,0-7.764,1.775,50.156,50.156,0,0,0-16.065,8.49c.024-1.435.072-3.446.145-6.078.247-8.845.715-22.077.92-27.74Zm-.705-2.76s-.695,18.881-1.018,30.478c-.1,3.533-.164,6.391-.164,7.833a48.867,48.867,0,0,1,25.457-11.278v-6.344a52.584,52.584,0,0,1-9.213-4.949c-5.087-3.372-11.147-8.541-15.061-15.74Z" transform="translate(-532.526 -5959.505)" fill="#6b614f"/>
        <g id="Grupo_13205" data-name="Grupo 13205">
          <path id="Trazado_12383" data-name="Trazado 12383" d="M535.47,5960.021c-3.985-1.27-3.09,37.961-.582,38.836S538.837,5961.1,535.47,5960.021Z" transform="translate(-532.17 -5959.413)" fill="#6b614f"/>
          <path id="Trazado_12384" data-name="Trazado 12384" d="M534.877,5999.351a.83.83,0,0,1-.273-.046c-.481-.167-.816-.745-1.121-1.931a30.251,30.251,0,0,1-.629-3.7c-.354-2.944-.61-6.919-.721-11.193-.191-7.367.047-17.351,1.346-21.244.627-1.88,1.472-2.048,2.07-1.858.688.22,1.158,1.1,1.525,2.858.954,4.561.968,14.027.69,20.746-.166,4-.452,7.739-.805,10.523-.546,4.29-1.085,5.252-1.494,5.612A.886.886,0,0,1,534.877,5999.351Zm.311-38.879s-.4.147-.839,1.9c-.889,3.564-1.3,11.583-1.058,20.427.111,3.975.351,7.7.675,10.5a18.609,18.609,0,0,0,.91,4.67,17.362,17.362,0,0,0,.885-4.171c.341-2.534.616-5.853.8-9.6a127.457,127.457,0,0,0-.357-20.236c-.434-3.106-.963-3.458-1.005-3.482Z" transform="translate(-532.075 -5959.317)" fill="#6b614f"/>
        </g>
        <path id="Trazado_12385" data-name="Trazado 12385" d="M562.459,5982.981c-.678.91-1.184,7,.212,8.792.347.445,2.43-.236,2.821,1.724s-.783,7.916-1.018,8.855,2.429,2.666,2.978,2.2-.392-12.227,0-12.619,2.857-.635,3.405-1.105,2.118-3.425,2.026-4.42a3.91,3.91,0,0,0-1.969-2.905C570.47,5983.339,562.755,5982.585,562.459,5982.981Z" transform="translate(-536.3 -5962.667)" fill="#6b614f"/>
      </g>
      <path id="Trazado_12386" data-name="Trazado 12386" d="M582.565,5994.038c-2.9-3.277-11.9,8.694-15.629,9.625s-14.8.31-16.147,0-.517,1.5,0,1.889,10.351,4.011,16.871,3.6S584.852,5996.625,582.565,5994.038Z" transform="translate(-534.633 -5964.175)" fill="#fdbb9a"/>
      <g id="Grupo_13207" data-name="Grupo 13207" transform="translate(31.412 38.726)">
        <path id="Trazado_12387" data-name="Trazado 12387" d="M568.81,6005.5a.115.115,0,0,1-.113-.1.116.116,0,0,1,.1-.133c.286-.046.543-.1.766-.154a4.749,4.749,0,0,0,1.332-.633.116.116,0,0,1,.159.036.114.114,0,0,1-.036.158,4.914,4.914,0,0,1-1.4.661c-.229.059-.493.111-.785.159Z" transform="translate(-568.695 -6004.464)" fill="#f07c66"/>
      </g>
      <g id="Grupo_13208" data-name="Grupo 13208" transform="translate(33.047 43.282)">
        <path id="Trazado_12388" data-name="Trazado 12388" d="M570.716,6011.571a.114.114,0,0,1-.009-.229,10.651,10.651,0,0,0,4.255-1.552.115.115,0,0,1,.116.2,10.86,10.86,0,0,1-4.352,1.581Z" transform="translate(-570.601 -6009.775)" fill="#f07c66"/>
      </g>
      <path id="Trazado_12389" data-name="Trazado 12389" d="M549.25,6005.445c-.747-.509-1.087-1.3-2-1.534a10.589,10.589,0,0,0-2.547,0c-.645-.028-1.12-.13-.577.345s1.6.238,1.969.442-1.891,1.5-2.333,1.365-2.638-.979-2.876-.639,3.615,3.392,4.673,3.375c1.113-.018,3.695-2.116,3.695-2.116Z" transform="translate(-533.326 -5965.645)" fill="#fdbb9a"/>
      <path id="Trazado_12390" data-name="Trazado 12390" d="M570.061,5998.251c.021-1.765-1.813-4.734-2.619-4.484s-.879,1.345-1.241,1.708-.254.587.416.449.878-.782,1.084-.693-.115,2.351.087,2.9C568.077,5998.922,570.061,5998.251,570.061,5998.251Z" transform="translate(-536.899 -5964.215)" fill="#fdbb9a"/>
      <path id="Trazado_12391" data-name="Trazado 12391" d="M567.08,5996.619c.076-.3-1.856-.217-1.94.129-.147.6-.019,2.853.393,3.09s1.3-.487,1.485-.668a3.118,3.118,0,0,0,.184-1.788c-.211-.24-.863.047-.863-.056S566.976,5997.032,567.08,5996.619Z" transform="translate(-536.769 -5964.596)" fill="#fdbb9a"/>
      <path id="Trazado_12392" data-name="Trazado 12392" d="M582.738,5976.221c-.944-5.029,5.132-6.661,5.059-2.84,2.621.959,5.307,4.348,4.028,7.1s-2.7,2.958-2.569,4.341c.1,1.072-3.346-1.942-3.026-2.9s1.186-1.681.751-2.43c-.912-1.569-1.53,1.362-1.737,1.306a1.563,1.563,0,0,1-.552-.533c-.048-.063.47-1.609.42-1.68C584.539,5977.768,583.118,5977.327,582.738,5976.221Z" transform="translate(-539.266 -5961.018)" fill="#212b54"/>
      <path id="Trazado_12393" data-name="Trazado 12393" d="M557.615,6088.986c-8.031,2.3-8.774,4.073-7.563,4.073h12.387c1.669,0,.506-3.232.16-3.484A9.492,9.492,0,0,0,557.615,6088.986Z" transform="translate(-534.566 -5977.74)" fill="#212b54"/>
      <path id="Trazado_12394" data-name="Trazado 12394" d="M561.971,6083.556a10.538,10.538,0,0,1-3.676,5.352c-1.35.825,4.863,1.34,5.326.433.194-.382-.113-.292.056-.911s2.251-4.191,2.419-4.641S562.627,6081.467,561.971,6083.556Z" transform="translate(-535.777 -5976.848)" fill="#fdbb9a"/>
      <path id="Trazado_12395" data-name="Trazado 12395" d="M602.142,6088.986c-8.031,2.3-8.775,4.073-7.563,4.073h12.386c1.669,0,.506-3.232.16-3.484A9.493,9.493,0,0,0,602.142,6088.986Z" transform="translate(-540.898 -5977.74)" fill="#212b54"/>
      <path id="Trazado_12396" data-name="Trazado 12396" d="M602.617,6082.276c1.078,2.83,1.542,5.589.192,6.414s4.863,1.34,5.325.433c.195-.382-.056-.468-.275-1.07a62.287,62.287,0,0,1-.751-6.3C607.065,6081.277,601.837,6080.23,602.617,6082.276Z" transform="translate(-542.096 -5976.631)" fill="#fdbb9a"/>
      <path id="Trazado_12397" data-name="Trazado 12397" d="M583.477,6034.239s6.4,23.584,8.682,25.758,6.349,11.877,7.643,15.438c.829,2.28,4.945,1.16,4.945-.393s-.528-13.265-2.122-16.066c-1.3-2.291-3.273-3.253-4-4.43-.767-1.233-2.588-16.939-2.588-17.777a34.9,34.9,0,0,0-.03-6.869c-.214-1.545-4.448-7.745-4.448-7.745l-8.882,4.485Z" transform="translate(-539.271 -5968.254)" fill="#212b54"/>
      <path id="Trazado_12398" data-name="Trazado 12398" d="M576.541,6024.333s-8.942,40.913-14.946,50.991c-.549.922,3.439,3.037,4.26,2.017,3.582-4.453,12.232-15.613,12.232-19.339v-5.118s6.63-16.094,7.808-16.31c.738-.134,4.967-3.617,4.925-6.521-.046-3.1-5.274-6.651-5.274-6.651Z" transform="translate(-536.266 -5968.431)" fill="#212b54"/>
      <path id="Trazado_12399" data-name="Trazado 12399" d="M584.164,5991.621a25.128,25.128,0,0,0-5.456,4.192c-.491.6-1.149,27.929-1.149,29.017s14.728.586,16.769-1.276c.51-.464-2.822-5.256-2.866-7.766-.019-1.087.837-11.283,1.056-16.03.275-5.986-3.474-8.3-4.619-8.518A9.1,9.1,0,0,0,584.164,5991.621Z" transform="translate(-538.543 -5963.847)" fill="#3c79a5"/>
      <path id="Trazado_12400" data-name="Trazado 12400" d="M580.766,5993.63c-2.331,1.413-9.226,9.2-9.226,9.2s3.982,4.987,4.613,5.454,6.871-4.672,6.871-4.672S583.8,5991.793,580.766,5993.63Z" transform="translate(-537.688 -5964.17)" fill="#3c79a5"/>
      <g id="Grupo_13209" data-name="Grupo 13209" transform="translate(39.947 39.061)">
        <path id="Trazado_12401" data-name="Trazado 12401" d="M578.819,6009.44a.174.174,0,0,1-.091-.321,37.587,37.587,0,0,0,5.662-4.21.173.173,0,0,1,.251.238,38.042,38.042,0,0,1-5.733,4.268A.161.161,0,0,1,578.819,6009.44Z" transform="translate(-578.645 -6004.854)" fill="#fff"/>
      </g>
    </g>
    <g id="character14" transform="translate(538.537 6078.714)">
      <g id="Grupo_13213" data-name="Grupo 13213" transform="translate(99.506 68.615)">
        <path id="Trazado_12402" data-name="Trazado 12402" d="M695.833,6188.715c.685-.236,2.832-2.588,3.3-2.7s6.053,9.888,5.932,10.457-6.155-4.8-6.155-4.8Z" transform="translate(-695.833 -6186.013)" fill="#b1744b"/>
        <g id="Grupo_13210" data-name="Grupo 13210" transform="translate(3.559 4.261)">
          <path id="Trazado_12403" data-name="Trazado 12403" d="M700.248,6193.238a.2.2,0,0,1-.193-.146,1.836,1.836,0,0,1,.892-2.09.2.2,0,0,1,.183.359,1.445,1.445,0,0,0-.688,1.621.2.2,0,0,1-.138.249A.2.2,0,0,1,700.248,6193.238Z" transform="translate(-699.982 -6190.98)" fill="#0f1638"/>
        </g>
        <g id="Grupo_13211" data-name="Grupo 13211" transform="translate(4.391 5.15)">
          <path id="Trazado_12404" data-name="Trazado 12404" d="M701.241,6194.128a.2.2,0,0,1-.187-.128,1.593,1.593,0,0,1,.8-1.949.2.2,0,1,1,.223.334,1.223,1.223,0,0,0-.651,1.469.2.2,0,0,1-.115.261A.19.19,0,0,1,701.241,6194.128Z" transform="translate(-700.952 -6192.017)" fill="#0f1638"/>
        </g>
        <g id="Grupo_13212" data-name="Grupo 13212" transform="translate(5.227 6.063)">
          <path id="Trazado_12405" data-name="Trazado 12405" d="M702.242,6195.016a.2.2,0,0,1-.179-.11,1.155,1.155,0,0,1-.011-1.067,1.486,1.486,0,0,1,.856-.755.2.2,0,0,1,.076.4,1.134,1.134,0,0,0-.57.537.757.757,0,0,0,.009.708.2.2,0,0,1-.088.271A.205.205,0,0,1,702.242,6195.016Z" transform="translate(-701.926 -6193.081)" fill="#0f1638"/>
        </g>
      </g>
      <g id="Grupo_13217" data-name="Grupo 13217" transform="translate(2.065 118.558)">
        <path id="Trazado_12406" data-name="Trazado 12406" d="M594.695,6246.054c-.472.589-1.05,3.859-1.395,4.218s-10.848-5.33-11.059-5.9,8.1.792,8.1.792Z" transform="translate(-582.237 -6244.236)" fill="#92572f"/>
        <g id="Grupo_13214" data-name="Grupo 13214" transform="translate(7.789 0.711)">
          <path id="Trazado_12407" data-name="Trazado 12407" d="M592,6247.331a.194.194,0,0,1-.069-.013.2.2,0,0,1-.118-.259,1.55,1.55,0,0,0-.431-1.644.2.2,0,1,1,.267-.3,1.946,1.946,0,0,1,.54,2.084A.2.2,0,0,1,592,6247.331Z" transform="translate(-591.318 -6245.065)" fill="#0f1638"/>
        </g>
        <g id="Grupo_13215" data-name="Grupo 13215" transform="translate(6.389 0.493)">
          <path id="Trazado_12408" data-name="Trazado 12408" d="M590.486,6247.229a.2.2,0,0,1-.193-.259,1.99,1.99,0,0,0-.51-1.786.2.2,0,0,1-.07-.276.2.2,0,0,1,.275-.069,2.325,2.325,0,0,1,.69,2.247A.2.2,0,0,1,590.486,6247.229Z" transform="translate(-589.685 -6244.81)" fill="#0f1638"/>
        </g>
        <g id="Grupo_13216" data-name="Grupo 13216" transform="translate(5.188 0.315)">
          <path id="Trazado_12409" data-name="Trazado 12409" d="M588.934,6246.765a.192.192,0,0,1-.066-.011.2.2,0,0,1-.124-.256,1.509,1.509,0,0,0-.369-1.525.2.2,0,1,1,.223-.336,1.887,1.887,0,0,1,.526,1.994A.2.2,0,0,1,588.934,6246.765Z" transform="translate(-588.285 -6244.604)" fill="#0f1638"/>
        </g>
      </g>
      <path id="Trazado_12410" data-name="Trazado 12410" d="M618.431,6123.693c-1.138.614-3.606,4.267-4.363,5.12s16.507-3.755,14.975-4.015c-2.519-.428-4.2-3.665-5.776-2.8A15.766,15.766,0,0,1,618.431,6123.693Z" transform="translate(-584.695 -6108.273)" fill="#fdd373"/>
      <path id="Trazado_12411" data-name="Trazado 12411" d="M616.429,6136.046c-2.55,6.442-7.509,15.174-10.962,16.905-4.139,2.075-20.43-5.993-20.511-10.421,3.782-.569,16.017,2.774,17.578,2.494.766-.137,3.641-6.5,6.955-12.58C613.123,6125.782,618.483,6130.857,616.429,6136.046Z" transform="translate(-580.559 -6109.327)" fill="#212b54"/>
      <path id="Trazado_12412" data-name="Trazado 12412" d="M663.4,6185.8c-3.118.58-6.12,4.493-6.6,4.124-6.039-4.6-8.268-9.637-12.393-13.678-1.507-1.476-1.336-5.143-9.1-7.849,0,0-17.428,1.853-17.509,2.184-3.376,13.832-10.962,32.453-11.674,36.157-2.39,12.443-11.191,26.711-12.293,28.017a2.94,2.94,0,0,0,1.9,2.227c6.111-3.273,20.9-18.164,22.452-25.323.445-2.053-.609-4.96.037-7.011,2.5-7.933,9.811-14.31,13.486-20.407,6.047,5.446,16.128,15.263,21.708,17.453,4.758,1.868,29.487-12.886,29.613-13.856a2.954,2.954,0,0,0-.883-2.2C677.7,6185.045,669.6,6184.648,663.4,6185.8Z" transform="translate(-581.82 -6114.893)" fill="#212b54"/>
      <path id="Trazado_12413" data-name="Trazado 12413" d="M612.97,6145.24c-2.919-2.76,1.235-17.026,3.253-18.728,3-2.529,6.137-6.261,8.045-3.844a4.307,4.307,0,0,0,1.581,1.37c1.515.785,5.688,1.4,6.829,4.78,2.03,6.026,3.149,15.757,3.256,23.419.074,5.245,3.035,7.311,2.4,8.907-1.088,2.741-15.269,7.743-17.611,5.087C616.415,6161.346,614.06,6146.271,612.97,6145.24Z" transform="translate(-584.399 -6108.279)" fill="#fff"/>
      <path id="Trazado_12414" data-name="Trazado 12414" d="M617.925,6127.022a9.071,9.071,0,0,0,.054,1.747c-.774,3.86.478,20.109,8.459,27.7,1.65,1.568,7.76-1.052,7.236-1.26-9.1-3.6-15.116-23.07-14.668-26.011.047-.313,1.575-1.1,1.513-1.563-.1-.745-1.079-1.565-1.475-1.5S617.925,6127.022,617.925,6127.022Z" transform="translate(-585.227 -6108.882)" fill="#ba1400"/>
      <path id="Trazado_12415" data-name="Trazado 12415" d="M623.207,6121.019c1.106-.084,1.8,1.049,2.075,1.876.4,1.185-3.884,5.325-4.7,5.8-.424-.4-1.113-2.984-1.481-3.14-.547-.233-1.715,2.623-1.763,2.262a8.5,8.5,0,0,1,1.36-3.573C619.114,6123.9,622.191,6121.1,623.207,6121.019Z" transform="translate(-585.163 -6108.154)" fill="#f4f4ef"/>
      <path id="Trazado_12416" data-name="Trazado 12416" d="M638.542,6152.36c-.512-6.274,1.255-19.048-.657-25.413-.554-1.847-7.056-1.068-9.887-3.106-.048-.034-1.486-1.141-1.51-1.087-1.9,4.3,16.563,52.817,18.1,52.326,3.768-1.207,7.47-7.511,8.6-8.247C650.841,6164.5,639.122,6159.462,638.542,6152.36Z" transform="translate(-586.446 -6108.402)" fill="#212b54"/>
      <path id="Trazado_12417" data-name="Trazado 12417" d="M619.469,6161.662c-1.69-6.355-3.565-12.592-4.2-15.04-.785-3.035-3.516-13.529.768-19.348-.124-.406-4.418,4.407-4.563,4.883-3.134,10.23,3.8,18.586,4.909,30.41.413,4.4-1.294,9.542-2.986,14.037-.821,2.182,4.88,3.7,8.22,3.118C621.185,6177.508,620.051,6163.851,619.469,6161.662Z" transform="translate(-584.215 -6109.041)" fill="#212b54"/>
      <g id="Grupo_13225" data-name="Grupo 13225" transform="translate(75.338 35.488)">
        <path id="Trazado_12418" data-name="Trazado 12418" d="M698.273,6161.785l-17.7,15.808a1.828,1.828,0,0,1-2.63-.366L667.869,6164.4a.879.879,0,0,1,.052-1.2l17.477-15.611a.878.878,0,0,1,1.2.083l11.609,11.454A1.828,1.828,0,0,1,698.273,6161.785Z" transform="translate(-667.658 -6147.394)" fill="#925e3f"/>
        <g id="Grupo_13221" data-name="Grupo 13221" transform="translate(5.726 6.323)">
          <g id="Grupo_13218" data-name="Grupo 13218" transform="translate(18.667)">
            <path id="Trazado_12419" data-name="Trazado 12419" d="M696.567,6155.471a.233.233,0,0,1-.166-.069l-.236-.232a.235.235,0,1,1,.332-.334l.235.231a.235.235,0,0,1,0,.334A.239.239,0,0,1,696.567,6155.471Z" transform="translate(-696.095 -6154.766)" fill="#6a402a"/>
          </g>
          <g id="Grupo_13219" data-name="Grupo 13219" transform="translate(0.612 0.694)">
            <path id="Trazado_12420" data-name="Trazado 12420" d="M680.471,6178.88a.236.236,0,0,1-.014-.472.81.81,0,0,0,.468-.179.236.236,0,0,1,.3.366,1.284,1.284,0,0,1-.74.285Zm-.635-.139a.217.217,0,0,1-.108-.027,1.541,1.541,0,0,1-.51-.423l-.056-.071a.236.236,0,1,1,.371-.292l.056.071a1.085,1.085,0,0,0,.356.3.236.236,0,0,1-.11.445Zm1.731-.531a.236.236,0,0,1-.158-.412l.491-.439a.236.236,0,1,1,.315.353l-.491.438A.239.239,0,0,1,681.567,6178.21Zm-2.626-.417a.236.236,0,0,1-.185-.09l-.407-.518a.236.236,0,1,1,.371-.292l.407.517a.236.236,0,0,1-.186.382Zm3.607-.459a.235.235,0,0,1-.158-.411l.491-.438a.236.236,0,0,1,.315.351l-.491.439A.236.236,0,0,1,682.548,6177.333Zm-4.419-.575a.235.235,0,0,1-.186-.09l-.407-.517a.236.236,0,1,1,.372-.292l.406.518a.235.235,0,0,1-.04.331A.23.23,0,0,1,678.129,6176.758Zm5.4-.3a.236.236,0,0,1-.158-.412l.491-.438a.236.236,0,1,1,.315.352l-.491.438A.235.235,0,0,1,683.53,6176.458Zm-6.214-.734a.236.236,0,0,1-.186-.09l-.406-.518a.236.236,0,0,1,.371-.292l.407.519a.236.236,0,0,1-.185.381Zm7.2-.143a.236.236,0,0,1-.158-.412l.491-.438a.236.236,0,0,1,.315.352l-.491.438A.237.237,0,0,1,684.511,6175.581Zm.981-.877a.236.236,0,0,1-.158-.412l.491-.438a.236.236,0,1,1,.315.352l-.491.438A.234.234,0,0,1,685.492,6174.7Zm-8.99-.015a.236.236,0,0,1-.186-.09l-.407-.517a.236.236,0,0,1,.371-.292l.407.518a.236.236,0,0,1-.185.382Zm9.971-.861a.242.242,0,0,1-.177-.079.237.237,0,0,1,.019-.334l.491-.438a.236.236,0,0,1,.315.353l-.491.438A.238.238,0,0,1,686.474,6173.828Zm-10.784-.173a.232.232,0,0,1-.185-.091l-.407-.517a.236.236,0,1,1,.371-.292l.406.517a.237.237,0,0,1-.185.383Zm11.766-.7a.241.241,0,0,1-.177-.079.237.237,0,0,1,.019-.333l.491-.438a.236.236,0,0,1,.315.353l-.491.438A.238.238,0,0,1,687.455,6172.952Zm.981-.877a.236.236,0,0,1-.158-.413l.491-.438a.237.237,0,0,1,.315.353l-.491.438A.234.234,0,0,1,688.436,6172.075Zm.981-.876a.236.236,0,0,1-.158-.413l.491-.438a.236.236,0,0,1,.315.353l-.491.438A.232.232,0,0,1,689.417,6171.2Zm.981-.876a.237.237,0,0,1-.158-.413l.491-.438a.236.236,0,1,1,.315.353l-.491.438A.233.233,0,0,1,690.4,6170.322Zm.981-.877a.236.236,0,0,1-.158-.413l.491-.437a.236.236,0,1,1,.315.352l-.491.438A.233.233,0,0,1,691.38,6169.445Zm.981-.876a.236.236,0,0,1-.158-.412l.491-.438a.236.236,0,0,1,.315.352l-.491.438A.233.233,0,0,1,692.361,6168.568Zm.981-.876a.236.236,0,0,1-.158-.412l.491-.438a.236.236,0,0,1,.315.352l-.491.438A.236.236,0,0,1,693.343,6167.692Zm.981-.877a.236.236,0,0,1-.158-.412l.491-.438a.236.236,0,1,1,.315.352l-.491.438A.235.235,0,0,1,694.324,6166.815Zm.981-.877a.236.236,0,0,1-.158-.412l.491-.438a.236.236,0,0,1,.315.352l-.491.438A.233.233,0,0,1,695.305,6165.938Zm.981-.876a.236.236,0,0,1-.158-.412l.491-.437a.236.236,0,1,1,.314.353l-.491.438A.238.238,0,0,1,696.287,6165.062Zm.981-.876a.236.236,0,0,1-.157-.412l.491-.438a.236.236,0,1,1,.314.353l-.491.438A.235.235,0,0,1,697.268,6164.186Zm.981-.877a.233.233,0,0,1-.176-.078.236.236,0,0,1,.019-.334l.491-.438a.236.236,0,1,1,.314.352l-.491.439A.235.235,0,0,1,698.249,6163.309Zm.95-.9a.231.231,0,0,1-.124-.036.237.237,0,0,1-.076-.325.861.861,0,0,0,.125-.456v-.039a.236.236,0,1,1,.472-.019c0,.019,0,.039,0,.058a1.331,1.331,0,0,1-.2.7A.237.237,0,0,1,699.2,6162.4Zm-.034-1.25a.235.235,0,0,1-.2-.111,1.2,1.2,0,0,0-.164-.2l-.243-.238a.236.236,0,0,1,.332-.336l.242.238a1.617,1.617,0,0,1,.233.292.237.237,0,0,1-.076.326A.239.239,0,0,1,699.166,6161.154Zm-.908-.948a.234.234,0,0,1-.166-.069l-.468-.461a.236.236,0,1,1,.331-.337l.468.461a.237.237,0,0,1-.166.405Zm-.937-.925a.231.231,0,0,1-.166-.068l-.468-.462a.236.236,0,1,1,.331-.336l.468.462a.236.236,0,0,1,0,.334A.233.233,0,0,1,697.32,6159.282Zm-.937-.924a.234.234,0,0,1-.166-.069l-.468-.461a.236.236,0,1,1,.331-.336l.468.462a.236.236,0,0,1-.166.4Zm-.937-.925a.235.235,0,0,1-.166-.067l-.468-.463a.236.236,0,1,1,.331-.336l.468.462a.235.235,0,0,1-.166.4Zm-.937-.924a.233.233,0,0,1-.166-.067l-.468-.463a.236.236,0,0,1,.332-.336l.468.463a.235.235,0,0,1,0,.333A.231.231,0,0,1,694.51,6156.509Z" transform="translate(-675.047 -6155.575)" fill="#6a402a"/>
          </g>
          <g id="Grupo_13220" data-name="Grupo 13220" transform="translate(0 17.006)">
            <path id="Trazado_12421" data-name="Trazado 12421" d="M674.774,6175.322a.233.233,0,0,1-.186-.091l-.2-.259a.236.236,0,0,1,.371-.292l.2.26a.236.236,0,0,1-.185.382Z" transform="translate(-674.333 -6174.59)" fill="#6a402a"/>
          </g>
        </g>
        <path id="Trazado_12422" data-name="Trazado 12422" d="M673.394,6159.063l-.1-.129-.114-.153a1.933,1.933,0,0,1-.149-.217,5.6,5.6,0,0,1-.361-.667l-.094-.2c-.032-.071-.056-.147-.085-.225a3.935,3.935,0,0,1-.156-.495l-.067-.271c-.018-.093-.032-.189-.047-.287a4.82,4.82,0,0,1-.057-.614,4.946,4.946,0,0,1,.139-1.336l.039-.173.056-.171c.04-.112.069-.23.121-.341l.146-.337.179-.327a5.123,5.123,0,0,1,.951-1.174,4.823,4.823,0,0,1,1.269-.825,4.606,4.606,0,0,1,1.407-.39l.176-.022.174-.007c.115,0,.23-.012.342-.008a5.027,5.027,0,0,1,.655.062c.1.018.208.03.309.054l.292.076a2.087,2.087,0,0,1,.278.085l.262.1a5.5,5.5,0,0,1,.873.44l.179.108c.056.038.107.077.157.112l.273.2c.16.127.274.241.355.311l.123.113a.331.331,0,0,1-.375.539l-.026-.013-.136-.07-.378-.2-.274-.123-.154-.07-.169-.065a5.921,5.921,0,0,0-.786-.246c-.147-.026-.294-.075-.452-.087l-.238-.032c-.081-.011-.162-.01-.245-.015a4.576,4.576,0,0,0-.5,0c-.086,0-.171.021-.257.027l-.13.015-.129.026c-.085.02-.173.031-.258.056l-.256.075c-.086.027-.167.065-.252.1a1.976,1.976,0,0,0-.248.113,1.768,1.768,0,0,0-.241.128c-.076.05-.16.089-.232.145l-.225.161-.21.179a4.234,4.234,0,0,0-.706.845,4.082,4.082,0,0,0-.45.979,4.311,4.311,0,0,0-.193,1.007,3.846,3.846,0,0,0-.011.484c0,.079,0,.158.006.233s.017.151.025.225a3.554,3.554,0,0,0,.064.423c.013.068.021.135.036.2l.048.185c.058.246.13.438.182.607l.02.063.026.061.045.112.072.176.058.149a.334.334,0,0,1-.577.323Z" transform="translate(-668.299 -6147.861)" fill="#925e3f"/>
        <g id="Grupo_13222" data-name="Grupo 13222" transform="translate(4.277 3.264)">
          <path id="Trazado_12423" data-name="Trazado 12423" d="M673.761,6160.2l-.172-.283-.17-.284a.137.137,0,1,1,.235-.141l.005.01.148.3.146.3a.11.11,0,0,1-.193.105Z" transform="translate(-672.752 -6152.368)" fill="#6a402a"/>
          <path id="Trazado_12424" data-name="Trazado 12424" d="M673.054,6158.794l-.039-.1c-.022-.06-.052-.14-.078-.221-.055-.162-.1-.327-.1-.327h0a.178.178,0,0,1,.345-.086l0,.006s.033.157.074.313c.02.078.042.155.06.213l.03.1v0a.158.158,0,0,1-.3.1Z" transform="translate(-672.671 -6152.155)" fill="#6a402a"/>
          <path id="Trazado_12425" data-name="Trazado 12425" d="M672.683,6157.254l-.012-.105c-.007-.064-.014-.15-.019-.236-.01-.171-.009-.344-.009-.344v0a.205.205,0,1,1,.411,0v.007s-.008.159,0,.318c0,.08.006.158.01.218l.007.1v0a.194.194,0,0,1-.385.037Z" transform="translate(-672.644 -6151.934)" fill="#6a402a"/>
          <path id="Trazado_12426" data-name="Trazado 12426" d="M672.706,6155.662l.018-.106c.011-.063.027-.148.046-.233.038-.169.089-.334.089-.334h0a.223.223,0,0,1,.427.131v0s-.05.149-.088.3c-.019.076-.035.154-.047.211l-.018.1v0a.217.217,0,0,1-.426-.076Z" transform="translate(-672.652 -6151.715)" fill="#6a402a"/>
          <path id="Trazado_12427" data-name="Trazado 12427" d="M673.172,6154.142l.047-.1c.029-.058.069-.135.112-.21.086-.151.183-.3.183-.3h0a.233.233,0,1,1,.385.261h0s-.088.13-.166.266c-.039.068-.077.137-.1.189l-.045.088,0,0a.23.23,0,0,1-.412-.2Z" transform="translate(-672.716 -6151.517)" fill="#6a402a"/>
          <path id="Trazado_12428" data-name="Trazado 12428" d="M674.066,6152.831l.074-.079c.045-.047.106-.109.169-.169.127-.12.263-.228.263-.228h0a.235.235,0,0,1,.294.366s-.122.1-.235.207c-.057.053-.113.108-.154.151l-.069.072,0,0a.235.235,0,0,1-.343-.321Z" transform="translate(-672.837 -6151.356)" fill="#6a402a"/>
          <path id="Trazado_12429" data-name="Trazado 12429" d="M675.316,6151.85l.094-.053c.057-.031.134-.072.213-.11.156-.076.318-.14.318-.14h0a.231.231,0,0,1,.169.43s-.146.057-.286.128c-.07.034-.14.071-.19.1l-.086.049h0a.233.233,0,1,1-.232-.4Z" transform="translate(-673.007 -6151.246)" fill="#6a402a"/>
          <path id="Trazado_12430" data-name="Trazado 12430" d="M676.811,6151.3l.105-.022c.063-.013.149-.028.235-.041.172-.026.345-.037.345-.037h0a.217.217,0,0,1,.033.433s-.157.014-.312.04c-.077.013-.154.029-.212.041l-.1.023h0a.224.224,0,0,1-.1-.437Z" transform="translate(-673.211 -6151.199)" fill="#6a402a"/>
          <path id="Trazado_12431" data-name="Trazado 12431" d="M678.408,6151.2l.106.01c.064.006.15.016.235.029.171.024.339.061.339.061h0a.2.2,0,0,1-.077.385s-.157-.029-.314-.046c-.079-.009-.158-.016-.217-.019l-.1-.006h0a.207.207,0,0,1,.023-.414Z" transform="translate(-673.432 -6151.199)" fill="#6a402a"/>
          <path id="Trazado_12432" data-name="Trazado 12432" d="M679.965,6151.54l.1.037c.059.022.139.053.217.086.157.067.308.144.308.144h0a.163.163,0,0,1-.137.295s-.148-.063-.3-.117c-.075-.028-.151-.054-.208-.072l-.1-.03h0a.181.181,0,0,1,.109-.345Z" transform="translate(-673.65 -6151.246)" fill="#6a402a"/>
          <path id="Trazado_12433" data-name="Trazado 12433" d="M681.389,6152.243l.27.19.269.193a.119.119,0,0,1,.026.165.117.117,0,0,1-.156.032l-.283-.171-.282-.173a.142.142,0,1,1,.148-.242Z" transform="translate(-673.856 -6151.344)" fill="#6a402a"/>
        </g>
        <g id="Grupo_13223" data-name="Grupo 13223" transform="translate(1.578 1.608)">
          <path id="Trazado_12434" data-name="Trazado 12434" d="M673.783,6170.459a.324.324,0,0,1-.115-.021c-.705-.236-3.555-3.845-4.119-4.565a.236.236,0,1,1,.372-.291,31.066,31.066,0,0,0,3.88,4.4c.927-.07,9.711-5.946,10.222-6.379.419-.372,6.9-9.058,7.293-9.992a38.872,38.872,0,0,0-3.587-3.942.236.236,0,0,1,.335-.333c1.38,1.392,3.7,3.793,3.734,4.253.009.125.028.387-3.568,5.277-1.411,1.919-3.627,4.865-3.9,5.1-.23.194-2.7,1.877-5.147,3.451C674.972,6170.126,674.074,6170.459,673.783,6170.459Zm17.548-16.884Z" transform="translate(-669.498 -6149.269)" fill="#6a402a"/>
        </g>
        <g id="Grupo_13224" data-name="Grupo 13224" transform="translate(2.165 2.112)">
          <path id="Trazado_12435" data-name="Trazado 12435" d="M674.055,6169.557a.347.347,0,0,1-.106-.015.644.644,0,0,1-.161-.079.236.236,0,1,1,.253-.4l.03.017a1.743,1.743,0,0,0,.361-.141.236.236,0,0,1,.2.428A1.422,1.422,0,0,1,674.055,6169.557Zm1.067-.471a.237.237,0,0,1-.114-.444c.17-.093.362-.2.57-.326a.236.236,0,1,1,.238.408c-.212.125-.407.236-.581.332A.225.225,0,0,1,675.122,6169.086Zm-1.707-.02a.23.23,0,0,1-.166-.069c-.136-.135-.292-.3-.464-.49a.236.236,0,1,1,.349-.317c.167.184.318.343.449.473a.238.238,0,0,1,0,.334A.233.233,0,0,1,673.415,6169.066Zm2.852-.65a.236.236,0,0,1-.123-.437c.182-.111.37-.225.563-.346a.236.236,0,1,1,.25.4c-.195.121-.384.238-.567.349A.239.239,0,0,1,676.267,6168.416Zm-3.748-.327a.237.237,0,0,1-.178-.081c-.143-.166-.289-.336-.432-.507a.236.236,0,0,1,.361-.305c.142.17.286.338.428.5a.236.236,0,0,1-.178.391Zm4.875-.372a.236.236,0,0,1-.127-.436q.275-.174.558-.355a.236.236,0,0,1,.255.4c-.189.122-.377.241-.56.356A.232.232,0,0,1,677.394,6167.717Zm-5.729-.642a.236.236,0,0,1-.182-.085c-.147-.179-.289-.353-.421-.516a.236.236,0,0,1,.368-.3c.13.161.271.334.418.512a.236.236,0,0,1-.033.332A.227.227,0,0,1,671.665,6167.075Zm6.845-.072a.237.237,0,0,1-.129-.436c.185-.119.37-.24.555-.361a.236.236,0,1,1,.258.4c-.185.122-.37.242-.556.362A.234.234,0,0,1,678.51,6167Zm1.11-.726a.236.236,0,0,1-.13-.433l.552-.366a.236.236,0,0,1,.262.394l-.554.367A.243.243,0,0,1,679.62,6166.277Zm-8.789-.233a.239.239,0,0,1-.185-.088c-.254-.319-.414-.525-.414-.525a.236.236,0,0,1,.372-.291s.159.206.411.521a.234.234,0,0,1-.038.331A.231.231,0,0,1,670.831,6166.044Zm9.893-.5a.236.236,0,0,1-.131-.433l.55-.37a.236.236,0,0,1,.264.392c-.178.121-.363.244-.552.37A.229.229,0,0,1,680.724,6165.543Zm1.1-.742a.236.236,0,0,1-.133-.431l.547-.374a.236.236,0,1,1,.267.39l-.549.374A.236.236,0,0,1,681.825,6164.8Zm1.095-.75a.236.236,0,0,1-.135-.431c.22-.153.4-.281.541-.379a.236.236,0,1,1,.275.384c-.139.1-.324.229-.547.383A.229.229,0,0,1,682.919,6164.052Zm1.032-.829a.233.233,0,0,1-.15-.055.236.236,0,0,1-.031-.332c.107-.13.247-.3.413-.513a.236.236,0,0,1,.37.293c-.169.213-.311.39-.42.521A.236.236,0,0,1,683.951,6163.224Zm.827-1.039a.236.236,0,0,1-.186-.381q.192-.247.406-.524a.236.236,0,0,1,.374.288l-.408.526A.236.236,0,0,1,684.778,6162.185Zm.811-1.05a.231.231,0,0,1-.143-.049.236.236,0,0,1-.044-.331l.4-.525a.236.236,0,1,1,.376.285c-.137.182-.272.357-.4.528A.235.235,0,0,1,685.589,6161.134Zm.8-1.055a.232.232,0,0,1-.142-.048.235.235,0,0,1-.045-.33l.4-.529a.236.236,0,0,1,.377.284c-.134.179-.268.355-.4.529A.235.235,0,0,1,686.393,6160.079Zm.8-1.058a.231.231,0,0,1-.141-.048.236.236,0,0,1-.047-.331l.4-.531a.236.236,0,0,1,.378.282l-.4.533A.236.236,0,0,1,687.191,6159.021Zm.793-1.064a.236.236,0,0,1-.19-.377l.394-.532a.236.236,0,1,1,.38.28l-.395.534A.236.236,0,0,1,687.985,6157.957Zm.786-1.068a.236.236,0,0,1-.19-.376c.134-.183.264-.362.389-.535a.236.236,0,1,1,.383.277c-.125.173-.256.354-.39.538A.237.237,0,0,1,688.77,6156.889Zm.777-1.075a.237.237,0,0,1-.192-.374c.136-.192.264-.372.382-.541a.236.236,0,0,1,.387.271c-.117.169-.246.351-.384.544A.235.235,0,0,1,689.548,6155.814Zm.757-1.091a.232.232,0,0,1-.131-.04.236.236,0,0,1-.065-.327c.166-.249.28-.431.339-.542a.236.236,0,1,1,.418.219c-.067.128-.186.319-.364.585A.235.235,0,0,1,690.3,6154.724Zm.136-1.134a.239.239,0,0,1-.186-.091c-.106-.136-.246-.3-.417-.5a.236.236,0,1,1,.355-.311c.177.2.323.376.434.519a.235.235,0,0,1-.04.331A.238.238,0,0,1,690.441,6153.59Zm-.868-1a.236.236,0,0,1-.174-.076c-.146-.16-.3-.323-.449-.484a.236.236,0,1,1,.344-.324c.154.163.306.328.453.488a.236.236,0,0,1-.174.4Zm-.907-.967a.239.239,0,0,1-.171-.073c-.16-.169-.316-.329-.459-.478a.236.236,0,1,1,.339-.328c.144.148.3.311.462.479a.236.236,0,0,1-.008.333A.233.233,0,0,1,688.666,6151.621Zm-.924-.952a.235.235,0,0,1-.168-.071l-.323-.327.167-.167-.09-.218c.148-.061.148-.061.583.381a.237.237,0,0,1-.169.4Z" transform="translate(-670.183 -6149.856)" fill="#6a402a"/>
        </g>
        <path id="Trazado_12436" data-name="Trazado 12436" d="M685.116,6163.417l-1,.9a.483.483,0,0,1-.682-.039h0a.483.483,0,0,1,.039-.682l1-.9a.483.483,0,0,1,.682.039h0A.483.483,0,0,1,685.116,6163.417Z" transform="translate(-669.884 -6149.553)" fill="#6a402a"/>
      </g>
      <path id="Trazado_12437" data-name="Trazado 12437" d="M670.018,6150.1c.517,1.9.706,3.888,1.791,4.514a8.213,8.213,0,0,1,.342-1.327c.6-.279,1.411-.251,1.541.257a3.7,3.7,0,0,0-.5,1.456,5.6,5.6,0,0,0,2.513-.221,7.25,7.25,0,0,0,2.086-3.161c0-.57-1.011-2.972-1.643-3.225s-5.122-1.2-5.122-1.2Z" transform="translate(-592.656 -6111.877)" fill="#f5b48d"/>
      <path id="Trazado_12438" data-name="Trazado 12438" d="M587.756,6144.953c-.382-.832-1.04-3.206-1.926-3.745-1.005-.612-4.18-.194-4.455.064a7.239,7.239,0,0,0-1.539,3.46c.094.561,1.486,2.765,2.15,2.911s5.25.344,5.25.344Z" transform="translate(-579.83 -6110.981)" fill="#f5b48d"/>
      <path id="Trazado_12439" data-name="Trazado 12439" d="M638.912,6127.616c4.825,1.249,14.229,3.712,17.346,5.633,2.7,1.663,10.21,8.443,12.784,11.417.616.712-3.608,5.887-5.22,4.2a68.381,68.381,0,0,0-11.656-8.53c-4.769-2.1-14.81-3.321-16.733-5.186C631.384,6131.229,634.593,6126.5,638.912,6127.616Z" transform="translate(-587.473 -6109.069)" fill="#212b54"/>
      <g id="Grupo_13227" data-name="Grupo 13227" transform="translate(28.571)">
        <g id="Grupo_13226" data-name="Grupo 13226">
          <path id="Trazado_12440" data-name="Trazado 12440" d="M616.228,6111.007c-.857.611-2.834-.187-3.079-1.472-.174-.913,1.528-3.513,5.716-3.513,3.006,0,5.037,1.6,5.367,2.585.353,1.048.252,3.132-.3,7.523C623.4,6120.322,616.228,6111.007,616.228,6111.007Z" transform="translate(-613.137 -6106.022)" fill="#2f4b5e"/>
          <path id="Trazado_12441" data-name="Trazado 12441" d="M618.03,6123.711c-.171-.062-.182-1.205-.245-2.083,0-.021,0-.043-.006-.065a3.331,3.331,0,0,1-1.756.1,20.583,20.583,0,0,1-1.059-4.745c-.35-2.3-.582-4.763-.322-5.661.06-.206,5.9-1.265,6.251-.686.591.979.818,3.535,1.1,4.647v0c.084.335.173.539.28.526.218-.028.29-.354.313-.8.056-1.024-.144-2.671.606-2.712.454-.024.661,1.387.417,2.59-.092.455-.233.534-.372.487a16.464,16.464,0,0,0,1.176,5.574C624.608,6121.529,620.683,6124.673,618.03,6123.711Z" transform="translate(-613.335 -6106.646)" fill="#f5b48d"/>
        </g>
        <path id="Trazado_12442" data-name="Trazado 12442" d="M622.573,6120.105c-.315.6-3.35,1.855-4.723,2.212a3.324,3.324,0,0,1-1.756.1,20.575,20.575,0,0,1-1.059-4.745c2.209-.491,4.927,1.1,5.435,1.346s1.914-.692,1.593-3.042c.084.335.173.539.28.526.218-.027.29-.354.313-.8C622.672,6116.452,622.889,6119.5,622.573,6120.105Z" transform="translate(-613.407 -6107.399)" fill="#2f4b5e"/>
      </g>
      <g id="Grupo_13228" data-name="Grupo 13228" transform="translate(44.334 63.798)">
        <path id="Trazado_12443" data-name="Trazado 12443" d="M636.312,6185.475a.2.2,0,0,1-.127-.046c-.479-.392-1.571-1.545-2.629-2.658-.841-.888-1.638-1.728-1.973-2.021a.2.2,0,1,1,.265-.3c.349.307,1.151,1.15,2,2.046,1,1.054,2.133,2.249,2.591,2.623a.2.2,0,0,1-.128.358Z" transform="translate(-631.514 -6180.397)" fill="#2c3c70"/>
      </g>
      <g id="Grupo_13229" data-name="Grupo 13229" transform="translate(45.364 18.066)">
        <path id="Trazado_12444" data-name="Trazado 12444" d="M635.83,6149.986a.144.144,0,0,1-.137-.1c-.434-1.39-.42-4.965-.407-8.119.009-2.342.019-4.995-.217-5.263a2.081,2.081,0,0,0-1.072.16c-.472.144-.879.268-1.118.092a.443.443,0,0,1-.164-.38c0-1.174.239-6.5,1.337-9.2a.144.144,0,0,1,.266.108c-1.082,2.66-1.316,7.932-1.316,9.095a.186.186,0,0,0,.047.149c.123.091.534-.036.863-.136a2.09,2.09,0,0,1,1.279-.145c.367.157.4,1.638.382,5.523-.012,3.133-.026,6.684.395,8.031a.143.143,0,0,1-.137.187Zm-.765-13.486Z" transform="translate(-632.714 -6127.084)" fill="#2c3c70"/>
      </g>
      <g id="Grupo_13230" data-name="Grupo 13230" transform="translate(27.357 22.339)">
        <path id="Trazado_12445" data-name="Trazado 12445" d="M617.532,6156.82a.143.143,0,0,1-.14-.111,56.829,56.829,0,0,0-3.2-7.562c-1.518-3.211-1.595-3.442-1.436-3.581a1.887,1.887,0,0,1,.87-.158c.19-.014.448-.033.616-.062-.162-.092-.442-.221-.68-.33-.937-.432-1.556-.741-1.61-1.088-.1-.6-.712-8.238.576-11.769a.144.144,0,0,1,.27.1c-1.188,3.257-.72,10.621-.562,11.626.034.222.953.645,1.446.871.7.323.947.444.96.621a.187.187,0,0,1-.089.169,2.461,2.461,0,0,1-.906.151,5.069,5.069,0,0,0-.653.071c.088.36.784,1.831,1.458,3.258a55.647,55.647,0,0,1,3.219,7.62.143.143,0,0,1-.107.173A.183.183,0,0,1,617.532,6156.82Z" transform="translate(-611.722 -6132.065)" fill="#2c3c70"/>
      </g>
      <g id="Grupo_13231" data-name="Grupo 13231" transform="translate(47.793 18.075)">
        <path id="Trazado_12446" data-name="Trazado 12446" d="M637.829,6135.83a.084.084,0,0,1-.068-.033c-.085-.107-.166-.214-.246-.322a.086.086,0,0,1,.139-.1c.078.1.16.211.243.317a.085.085,0,0,1-.015.12A.081.081,0,0,1,637.829,6135.83Zm-.479-.646a.084.084,0,0,1-.07-.038c-.078-.112-.154-.225-.226-.336a.087.087,0,0,1,.026-.119.086.086,0,0,1,.119.026c.071.11.145.221.222.332a.086.086,0,0,1-.022.12A.084.084,0,0,1,637.35,6135.183Zm-.435-.677a.086.086,0,0,1-.075-.042q-.105-.177-.2-.352a.086.086,0,0,1,.152-.083q.094.174.2.346a.087.087,0,0,1-.03.119A.084.084,0,0,1,636.915,6134.506Zm-.387-.7a.088.088,0,0,1-.077-.049c-.062-.123-.119-.246-.174-.366a.086.086,0,1,1,.157-.071c.054.119.111.239.172.36a.087.087,0,0,1-.039.116A.094.094,0,0,1,636.528,6133.8Zm-.33-.734a.086.086,0,0,1-.08-.054c-.051-.126-.1-.254-.142-.381a.086.086,0,0,1,.052-.11.087.087,0,0,1,.11.054c.044.123.091.249.14.373a.086.086,0,0,1-.048.112A.088.088,0,0,1,636.2,6133.068Zm-.265-.76a.085.085,0,0,1-.082-.062c-.039-.13-.075-.263-.106-.392a.087.087,0,0,1,.168-.041c.03.127.065.256.1.384a.084.084,0,0,1-.082.11Zm-.19-.781a.086.086,0,0,1-.084-.07c-.025-.134-.046-.269-.063-.4a.086.086,0,0,1,.172-.022q.024.195.061.392a.086.086,0,0,1-.069.1Zm-.1-.8a.086.086,0,0,1-.086-.081c-.008-.124-.012-.248-.012-.369v-.04a.087.087,0,0,1,.087-.085h0a.086.086,0,0,1,.086.086v.039c0,.117,0,.238.011.358a.087.087,0,0,1-.081.092Zm.007-.8h-.008a.086.086,0,0,1-.079-.092c.012-.138.029-.276.052-.407a.087.087,0,0,1,.1-.07.086.086,0,0,1,.07.1q-.032.19-.049.392A.088.088,0,0,1,635.651,6129.925Zm.136-.792a.067.067,0,0,1-.022,0,.086.086,0,0,1-.061-.105,3.788,3.788,0,0,1,.13-.391.086.086,0,0,1,.16.063,3.473,3.473,0,0,0-.123.373A.087.087,0,0,1,635.787,6129.133Zm.3-.745a.078.078,0,0,1-.042-.012.086.086,0,0,1-.033-.116,2.694,2.694,0,0,1,.227-.348.086.086,0,1,1,.136.105,2.661,2.661,0,0,0-.213.325A.087.087,0,0,1,636.085,6128.388Zm.492-.632a.09.09,0,0,1-.064-.028.087.087,0,0,1,.006-.123,2.091,2.091,0,0,1,.337-.249.086.086,0,0,1,.088.148,1.848,1.848,0,0,0-.309.229A.086.086,0,0,1,636.577,6127.756Zm2.615-.105a.086.086,0,0,1-.043-.011,3.441,3.441,0,0,0-.351-.176.087.087,0,0,1-.045-.113.085.085,0,0,1,.113-.045,3.494,3.494,0,0,1,.369.184.086.086,0,0,1,.032.118A.085.085,0,0,1,639.193,6127.651Zm-1.928-.3a.086.086,0,0,1-.081-.06.084.084,0,0,1,.055-.108,1.856,1.856,0,0,1,.41-.088.086.086,0,1,1,.018.17,1.816,1.816,0,0,0-.374.08A.077.077,0,0,1,637.264,6127.352Zm1.189-.013-.022,0a2.233,2.233,0,0,0-.381-.07.086.086,0,0,1,.016-.171,2.379,2.379,0,0,1,.41.075.086.086,0,0,1-.023.169Z" transform="translate(-635.546 -6127.094)" fill="#2c3c70"/>
      </g>
      <g id="Grupo_13232" data-name="Grupo 13232" transform="translate(2.198 30.158)">
        <path id="Trazado_12447" data-name="Trazado 12447" d="M585.6,6145.219a.143.143,0,0,1-.118-.062,2.851,2.851,0,0,1-.3-1.606,2.852,2.852,0,0,0-.016-.459,2.556,2.556,0,0,0-.361.214,2.4,2.4,0,0,1-1.315.524,1.155,1.155,0,0,1-1.094-.848.357.357,0,0,1,.259-.405,8.179,8.179,0,0,0,2.229-1.366.144.144,0,0,1,.2.023.146.146,0,0,1-.023.2,8.487,8.487,0,0,1-2.325,1.415c-.035.011-.064.025-.056.1a.893.893,0,0,0,.823.595,2.208,2.208,0,0,0,1.143-.479c.322-.211.576-.378.732-.185.1.118.094.339.09.673a2.643,2.643,0,0,0,.254,1.441.143.143,0,0,1-.037.2A.14.14,0,0,1,585.6,6145.219Z" transform="translate(-582.392 -6141.18)" fill="#e98c75"/>
      </g>
      <g id="Grupo_13233" data-name="Grupo 13233" transform="translate(0.841 32.727)">
        <path id="Trazado_12448" data-name="Trazado 12448" d="M582.2,6145.909a1.1,1.1,0,0,1-.415-.064.143.143,0,1,1,.11-.265,2.423,2.423,0,0,0,1.7-.365c.1-.071.209-.179.2-.294,0-.05-.055-.095-.1-.125a5.364,5.364,0,0,0-2.706-.272.143.143,0,1,1-.067-.278,5.456,5.456,0,0,1,2.94.317.462.462,0,0,1,.216.331.616.616,0,0,1-.314.553A3,3,0,0,1,582.2,6145.909Z" transform="translate(-580.81 -6144.176)" fill="#e98c75"/>
      </g>
      <g id="Grupo_13234" data-name="Grupo 13234" transform="translate(0.841 31.612)">
        <path id="Trazado_12449" data-name="Trazado 12449" d="M581.88,6143.247a.138.138,0,0,1-.045-.007,3.4,3.4,0,0,0-.882-.077.144.144,0,0,1,0-.288,3.47,3.47,0,0,1,.973.092.144.144,0,0,1-.045.28Z" transform="translate(-580.81 -6142.875)" fill="#e98c75"/>
      </g>
      <g id="Grupo_13235" data-name="Grupo 13235" transform="translate(1.41 30.444)">
        <path id="Trazado_12450" data-name="Trazado 12450" d="M583.387,6142a.144.144,0,0,1-.117-.061,3.615,3.615,0,0,0-1.627-.09.144.144,0,1,1-.052-.282,3.011,3.011,0,0,1,1.914.205.144.144,0,0,1-.034.2A.143.143,0,0,1,583.387,6142Z" transform="translate(-581.473 -6141.513)" fill="#e98c75"/>
      </g>
      <g id="Grupo_13236" data-name="Grupo 13236" transform="translate(84.142 39.24)">
        <path id="Trazado_12451" data-name="Trazado 12451" d="M678.286,6153.089h0a.144.144,0,0,1-.142-.145,2,2,0,0,0-.156-.825c-.018-.05-.038-.1-.057-.162a.144.144,0,1,1,.272-.092c.02.056.039.108.056.158a2.276,2.276,0,0,1,.173.924A.143.143,0,0,1,678.286,6153.089Z" transform="translate(-677.921 -6151.767)" fill="#e98c75"/>
      </g>
      <g id="Grupo_13237" data-name="Grupo 13237" transform="translate(83.288 40.098)">
        <path id="Trazado_12452" data-name="Trazado 12452" d="M677.449,6154.418h-.009a.143.143,0,0,1-.134-.152,2.319,2.319,0,0,0-.363-1.286.144.144,0,1,1,.253-.136,2.61,2.61,0,0,1,.4,1.44A.142.142,0,0,1,677.449,6154.418Z" transform="translate(-676.926 -6152.768)" fill="#e98c75"/>
      </g>
      <g id="Grupo_13238" data-name="Grupo 13238" transform="translate(82.409 41.222)">
        <path id="Trazado_12453" data-name="Trazado 12453" d="M676.134,6155.631a.12.12,0,0,1-.05-.01.143.143,0,0,1-.085-.184,1.973,1.973,0,0,0-.088-1.166.143.143,0,1,1,.269-.1,2.211,2.211,0,0,1,.088,1.364A.143.143,0,0,1,676.134,6155.631Z" transform="translate(-675.902 -6154.079)" fill="#e98c75"/>
      </g>
    </g>
    <g id="character6" transform="translate(337.942 6068.077)">
      <g id="Grupo_13240" data-name="Grupo 13240">
        <path id="Trazado_12454" data-name="Trazado 12454" d="M377.207,6094.9c-2.54-2-6.566-1.795-9.413,1.549-2.348,2.756-1.05,5.56-4.237,8.161-1.529,1.248-7.052,1.476-9.218,6.158-1.564,3.38,1.364,6.161-.394,9.731-2.117,4.3-4.988,3.643-6.038,8.438-1.01,4.61,4.42,7.229,5.776,9.538,2.041,3.479-.394,6.607,4.807,11.134,5.949,5.18,19.748-.6,25.241-5.08,4.673-3.812,2.778-7.437,4.726-10.291.905-1.327,5.516-3.929,4.528-9.119-.689-3.622-3.26-6.452-4.135-9.041-.913-2.7.152-5.847-1.695-8.854-2.1-3.418-5.787-2.86-6.968-5.223C378.83,6099.291,380.265,6097.306,377.207,6094.9Z" transform="translate(-346.235 -6093.622)" fill="#212b54"/>
        <g id="Grupo_13239" data-name="Grupo 13239" transform="translate(0 0.14)">
          <path id="Trazado_12455" data-name="Trazado 12455" d="M346.077,6126.394a.178.178,0,0,1-.022,0,.1.1,0,0,1-.074-.117,5.239,5.239,0,0,1,3.278-3.836,6.175,6.175,0,0,0,2.512-1.966c.781-1.16.5-2.431.167-3.9a8.439,8.439,0,0,1,.219-5.815c1.623-3.572,4.3-4.551,6.886-5.5a14.3,14.3,0,0,0,4.031-1.969,8.5,8.5,0,0,0,2.19-3.6c1.087-2.635,2.319-5.621,6.863-5.9a.1.1,0,0,1,.1.093.1.1,0,0,1-.092.1c-4.421.272-5.576,3.072-6.693,5.779a8.634,8.634,0,0,1-2.251,3.684,14.617,14.617,0,0,1-4.084,2c-2.549.933-5.186,1.9-6.776,5.393a8.283,8.283,0,0,0-.205,5.691c.34,1.517.633,2.825-.2,4.055a6.329,6.329,0,0,1-2.583,2.031,5.014,5.014,0,0,0-3.178,3.7A.1.1,0,0,1,346.077,6126.394Z" transform="translate(-345.978 -6093.785)" fill="#212b54"/>
        </g>
      </g>
      <g id="Grupo_13241" data-name="Grupo 13241" transform="translate(10.214 114.881)">
        <path id="Trazado_12456" data-name="Trazado 12456" d="M364.752,6227.755a5.771,5.771,0,0,1-4.268-.207,31.751,31.751,0,0,1,.767,5.084,38.741,38.741,0,0,1-2.323,4.811l5.451-.665C363.828,6233.612,364.126,6232.333,364.752,6227.755Z" transform="translate(-358.033 -6227.549)" fill="#f5b48d"/>
        <path id="Trazado_12457" data-name="Trazado 12457" d="M358.276,6239.767h6.418s.276-1.479-.887-1.757a12.655,12.655,0,0,0-5.021.625C358.2,6238.967,357.393,6239.767,358.276,6239.767Z" transform="translate(-357.885 -6229.026)" fill="#212b54"/>
        <path id="Trazado_12458" data-name="Trazado 12458" d="M361.52,6233.567l.017-.511a20.41,20.41,0,0,0,3.049.134v.524A19.222,19.222,0,0,1,361.52,6233.567Z" transform="translate(-358.402 -6228.332)" fill="#212b54"/>
      </g>
      <g id="Grupo_13242" data-name="Grupo 13242" transform="translate(44.639 111.775)">
        <path id="Trazado_12459" data-name="Trazado 12459" d="M398.018,6225.791a46.016,46.016,0,0,1,2.485,6.02c.049,1.036-.913,3.489-.361,4.134,1.214,1.417,2.086.612,3.9.755.806.063,1.255.187,2.113.229,2.262.113,3.06-.009,3.5.021.985.068-5.208-2.755-6.674-6.549-.346-.894-1.7-6.237-1.784-6.456S398.018,6225.791,398.018,6225.791Z" transform="translate(-398.018 -6223.929)" fill="#f5b48d"/>
        <path id="Trazado_12460" data-name="Trazado 12460" d="M400.773,6233.116c-.442-.148-1,4.692-.821,4.955s6.739.492,7.22.536,4.38-.023,4.726,0c.886.06.525-.887-.307-1.248a28.062,28.062,0,0,1-3.548-1.223c-.578-.255-.561,1.187-.433,2.149-.569,0-5.707-.7-6.017-1.3C401.237,6236.307,401.135,6233.236,400.773,6233.116Z" transform="translate(-398.288 -6225.234)" fill="#212b54"/>
        <path id="Trazado_12461" data-name="Trazado 12461" d="M400.867,6233.176l-.154-.487a20.448,20.448,0,0,0,2.92-.893l.175.495A19.1,19.1,0,0,1,400.867,6233.176Z" transform="translate(-398.401 -6225.048)" fill="#212b54"/>
      </g>
      <path id="Trazado_12462" data-name="Trazado 12462" d="M385.859,6161.809c-.949-8.816-3.838-14.219-5.073-18.135l-14,.159s-6.357,10.2-7.361,15.408c-.326,1.692.235,9.85.772,24.959.081,2.253-3.588,9.461-3.512,11.715.271,8.016,2.233,14.838,3.387,20.127a5.743,5.743,0,0,0,4.364.175c1.723-12.524,3.546-17.135,5.384-28.26,2.037-12.326,3.5-18.849,3.623-18.844s2.889,4.8,6.434,14.308c1.1,2.953-.209,8.776.988,11.972,3.118,8.32,8.736,14.729,11.276,19.49.278.52,3.823-.726,3.7-1.347C392.384,6196.75,385.866,6161.879,385.859,6161.809Z" transform="translate(-347.5 -6100.74)" fill="#6b614f"/>
      <g id="Grupo_13257" data-name="Grupo 13257" transform="translate(9.097 14.664)">
        <path id="Trazado_12463" data-name="Trazado 12463" d="M364.65,6116.72c-3.391-1.032-8.73,20.259-8,22.295.549,1.533,4.857,1.182,5.017.685.413-1.283,3.332-8.112,3.629-12.555C368.347,6123.783,365.61,6117.011,364.65,6116.72Z" transform="translate(-356.583 -6111.566)" fill="#f4f4ef"/>
        <path id="Trazado_12464" data-name="Trazado 12464" d="M388.349,6116.374c3.171-.734,5.654,12.664,7.439,17.181.787,1.992-2.941,4.493-4.268,3.125-1.114-1.149-2.747-5.732-3.785-10.195C384.685,6123.124,387.371,6116.6,388.349,6116.374Z" transform="translate(-360.812 -6111.518)" fill="#f4f4ef"/>
        <path id="Trazado_12465" data-name="Trazado 12465" d="M371.793,6113.542a26.015,26.015,0,0,0,2.3-2.319c.35-.615,4.893-.788,5.492.165.323.514,1.571,1.816,1.7,2.032.91,1.573-.039,18.025-4.6,17.3C371.756,6129.928,370.011,6115.867,371.793,6113.542Z" transform="translate(-358.649 -6110.717)" fill="#f4f4ef"/>
        <path id="Trazado_12466" data-name="Trazado 12466" d="M371.031,6113.615c.528,0,4.756,13.706,5.39,13.706.787,0,3.938-13.6,4.189-13.585,1.069.073,4.541,1.448,4.847,2.25.176.46-1.7,4.713-.613,10.111-.931,6.389-2.134,13.333-2.111,15,.009.58-2.92,2.365-3.226,2.365-.437,0-2.538-2.807-2.853-2.827-.5-.031-3.254,3.116-3.645,3.154s-5.863-2.1-5.835-2.693c.093-1.964-.2-8.116-.54-14.394,1.846-4.813-.814-10.08-.648-10.425C366.313,6115.6,370.448,6113.615,371.031,6113.615Z" transform="translate(-357.919 -6111.129)" fill="#ffb833"/>
        <g id="Grupo_13243" data-name="Grupo 13243" transform="translate(13.653 2.527)">
          <path id="Trazado_12467" data-name="Trazado 12467" d="M375.012,6116.851c-.539,0-1.906-1.537-2.506-3.053a.1.1,0,0,1,.184-.072c.647,1.633,2.057,3.013,2.332,2.928a7.921,7.921,0,0,0,1.378-1.5c.768-.952,1.075-1.31,1.252-1.31s.369.289.9,1.118c.329.511,1.013,1.575,1.2,1.512a4.553,4.553,0,0,0,.9-1.034.1.1,0,0,1,.185.067,4.124,4.124,0,0,1-1.017,1.153c-.307.107-.744-.53-1.426-1.592a5.845,5.845,0,0,0-.738-1.025,8.579,8.579,0,0,0-1.1,1.234,6.388,6.388,0,0,1-1.473,1.567A.226.226,0,0,1,375.012,6116.851Z" transform="translate(-372.499 -6113.663)" fill="#fdd373"/>
        </g>
        <g id="Grupo_13244" data-name="Grupo 13244" transform="translate(18.534 16.422)">
          <path id="Trazado_12468" data-name="Trazado 12468" d="M378.376,6142.89a.1.1,0,0,1-.076-.036.1.1,0,0,1,.014-.14,3.571,3.571,0,0,0,.654-.764c.028-.042.055-.08.08-.116.045-.165.063-1.609-.021-5.187-.063-2.667-.148-4.982-.177-5.121A15.606,15.606,0,0,0,378.2,6130a.1.1,0,0,1,.045-.132.1.1,0,0,1,.132.044,15.483,15.483,0,0,1,.662,1.559c.044.149.137,3.178.184,5.213.119,5.072.026,5.2-.009,5.252s-.054.077-.084.121a3.765,3.765,0,0,1-.691.806A.1.1,0,0,1,378.376,6142.89Zm.758-1.007h0Z" transform="translate(-378.19 -6129.861)" fill="#f4f4ef"/>
        </g>
        <path id="Trazado_12469" data-name="Trazado 12469" d="M377.549,6131.2c-.539-.123-.275.816,0,.816S378,6131.306,377.549,6131.2Z" transform="translate(-359.52 -6113.628)" fill="#f4f4ef"/>
        <g id="Grupo_13245" data-name="Grupo 13245" transform="translate(17.206 17.878)">
          <path id="Trazado_12470" data-name="Trazado 12470" d="M377.417,6131.766c-.214,0-.467,0-.681-.009a.1.1,0,0,1-.1-.1.093.093,0,0,1,.1-.1c.437.012.966.012,1.087,0a.1.1,0,0,1,.019.2C377.778,6131.763,377.615,6131.766,377.417,6131.766Z" transform="translate(-376.641 -6131.559)" fill="#f4f4ef"/>
        </g>
        <g id="Grupo_13247" data-name="Grupo 13247" transform="translate(18.092 12.218)">
          <path id="Trazado_12471" data-name="Trazado 12471" d="M378.18,6124.969c-.377-.087-.193.57,0,.57S378.492,6125.039,378.18,6124.969Z" transform="translate(-377.715 -6124.961)" fill="#fdd373"/>
          <g id="Grupo_13246" data-name="Grupo 13246" transform="translate(0 0.191)">
            <path id="Trazado_12472" data-name="Trazado 12472" d="M378.11,6125.388c-.1,0-.217,0-.34,0a.1.1,0,0,1-.1-.1.1.1,0,0,1,.1-.095c.316.008.538,0,.616,0a.1.1,0,0,1,.019.2C378.351,6125.386,378.244,6125.388,378.11,6125.388Z" transform="translate(-377.674 -6125.183)" fill="#fdd373"/>
          </g>
        </g>
        <g id="Grupo_13249" data-name="Grupo 13249" transform="translate(18.106 8.459)">
          <path id="Trazado_12473" data-name="Trazado 12473" d="M378.2,6120.586c-.377-.087-.193.571,0,.571S378.509,6120.658,378.2,6120.586Z" transform="translate(-377.732 -6120.578)" fill="#fdd373"/>
          <g id="Grupo_13248" data-name="Grupo 13248" transform="translate(0 0.191)">
            <path id="Trazado_12474" data-name="Trazado 12474" d="M378.127,6121.006c-.1,0-.217,0-.34,0a.1.1,0,0,1-.1-.1.1.1,0,0,1,.1-.1c.317.008.538,0,.616,0a.1.1,0,0,1,.107.09.1.1,0,0,1-.088.106C378.368,6121,378.261,6121.006,378.127,6121.006Z" transform="translate(-377.691 -6120.8)" fill="#fdd373"/>
          </g>
        </g>
        <g id="Grupo_13251" data-name="Grupo 13251" transform="translate(18.063 4.856)">
          <path id="Trazado_12475" data-name="Trazado 12475" d="M378.147,6116.386c-.377-.087-.193.571,0,.571S378.459,6116.457,378.147,6116.386Z" transform="translate(-377.682 -6116.378)" fill="#fdd373"/>
          <g id="Grupo_13250" data-name="Grupo 13250" transform="translate(0 0.191)">
            <path id="Trazado_12476" data-name="Trazado 12476" d="M378.077,6116.806c-.1,0-.217,0-.34-.005a.1.1,0,0,1-.1-.1.1.1,0,0,1,.1-.1c.317.008.538,0,.616,0a.1.1,0,0,1,.019.2C378.319,6116.8,378.211,6116.806,378.077,6116.806Z" transform="translate(-377.641 -6116.601)" fill="#fdd373"/>
          </g>
        </g>
        <path id="Trazado_12477" data-name="Trazado 12477" d="M377.732,6135.453c-.54-.123-.275.817,0,.817S378.178,6135.556,377.732,6135.453Z" transform="translate(-359.546 -6114.233)" fill="#f4f4ef"/>
        <g id="Grupo_13252" data-name="Grupo 13252" transform="translate(17.362 21.524)">
          <path id="Trazado_12478" data-name="Trazado 12478" d="M377.6,6136.017c-.214,0-.468,0-.681-.01a.1.1,0,0,1-.1-.1.1.1,0,0,1,.1-.095c.438.012.967.012,1.087,0a.1.1,0,1,1,.02.2C377.961,6136.013,377.8,6136.017,377.6,6136.017Z" transform="translate(-376.823 -6135.81)" fill="#f4f4ef"/>
        </g>
        <path id="Trazado_12479" data-name="Trazado 12479" d="M377.914,6139.569c-.539-.124-.275.817,0,.817S378.361,6139.671,377.914,6139.569Z" transform="translate(-359.572 -6114.819)" fill="#f4f4ef"/>
        <g id="Grupo_13253" data-name="Grupo 13253" transform="translate(17.519 25.055)">
          <path id="Trazado_12480" data-name="Trazado 12480" d="M377.782,6140.132c-.214,0-.467,0-.681-.009a.1.1,0,0,1-.1-.1.094.094,0,0,1,.1-.1c.438.013.967.013,1.087,0a.1.1,0,0,1,.019.2C378.143,6140.129,377.98,6140.132,377.782,6140.132Z" transform="translate(-377.006 -6139.925)" fill="#f4f4ef"/>
        </g>
        <path id="Trazado_12481" data-name="Trazado 12481" d="M377.757,6143.686c-.539-.124-.275.815,0,.815S378.2,6143.787,377.757,6143.686Z" transform="translate(-359.55 -6115.404)" fill="#f4f4ef"/>
        <g id="Grupo_13254" data-name="Grupo 13254" transform="translate(17.384 28.585)">
          <path id="Trazado_12482" data-name="Trazado 12482" d="M377.625,6144.249c-.214,0-.467,0-.681-.01a.1.1,0,0,1-.1-.1.1.1,0,0,1,.1-.1c.438.012.967.012,1.087,0a.1.1,0,0,1,.107.088.1.1,0,0,1-.088.108C377.986,6144.245,377.823,6144.249,377.625,6144.249Z" transform="translate(-376.849 -6144.042)" fill="#f4f4ef"/>
        </g>
        <g id="Grupo_13255" data-name="Grupo 13255" transform="translate(19.256 4.214)">
          <path id="Trazado_12483" data-name="Trazado 12483" d="M379.131,6124.73h-.006a.1.1,0,0,1-.093-.1c.039-.656.021-4.093.009-6.6,0-.973-.009-1.81-.009-2.3a.1.1,0,0,1,.2,0c0,.487,0,1.322.009,2.3.012,2.511.029,5.953-.009,6.614A.1.1,0,0,1,379.131,6124.73Z" transform="translate(-379.032 -6115.63)" fill="#fdd373"/>
        </g>
        <g id="Grupo_13256" data-name="Grupo 13256" transform="translate(17.617 4.52)">
          <path id="Trazado_12484" data-name="Trazado 12484" d="M377.22,6125.2h-.005a.1.1,0,0,1-.093-.1c.038-.656.021-4.15.009-6.7-.005-.98-.009-1.821-.009-2.305a.1.1,0,0,1,.2,0c0,.484,0,1.323.009,2.3.013,2.554.03,6.052-.009,6.715A.1.1,0,0,1,377.22,6125.2Z" transform="translate(-377.121 -6115.986)" fill="#fdd373"/>
        </g>
      </g>
      <g id="Grupo_13259" data-name="Grupo 13259" transform="translate(22.998 3.11)">
        <path id="Trazado_12485" data-name="Trazado 12485" d="M379.947,6106.422c-.1.551.1,3.289.1,4.161a1.815,1.815,0,0,1-1.662,1.481c-2.144,0-3.707-1.4-3.669-1.783a28.134,28.134,0,0,0-.371-7.109c.446-.133.55-.875,1.6-.175A36.379,36.379,0,0,1,379.947,6106.422Z" transform="translate(-373.01 -6098.023)" fill="#f29c85"/>
        <path id="Trazado_12486" data-name="Trazado 12486" d="M381.067,6097.358c1.659,1.233,2.438,8.436-.119,9.95-2.271,1.345-6.465-.488-6.549-3.535-.236.56-.737.043-1.178-.821-.524-1.027-.551-1.883-.188-1.991.679-.2.9.933,1.053.956C378.416,6102.533,380.368,6096.838,381.067,6097.358Z" transform="translate(-372.789 -6097.259)" fill="#f5b48d"/>
        <g id="Grupo_13258" data-name="Grupo 13258" transform="translate(1.234)">
          <path id="Trazado_12487" data-name="Trazado 12487" d="M375.886,6102.375a2.48,2.48,0,0,1-1.624-.523.1.1,0,0,1,.127-.15,3.148,3.148,0,0,0,3.152.132,5.019,5.019,0,0,0,2.343-2.81c.416-.858.775-1.6,1.359-1.771a.1.1,0,1,1,.056.189c-.5.146-.841.852-1.237,1.669-.518,1.069-1.162,2.4-2.448,2.906A4.778,4.778,0,0,1,375.886,6102.375Z" transform="translate(-374.227 -6097.248)" fill="#212b54"/>
        </g>
      </g>
      <g id="Grupo_13260" data-name="Grupo 13260" transform="translate(25.803 59.756)">
        <path id="Trazado_12488" data-name="Trazado 12488" d="M376.256,6171.773a.148.148,0,0,1-.041,0,.2.2,0,0,1-.152-.233c.186-.88.354-1.7.51-2.464a40.881,40.881,0,0,1,1.382-5.661.2.2,0,1,1,.366.143,40.985,40.985,0,0,0-1.362,5.6c-.156.763-.324,1.584-.51,2.465A.2.2,0,0,1,376.256,6171.773Z" transform="translate(-376.059 -6163.285)" fill="#fff"/>
      </g>
      <g id="Grupo_13265" data-name="Grupo 13265" transform="translate(39.805 37.084)">
        <path id="Trazado_12489" data-name="Trazado 12489" d="M392.446,6139.174c.6,1.192,2.831,2.722,5.613,3.53,3.3.958,7.365,1.138,10.4,1.835,2.076.478,4.364,1.793,7.351,1.793,1.145,0,3.564-.5,3.981-1.225s-5.325-2.125-5.426-2.428c-.262-.8,1.638.3,2.407-1.291.137-.283-.9-.053-1.85.051-.546.062-2.228-.266-2.6-.2-1.378.241-2.139,1.071-2.685.879-3.263-1.146-8.342-4.517-10.24-4.993C395.571,6136.161,391.852,6137.995,392.446,6139.174Z" transform="translate(-392.383 -6136.854)" fill="#f5b48d"/>
        <g id="Grupo_13261" data-name="Grupo 13261" transform="translate(22.567 6.909)">
          <path id="Trazado_12490" data-name="Trazado 12490" d="M422.968,6146.636a.164.164,0,0,1-.142-.082c-.277-.486-2.79-1.156-3.992-1.32a.164.164,0,0,1,.044-.325c.778.107,3.814.746,4.233,1.481a.163.163,0,0,1-.142.245Z" transform="translate(-418.691 -6144.908)" fill="#e98c75"/>
        </g>
        <g id="Grupo_13262" data-name="Grupo 13262" transform="translate(22.261 7.61)">
          <path id="Trazado_12491" data-name="Trazado 12491" d="M422,6147.016a.147.147,0,0,1-.05-.008l-.089-.028a24.777,24.777,0,0,0-3.38-.928.164.164,0,1,1,.037-.325,24.623,24.623,0,0,1,3.442.94l.089.028a.164.164,0,0,1-.05.32Z" transform="translate(-418.334 -6145.725)" fill="#e98c75"/>
        </g>
        <g id="Grupo_13263" data-name="Grupo 13263" transform="translate(21.364 8.222)">
          <path id="Trazado_12492" data-name="Trazado 12492" d="M420.319,6147.314a.166.166,0,0,1-.125-.057,5.6,5.6,0,0,0-1.109-.2,10.235,10.235,0,0,1-1.684-.3.166.166,0,0,1-.1-.208.164.164,0,0,1,.208-.1,10.028,10.028,0,0,0,1.62.287c.894.112,1.215.166,1.327.319a.165.165,0,0,1-.037.229A.167.167,0,0,1,420.319,6147.314Zm-.121-.055h0Zm-.012-.013Z" transform="translate(-417.288 -6146.439)" fill="#e98c75"/>
        </g>
        <g id="Grupo_13264" data-name="Grupo 13264" transform="translate(19.198 5.816)">
          <path id="Trazado_12493" data-name="Trazado 12493" d="M415.8,6144.77a5.969,5.969,0,0,1-.643-.043c-.1-.011-.182-.021-.226-.021a.164.164,0,0,1,0-.328c.064,0,.151.01.263.021.832.093,1.619.082,1.741-.63a.164.164,0,0,1,.323.056C417.119,6144.616,416.4,6144.77,415.8,6144.77Z" transform="translate(-414.764 -6143.633)" fill="#e98c75"/>
        </g>
      </g>
      <path id="Trazado_12494" data-name="Trazado 12494" d="M367.231,6162.01c-.255-.234-.625-.181-.992-.5-.551-.487-.79-1.407-1.846-2.025-.615-.361-1.4-.535-1.492-1.159-.24-1.7.1-11.088-.367-12.988a6.763,6.763,0,0,0-1.085-2.581c-2.037-2.57-4.466-1.859-4.615-.908a14.055,14.055,0,0,0,.138,4.914c.7,3.36,3.326,11.1,3.534,12.094a27.637,27.637,0,0,1,.379,4.669c.172.339-.6,3.873.081,3.9.407.016.509-3.167.714-3.1.114.038.223,3.833.866,3.833.594,0-.022-4.016.189-4,.178.014.709,4.5,1.336,4.365.579-.122-.475-4.416-.327-4.45.213-.05,1.539,3.088,2.061,3.067.712-.03-1.235-3.263-1.366-5.163.055-.278.275-.665.456-.491.246.234.669.952,1.026,1C367.055,6162.654,367.475,6162.234,367.231,6162.01Z" transform="translate(-347.5 -6100.356)" fill="#f5b48d"/>
    </g>
    <g id="Grupo_13272" data-name="Grupo 13272" transform="translate(657.897 6060.801)">
      <g id="Grupo_13266" data-name="Grupo 13266" transform="translate(0)">
        <path id="Trazado_12495" data-name="Trazado 12495" d="M728.508,6104.2a9.529,9.529,0,1,1,9.529-9.529A9.54,9.54,0,0,1,728.508,6104.2Zm0-17.867a8.338,8.338,0,1,0,8.338,8.337A8.347,8.347,0,0,0,728.508,6086.331Z" transform="translate(-718.978 -6085.139)" fill="#80b2f1"/>
      </g>
      <g id="Grupo_13267" data-name="Grupo 13267" transform="translate(4.146)">
        <path id="Trazado_12496" data-name="Trazado 12496" d="M729.2,6104.2c-3.019,0-5.384-4.185-5.384-9.529s2.365-9.529,5.384-9.529,5.383,4.187,5.383,9.529S732.214,6104.2,729.2,6104.2Zm0-17.867c-2.273,0-4.193,3.818-4.193,8.337s1.92,8.339,4.193,8.339,4.192-3.819,4.192-8.339S731.468,6086.331,729.2,6086.331Z" transform="translate(-723.811 -6085.139)" fill="#80b2f1"/>
      </g>
      <g id="Grupo_13268" data-name="Grupo 13268" transform="translate(2.777 2.46)">
        <path id="Trazado_12497" data-name="Trazado 12497" d="M728.969,6091.659a9.483,9.483,0,0,1-6.567-2.625.6.6,0,1,1,.821-.863,8.337,8.337,0,0,0,11.492,0,.6.6,0,1,1,.822.863A9.487,9.487,0,0,1,728.969,6091.659Z" transform="translate(-722.216 -6088.007)" fill="#80b2f1"/>
      </g>
      <g id="Grupo_13269" data-name="Grupo 13269" transform="translate(2.777 12.946)">
        <path id="Trazado_12498" data-name="Trazado 12498" d="M735.125,6103.883a.6.6,0,0,1-.411-.163,8.338,8.338,0,0,0-11.492,0,.6.6,0,0,1-.821-.863,9.53,9.53,0,0,1,13.134,0,.6.6,0,0,1-.411,1.026Z" transform="translate(-722.216 -6100.233)" fill="#80b2f1"/>
      </g>
      <g id="Grupo_13270" data-name="Grupo 13270" transform="translate(0 8.934)">
        <path id="Trazado_12499" data-name="Trazado 12499" d="M737.441,6096.746H719.574a.6.6,0,1,1,0-1.191h17.867a.6.6,0,1,1,0,1.191Z" transform="translate(-718.978 -6095.555)" fill="#80b2f1"/>
      </g>
      <g id="Grupo_13271" data-name="Grupo 13271" transform="translate(8.934)">
        <path id="Trazado_12500" data-name="Trazado 12500" d="M729.989,6104.2a.6.6,0,0,1-.6-.6v-17.867a.6.6,0,1,1,1.192,0V6103.6A.6.6,0,0,1,729.989,6104.2Z" transform="translate(-729.393 -6085.139)" fill="#80b2f1"/>
      </g>
    </g>
    <g id="Grupo_13275" data-name="Grupo 13275" transform="translate(289.472 6007.954)">
      <g id="Grupo_13273" data-name="Grupo 13273" transform="translate(0 0.247)">
        <path id="Trazado_12501" data-name="Trazado 12501" d="M299,6042.876a9.529,9.529,0,1,1,3.511-18.39.6.6,0,1,1-.439,1.108,8.34,8.34,0,1,0,3.63,2.792.6.6,0,0,1,.956-.71,9.53,9.53,0,0,1-7.658,15.2Z" transform="translate(-289.472 -6023.818)" fill="#80b2f1"/>
      </g>
      <g id="Grupo_13274" data-name="Grupo 13274" transform="translate(3.736)">
        <path id="Trazado_12502" data-name="Trazado 12502" d="M299.008,6038.671a1.193,1.193,0,0,1-.974-.5l-3.99-5.665a1.192,1.192,0,0,1,1.948-1.373l2.872,4.077,5.842-11.042a1.191,1.191,0,1,1,2.1,1.114l-6.75,12.759a1.19,1.19,0,0,1-.977.632Z" transform="translate(-293.827 -6023.53)" fill="#80b2f1"/>
      </g>
    </g>
    <g id="Grupo_13278" data-name="Grupo 13278" transform="translate(451.632 6157.066)">
      <g id="Grupo_13276" data-name="Grupo 13276" transform="translate(2.978)">
        <path id="Trazado_12503" data-name="Trazado 12503" d="M483.179,6205.7a1.191,1.191,0,0,1-1.191-1.192v-5.955a1.191,1.191,0,1,1,2.382,0v5.955A1.192,1.192,0,0,1,483.179,6205.7Z" transform="translate(-481.988 -6197.364)" fill="#ffb833"/>
      </g>
      <g id="Grupo_13277" data-name="Grupo 13277" transform="translate(0 2.978)">
        <path id="Trazado_12504" data-name="Trazado 12504" d="M485.663,6203.218h-5.956a1.191,1.191,0,1,1,0-2.382h5.956a1.191,1.191,0,1,1,0,2.382Z" transform="translate(-478.516 -6200.836)" fill="#ffb833"/>
      </g>
    </g>
    <g id="Grupo_13281" data-name="Grupo 13281" transform="translate(379.246 5982.125)">
      <g id="Grupo_13279" data-name="Grupo 13279" transform="translate(2.978)">
        <path id="Trazado_12505" data-name="Trazado 12505" d="M398.793,6001.759a1.191,1.191,0,0,1-1.191-1.191v-5.956a1.191,1.191,0,1,1,2.382,0v5.956A1.192,1.192,0,0,1,398.793,6001.759Z" transform="translate(-397.602 -5993.42)" fill="#ffb833"/>
      </g>
      <g id="Grupo_13280" data-name="Grupo 13280" transform="translate(0 2.978)">
        <path id="Trazado_12506" data-name="Trazado 12506" d="M401.277,5999.274h-5.956a1.191,1.191,0,1,1,0-2.382h5.956a1.191,1.191,0,0,1,0,2.382Z" transform="translate(-394.13 -5996.892)" fill="#ffb833"/>
      </g>
    </g>
    <g id="Grupo_13284" data-name="Grupo 13284" transform="translate(670.134 6031.122)">
      <g id="Grupo_13282" data-name="Grupo 13282" transform="translate(2.977)">
        <path id="Trazado_12507" data-name="Trazado 12507" d="M737.906,6058.877a1.19,1.19,0,0,1-1.191-1.19v-5.956a1.191,1.191,0,0,1,2.383,0v5.956A1.191,1.191,0,0,1,737.906,6058.877Z" transform="translate(-736.715 -6050.54)" fill="#ffb833"/>
      </g>
      <g id="Grupo_13283" data-name="Grupo 13283" transform="translate(0 2.977)">
        <path id="Trazado_12508" data-name="Trazado 12508" d="M740.391,6056.393h-5.956a1.191,1.191,0,0,1,0-2.382h5.956a1.191,1.191,0,0,1,0,2.382Z" transform="translate(-733.244 -6054.011)" fill="#ffb833"/>
      </g>
    </g>
    <g id="Grupo_13290" data-name="Grupo 13290" transform="translate(619.028 5947.793)">
      <g id="Grupo_13285" data-name="Grupo 13285" transform="translate(4.877 20.477)">
        <path id="Trazado_12509" data-name="Trazado 12509" d="M687.464,5979.649h-6.923a1.191,1.191,0,1,1,0-2.381h6.923a1.191,1.191,0,1,1,0,2.381Z" transform="translate(-679.35 -5977.268)" fill="#80b2f1"/>
      </g>
      <g id="Grupo_13286" data-name="Grupo 13286" transform="translate(4.877 23.494)">
        <path id="Trazado_12510" data-name="Trazado 12510" d="M687.464,5983.168h-6.923a1.192,1.192,0,0,1,0-2.384h6.923a1.192,1.192,0,0,1,0,2.384Z" transform="translate(-679.35 -5980.784)" fill="#80b2f1"/>
      </g>
      <g id="Grupo_13287" data-name="Grupo 13287" transform="translate(6.942 26.472)">
        <path id="Trazado_12511" data-name="Trazado 12511" d="M686.337,5985.448h-3.984a.6.6,0,0,1,0-1.191h3.984a.6.6,0,0,1,0,1.191Z" transform="translate(-681.758 -5984.257)" fill="#80b2f1"/>
      </g>
      <g id="Grupo_13288" data-name="Grupo 13288">
        <path id="Trazado_12512" data-name="Trazado 12512" d="M692.227,5963.023a8.934,8.934,0,1,0-13.351,7.767,1.06,1.06,0,0,1,.529.922h0a1.068,1.068,0,0,0,1.068,1.068h5.641a1.069,1.069,0,0,0,1.068-1.068h0a1.065,1.065,0,0,1,.537-.926A8.932,8.932,0,0,0,692.227,5963.023Z" transform="translate(-673.764 -5953.495)" fill="#fff"/>
        <path id="Trazado_12513" data-name="Trazado 12513" d="M686.015,5973.276h-5.641a1.665,1.665,0,0,1-1.663-1.663.463.463,0,0,0-.229-.4,9.556,9.556,0,0,1-4.817-8.284,9.561,9.561,0,0,1,9.529-9.529h.054a9.53,9.53,0,0,1,4.666,17.808.474.474,0,0,0-.237.41A1.665,1.665,0,0,1,686.015,5973.276Zm-2.82-18.69a8.373,8.373,0,0,0-8.338,8.338,8.365,8.365,0,0,0,4.214,7.249,1.656,1.656,0,0,1,.83,1.439.473.473,0,0,0,.473.473h5.641a.473.473,0,0,0,.473-.473,1.665,1.665,0,0,1,.837-1.443,8.339,8.339,0,0,0-4.082-15.582Z" transform="translate(-673.665 -5953.396)" fill="#80b2f1"/>
      </g>
      <g id="Grupo_13289" data-name="Grupo 13289" transform="translate(4.985 4.793)">
        <path id="Trazado_12514" data-name="Trazado 12514" d="M685.041,5972.709a11.9,11.9,0,0,1,1.209-7.607c1.826-2.963,4.017-3.074,4.224-2.288.284,1.079-2.824,2.279-4.581,1.416-1.777-.875-2.319-4.507-.835-4.553,1.35-.041,1.414,4.25-1.141,4.983-2.28.654-4.854-3.066-3.246-3.871,1.385-.693,2.457,3.724.447,5Z" transform="translate(-679.575 -5959.081)" fill="#f4f4ef"/>
        <path id="Trazado_12515" data-name="Trazado 12515" d="M684.942,5973.207a.6.6,0,0,1-.587-.5,12.378,12.378,0,0,1,1.276-8c-.033-.014-.067-.029-.1-.046a2.656,2.656,0,0,1-.335-.2,3.059,3.059,0,0,1-1.213.667,1.846,1.846,0,0,0-2.644,1.062.6.6,0,1,1-.639-1,1.593,1.593,0,0,0,.57-.673,4.836,4.836,0,0,1-1.6-2.021,1.711,1.711,0,0,1,.636-2.34c.541-.27,1.32-.2,1.885.8a4.9,4.9,0,0,1,.485,2.98,1.587,1.587,0,0,0,.978.055,1.863,1.863,0,0,0,.7-.376,4.6,4.6,0,0,1-.787-3.336,1.466,1.466,0,0,1,1.372-1.293c.593-.018,1.291.412,1.487,1.67a4.765,4.765,0,0,1-.5,2.872,1.183,1.183,0,0,0,.127.07,2,2,0,0,0,.278.112c1.317-1.638,2.7-2.112,3.578-1.981a1.185,1.185,0,0,1,1.038.838,1.4,1.4,0,0,1-.618,1.471,5.239,5.239,0,0,1-3.476.972q-.1.148-.2.308a11.3,11.3,0,0,0-1.128,7.2.6.6,0,0,1-.49.687A.679.679,0,0,1,684.942,5973.207Zm4.689-10.311a1.269,1.269,0,0,0-.257.03,3.276,3.276,0,0,0-1.479.853,4.392,4.392,0,0,0,1.3-.417,1.493,1.493,0,0,0,.578-.452A.607.607,0,0,0,689.631,5962.9Zm-8.767-1.683a.137.137,0,0,0-.025.01c-.282.141-.159.588-.059.842a3.428,3.428,0,0,0,.753,1.107,4.059,4.059,0,0,0-.085-.8C681.285,5961.585,680.969,5961.229,680.864,5961.213Zm4.115-1.039c-.042,0-.168,0-.244.354a3.4,3.4,0,0,0,.348,1.972,3.694,3.694,0,0,0,.2-1.047C685.319,5960.651,685.08,5960.213,684.979,5960.174Z" transform="translate(-679.476 -5958.983)" fill="#80b2f1"/>
      </g>
    </g>
    <g id="Grupo_13297" data-name="Grupo 13297" transform="translate(293.139 6093.026)">
      <path id="Trazado_12516" data-name="Trazado 12516" d="M317.754,6134.24h-10.7v-10.7A10.7,10.7,0,0,1,317.754,6134.24Z" transform="translate(-295.639 -6122.826)" fill="#80b2f1" opacity="0.45"/>
      <g id="Grupo_13291" data-name="Grupo 13291">
        <path id="Trazado_12517" data-name="Trazado 12517" d="M305.161,6145.535a11.414,11.414,0,1,1,11.414-11.414A11.427,11.427,0,0,1,305.161,6145.535Zm0-21.4a9.987,9.987,0,1,0,9.987,9.987A10,10,0,0,0,305.161,6124.134Z" transform="translate(-293.747 -6122.707)" fill="#80b2f1"/>
      </g>
      <g id="Grupo_13292" data-name="Grupo 13292" transform="translate(8.985 10.701)">
        <path id="Trazado_12518" data-name="Trazado 12518" d="M312.5,6136.609h-7.562a.713.713,0,1,1,0-1.427H312.5a.713.713,0,1,1,0,1.427Z" transform="translate(-304.222 -6135.183)" fill="#80b2f1"/>
      </g>
      <g id="Grupo_13293" data-name="Grupo 13293" transform="translate(10.7 2.003)">
        <path id="Trazado_12519" data-name="Trazado 12519" d="M306.935,6136.956a.714.714,0,0,1-.714-.713v-10.487a.714.714,0,1,1,1.427,0v10.487A.714.714,0,0,1,306.935,6136.956Z" transform="translate(-306.221 -6125.042)" fill="#80b2f1"/>
      </g>
      <g id="Grupo_13294" data-name="Grupo 13294" transform="translate(10.701 18.553)">
        <path id="Trazado_12520" data-name="Trazado 12520" d="M306.935,6146.62a.713.713,0,0,1-.713-.713v-.856a.713.713,0,1,1,1.427,0v.856A.714.714,0,0,1,306.935,6146.62Z" transform="translate(-306.222 -6144.336)" fill="#80b2f1"/>
      </g>
      <g id="Grupo_13295" data-name="Grupo 13295" transform="translate(18.553 10.701)">
        <path id="Trazado_12521" data-name="Trazado 12521" d="M316.946,6136.609h-.856a.713.713,0,1,1,0-1.427h.856a.713.713,0,0,1,0,1.427Z" transform="translate(-315.376 -6135.183)" fill="#80b2f1"/>
      </g>
      <g id="Grupo_13296" data-name="Grupo 13296" transform="translate(1.992 10.701)">
        <path id="Trazado_12522" data-name="Trazado 12522" d="M297.638,6136.609h-.856a.713.713,0,0,1,0-1.427h.856a.713.713,0,1,1,0,1.427Z" transform="translate(-296.069 -6135.183)" fill="#80b2f1"/>
      </g>
    </g>
  </g>
</svg>
