<svg xmlns="http://www.w3.org/2000/svg" width="74.107" height="77.734" viewBox="0 0 74.107 77.734">
  <g id="Grupo_13165" data-name="Grupo 13165" transform="translate(-359.059 -4492.747)">
    <path id="Trazado_12257" data-name="Trazado 12257" d="M377.987,4556.172a5.815,5.815,0,0,1,5.842-5.813H408.4a5.815,5.815,0,0,1,5.842,5.813v6.848c0,3.3-8.085,5.959-18.126,5.959s-18.124-2.658-18.125-5.959Z" fill="none" stroke="#1a1a1a" stroke-linejoin="round" stroke-width="3.004" fill-rule="evenodd"/>
    <path id="Trazado_12258" data-name="Trazado 12258" d="M405.853,4534.941a9.724,9.724,0,1,1-2.853-6.864A9.692,9.692,0,0,1,405.853,4534.941Z" fill="none" stroke="#1a1a1a" stroke-linejoin="round" stroke-width="3.004" fill-rule="evenodd"/>
    <path id="Trazado_12259" data-name="Trazado 12259" d="M405.853,4534.941h21.066a4.733,4.733,0,0,0,4.745-4.743v-31.205a4.734,4.734,0,0,0-4.745-4.744H365.3a4.734,4.734,0,0,0-4.744,4.744V4530.2a4.733,4.733,0,0,0,4.744,4.743h5.069l7.978,7.977v-7.977h8.02" fill="none" stroke="#1a1a1a" stroke-linejoin="round" stroke-width="3.004" fill-rule="evenodd"/>
    <path id="Trazado_12260" data-name="Trazado 12260" d="M405.853,4534.941a9.724,9.724,0,1,1-2.853-6.864A9.692,9.692,0,0,1,405.853,4534.941Z" fill="none" stroke="#1a1a1a" stroke-linejoin="round" stroke-width="3.004" fill-rule="evenodd"/>
    <path id="Trazado_12261" data-name="Trazado 12261" d="M383.112,4514.6a3.074,3.074,0,1,1-.9-2.174A3.071,3.071,0,0,1,383.112,4514.6Z" fill="none" stroke="#f87314" stroke-linejoin="round" stroke-width="3.004" fill-rule="evenodd"/>
    <path id="Trazado_12262" data-name="Trazado 12262" d="M399.188,4514.6a3.074,3.074,0,1,1-.9-2.174A3.071,3.071,0,0,1,399.188,4514.6Z" fill="none" stroke="#f87314" stroke-linejoin="round" stroke-width="3.004" fill-rule="evenodd"/>
    <path id="Trazado_12263" data-name="Trazado 12263" d="M415.264,4514.6a3.074,3.074,0,1,1-.9-2.174A3.071,3.071,0,0,1,415.264,4514.6Z" fill="none" stroke="#f87314" stroke-linejoin="round" stroke-width="3.004" fill-rule="evenodd"/>
  </g>
</svg>
