<svg xmlns="http://www.w3.org/2000/svg" width="92" height="55.696" viewBox="0 0 92 55.696">
  <g id="Grupo_13155" data-name="Grupo 13155" transform="translate(-666.76 -4642.926)">
    <g id="Grupo_13150" data-name="Grupo 13150">
      <path id="Trazado_12201" data-name="Trazado 12201" d="M713.967,4670.255h-1.74a1,1,0,0,1,0-2h1.74a1,1,0,0,1,0,2Z" fill="#f87314"/>
      <g id="Grupo_13149" data-name="Grupo 13149">
        <path id="Trazado_12202" data-name="Trazado 12202" d="M713.1,4666.776c-3.661,0-6.218-2.915-6.218-7.088s2.557-7.088,6.218-7.088,6.218,2.915,6.218,7.088S716.758,4666.776,713.1,4666.776Zm0-12.176c-3.113,0-4.218,2.741-4.218,5.088s1.1,5.088,4.218,5.088,4.218-2.741,4.218-5.088S716.21,4654.6,713.1,4654.6Z" fill="#f87314"/>
      </g>
      <path id="Trazado_12203" data-name="Trazado 12203" d="M713.1,4679.822a1,1,0,0,1-1-1v-9.567a1,1,0,0,1,2,0v9.567A1,1,0,0,1,713.1,4679.822Z" fill="#f87314"/>
      <path id="Trazado_12204" data-name="Trazado 12204" d="M703.866,4682.7a1,1,0,0,1-.81-1.585l1.053-1.46a2.2,2.2,0,0,1,2.5-.932l3.389.635c.972-.109,5.921-.591,9.5.463l-.236-2.388a1,1,0,0,1,1.991-.2l.4,4.018a1,1,0,0,1-1.47.978c-2.638-1.421-8.183-1.112-10.1-.872a.959.959,0,0,1-.308-.009l-3.633-.681a.926.926,0,0,1-.215-.066c0,.015-.116.1-.2.221l-1.052,1.459A1,1,0,0,1,703.866,4682.7Z" fill="#f87314"/>
      <path id="Trazado_12205" data-name="Trazado 12205" d="M721.794,4692.867a1,1,0,0,1-1-1v-4.349a1,1,0,0,1,2,0v4.349A1,1,0,0,1,721.794,4692.867Z" fill="#f87314"/>
      <path id="Trazado_12206" data-name="Trazado 12206" d="M704.4,4692.867a1,1,0,0,1-1-1v-4.349a1,1,0,0,1,2,0v4.349A1,1,0,0,1,704.4,4692.867Z" fill="#f87314"/>
      <path id="Trazado_12207" data-name="Trazado 12207" d="M723.413,4687.719H716.95a9.3,9.3,0,0,1-2.345-.426.8.8,0,0,1-.1.013l-5,.41-8.475,0a4.061,4.061,0,0,1-3.021-1.3,2.8,2.8,0,0,1-.666-2.269l1.807-10.089c.644-3.16,4.15-5.81,7.662-5.81h1.066a1,1,0,0,1,.911.589l4.308,9.562,4.306-9.562a1,1,0,0,1,.911-.589h.621a7.086,7.086,0,0,1,6.8,5.787l1.366,10.124a2.605,2.605,0,0,1-.6,2.153A4.126,4.126,0,0,1,723.413,4687.719Zm-8.984-2.607a8.634,8.634,0,0,0,2.521.607h6.463a2.146,2.146,0,0,0,1.547-.669.627.627,0,0,0,.171-.556l-1.365-10.119a5.066,5.066,0,0,0-4.8-4.12l-4.188,9.294a1.889,1.889,0,0,1-1.677,1.047,1.868,1.868,0,0,1-1.647-.984l-4.217-9.357h-.42c-2.581,0-5.243,1.956-5.7,4.186l-1.8,10.035a.775.775,0,0,0,.205.64,2.086,2.086,0,0,0,1.508.6h8.394l2.06-.17c-1.969-1.21-5.169-2.852-7.684-2.6a1,1,0,0,1-1.076-1.209l.96-4.378a1,1,0,0,1,1.954.427l-.693,3.162C709.107,4681.274,713.721,4684.587,714.429,4685.112Z" fill="#f87314"/>
    </g>
    <path id="Trazado_12208" data-name="Trazado 12208" d="M713.091,4698.622c-6.685,0-18-1.053-18-5,0-2.6,4.988-3.843,9.173-4.429a1,1,0,1,1,.277,1.98c-5.905.828-7.4,2.167-7.45,2.454.189,1.01,6.008,3,16,3s15.811-1.985,16-3c-.053-.271-1.509-1.586-7.264-2.417a1,1,0,1,1,.286-1.979c5.957.859,8.977,2.34,8.977,4.4C731.091,4697.569,719.777,4698.622,713.091,4698.622Z" fill="#f87314"/>
    <g id="Grupo_13152" data-name="Grupo 13152">
      <g id="Grupo_13151" data-name="Grupo 13151">
        <path id="Trazado_12209" data-name="Trazado 12209" d="M753.113,4670a1,1,0,0,1-1-1v-4.371c0-3.735-2.471-5.964-6.608-5.964h-3.491c-4.137,0-6.607,2.229-6.607,5.964V4669a1,1,0,0,1-2,0v-4.371c0-4.838,3.378-7.964,8.607-7.964h3.491c5.229,0,8.608,3.126,8.608,7.964V4669A1,1,0,0,1,753.113,4670Z" fill="#20201d"/>
        <path id="Trazado_12210" data-name="Trazado 12210" d="M743.781,4654.483c-2.98,0-4.982-2.322-4.982-5.778s2-5.779,4.982-5.779,4.981,2.322,4.981,5.779S746.761,4654.483,743.781,4654.483Zm0-9.557c-2.768,0-2.982,2.892-2.982,3.779s.214,3.778,2.982,3.778,2.981-2.892,2.981-3.778S746.548,4644.926,743.781,4644.926Z" fill="#20201d"/>
        <path id="Trazado_12211" data-name="Trazado 12211" d="M738.409,4670a1,1,0,0,1-1-1v-2.465a1,1,0,0,1,2,0V4669A1,1,0,0,1,738.409,4670Z" fill="#20201d"/>
        <path id="Trazado_12212" data-name="Trazado 12212" d="M749.161,4670a1,1,0,0,1-1-1v-2.435a1,1,0,0,1,2,0V4669A1,1,0,0,1,749.161,4670Z" fill="#20201d"/>
      </g>
      <path id="Trazado_12213" data-name="Trazado 12213" d="M743.76,4674.9c-7.455,0-15-1.821-15-5.3,0-1.2.9-2.887,5.2-4.114a1,1,0,0,1,.549,1.923c-2.749.785-3.747,1.74-3.747,2.191,0,1.12,4.588,3.3,13,3.3s13-2.181,13-3.3c0-.453-1.005-1.412-3.773-2.2a1,1,0,0,1,.547-1.924c4.319,1.227,5.226,2.919,5.226,4.122C758.76,4673.081,751.214,4674.9,743.76,4674.9Z" fill="#20201d"/>
    </g>
    <g id="Grupo_13154" data-name="Grupo 13154">
      <g id="Grupo_13153" data-name="Grupo 13153">
        <path id="Trazado_12214" data-name="Trazado 12214" d="M691.113,4670a1,1,0,0,1-1-1v-4.371c0-3.735-2.471-5.964-6.608-5.964h-3.491c-4.137,0-6.607,2.229-6.607,5.964V4669a1,1,0,0,1-2,0v-4.371c0-4.838,3.378-7.964,8.607-7.964h3.491c5.229,0,8.608,3.126,8.608,7.964V4669A1,1,0,0,1,691.113,4670Z" fill="#20201d"/>
        <path id="Trazado_12215" data-name="Trazado 12215" d="M681.781,4654.483c-2.98,0-4.982-2.322-4.982-5.778s2-5.779,4.982-5.779,4.981,2.322,4.981,5.779S684.761,4654.483,681.781,4654.483Zm0-9.557c-2.768,0-2.982,2.892-2.982,3.779s.214,3.778,2.982,3.778,2.981-2.892,2.981-3.778S684.548,4644.926,681.781,4644.926Z" fill="#20201d"/>
        <path id="Trazado_12216" data-name="Trazado 12216" d="M676.409,4670a1,1,0,0,1-1-1v-2.465a1,1,0,0,1,2,0V4669A1,1,0,0,1,676.409,4670Z" fill="#20201d"/>
        <path id="Trazado_12217" data-name="Trazado 12217" d="M687.161,4670a1,1,0,0,1-1-1v-2.435a1,1,0,0,1,2,0V4669A1,1,0,0,1,687.161,4670Z" fill="#20201d"/>
      </g>
      <path id="Trazado_12218" data-name="Trazado 12218" d="M681.76,4674.9c-7.455,0-15-1.821-15-5.3,0-1.2.9-2.887,5.2-4.114a1,1,0,0,1,.549,1.923c-2.749.785-3.747,1.74-3.747,2.191,0,1.12,4.588,3.3,13,3.3s13-2.181,13-3.3c0-.453-1.005-1.412-3.773-2.2a1,1,0,0,1,.547-1.924c4.319,1.227,5.226,2.919,5.226,4.122C696.76,4673.081,689.214,4674.9,681.76,4674.9Z" fill="#20201d"/>
    </g>
  </g>
</svg>
