<svg xmlns="http://www.w3.org/2000/svg" width="65.005" height="70" viewBox="0 0 65.005 70">
  <g id="Grupo_13161" data-name="Grupo 13161" transform="translate(-680.257 -4805.181)">
    <g id="Grupo_13156" data-name="Grupo 13156">
      <path id="Trazado_12219" data-name="Trazado 12219" d="M695.257,4831.181a1,1,0,0,1-.707-.293l-3-3a1,1,0,0,1,1.414-1.414l2.138,2.138,3.323-4.985a1,1,0,1,1,1.664,1.109l-4,6a.994.994,0,0,1-.733.44A.757.757,0,0,1,695.257,4831.181Z" fill="#f87314"/>
    </g>
    <g id="Grupo_13157" data-name="Grupo 13157">
      <path id="Trazado_12220" data-name="Trazado 12220" d="M695.257,4846.181a1,1,0,0,1-.707-.293l-3-3a1,1,0,0,1,1.414-1.414l2.138,2.138,3.323-4.985a1,1,0,1,1,1.664,1.109l-4,6a.994.994,0,0,1-.733.44A.757.757,0,0,1,695.257,4846.181Z" fill="#f87314"/>
    </g>
    <g id="Grupo_13158" data-name="Grupo 13158">
      <path id="Trazado_12221" data-name="Trazado 12221" d="M695.257,4861.181a1,1,0,0,1-.707-.293l-3-3a1,1,0,0,1,1.414-1.414l2.138,2.138,3.323-4.985a1,1,0,1,1,1.664,1.109l-4,6a.994.994,0,0,1-.733.44A.757.757,0,0,1,695.257,4861.181Z" fill="#20201d"/>
    </g>
    <g id="Grupo_13159" data-name="Grupo 13159">
      <path id="Trazado_12222" data-name="Trazado 12222" d="M708.257,4866.181h-22a1,1,0,0,1-1-1v-47a1,1,0,0,1,1-1h9a1,1,0,0,1,0,2h-8v45h21a1,1,0,0,1,0,2Z" fill="#20201d"/>
      <path id="Trazado_12223" data-name="Trazado 12223" d="M726.257,4826.181a1,1,0,0,1-1-1v-6h-8a1,1,0,0,1,0-2h9a1,1,0,0,1,1,1v7A1,1,0,0,1,726.257,4826.181Z" fill="#20201d"/>
      <path id="Trazado_12224" data-name="Trazado 12224" d="M717.257,4819.181h-22a1,1,0,0,1-1-1v-9a1,1,0,0,1,1-1h6.432a4.978,4.978,0,0,1,9.136,0h6.432a1,1,0,0,1,1,1v9A1,1,0,0,1,717.257,4819.181Zm-21-2h20v-7h-6.141a1,1,0,0,1-.968-.749,2.982,2.982,0,0,0-5.782,0,1,1,0,0,1-.967.749h-6.142Z" fill="#20201d"/>
      <path id="Trazado_12225" data-name="Trazado 12225" d="M720.257,4871.181h-39a1,1,0,0,1-1-1v-57a1,1,0,0,1,1-1h14v2h-13v55h38Z" fill="#20201d"/>
      <path id="Trazado_12226" data-name="Trazado 12226" d="M731.257,4830.181a1,1,0,0,1-1-1v-15h-13a1,1,0,0,1,0-2h14a1,1,0,0,1,1,1v16A1,1,0,0,1,731.257,4830.181Z" fill="#20201d"/>
    </g>
    <path id="Trazado_12227" data-name="Trazado 12227" d="M719.257,4828.181h-14a1,1,0,0,1,0-2h14a1,1,0,0,1,0,2Z" fill="#f87314"/>
    <path id="Trazado_12228" data-name="Trazado 12228" d="M719.257,4843.181h-14a1,1,0,0,1,0-2h14a1,1,0,0,1,0,2Z" fill="#f87314"/>
    <path id="Trazado_12229" data-name="Trazado 12229" d="M713.257,4858.181h-8a1,1,0,0,1,0-2h8a1,1,0,0,1,0,2Z" fill="#20201d"/>
    <g id="Grupo_13160" data-name="Grupo 13160">
      <path id="Trazado_12230" data-name="Trazado 12230" d="M729.257,4844.181c-4.186,0-7-3.215-7-8s2.814-8,7-8,7,3.215,7,8S733.444,4844.181,729.257,4844.181Zm0-14c-3.69,0-5,3.232-5,6s1.31,6,5,6,5-3.232,5-6S732.948,4830.181,729.257,4830.181Z" fill="#20201d"/>
      <path id="Trazado_12231" data-name="Trazado 12231" d="M738.257,4875.181a1,1,0,0,1-1-1v-6a1,1,0,0,1,2,0v6A1,1,0,0,1,738.257,4875.181Z" fill="#20201d"/>
      <path id="Trazado_12232" data-name="Trazado 12232" d="M720.257,4875.181a1,1,0,0,1-1-1v-6a1,1,0,0,1,2,0v6A1,1,0,0,1,720.257,4875.181Z" fill="#20201d"/>
      <path id="Trazado_12233" data-name="Trazado 12233" d="M730.257,4848.181h-2a1,1,0,0,1,0-2h2a1,1,0,0,1,0,2Z" fill="#20201d"/>
      <path id="Trazado_12234" data-name="Trazado 12234" d="M729.257,4859.181a1,1,0,0,1-1-1v-11a1,1,0,0,1,2,0v11A1,1,0,0,1,729.257,4859.181Z" fill="#20201d"/>
      <path id="Trazado_12235" data-name="Trazado 12235" d="M741.119,4868.262h-7.431a10.57,10.57,0,0,1-2.692-.493,1.121,1.121,0,0,1-.128.019l-5.752.471-9.733,0a4.518,4.518,0,0,1-3.359-1.438,3.074,3.074,0,0,1-.732-2.489l2.077-11.6c.726-3.565,4.691-6.558,8.663-6.558h1.225a1,1,0,0,1,.912.59l5.119,11.364,5.057-11.364a1,1,0,0,1,.912-.59h.715a8,8,0,0,1,7.672,6.535l1.569,11.631a2.853,2.853,0,0,1-.653,2.36A4.594,4.594,0,0,1,741.119,4868.262Zm-10.406-2.718a9.916,9.916,0,0,0,2.975.718h7.431a2.59,2.59,0,0,0,1.895-.824.863.863,0,0,0,.227-.764l-1.568-11.625a5.976,5.976,0,0,0-5.7-4.868H735.9l-4.854,10.776a2.024,2.024,0,0,1-1.793,1.115,2,2,0,0,1-1.761-1.051l-4.885-10.84h-.579c-3.034,0-6.164,2.306-6.7,4.934l-2.067,11.541a1.05,1.05,0,0,0,.271.861,2.548,2.548,0,0,0,1.846.745h9.651l2.832-.233c-2.231-1.411-6.206-3.555-9.312-3.252a.975.975,0,0,1-.846-.331,1,1,0,0,1-.229-.878l1.1-5.034a1,1,0,1,1,1.953.428l-.833,3.8C724.513,4861.054,729.944,4864.972,730.713,4865.544Z" fill="#20201d"/>
      <path id="Trazado_12236" data-name="Trazado 12236" d="M718.644,4862.494a1,1,0,0,1-.811-1.585l1.21-1.678a2.371,2.371,0,0,1,2.712-1.015l3.932.737c1.07-.121,6.975-.709,11.1.589l-.293-2.969a1,1,0,0,1,.9-1.093.987.987,0,0,1,1.094.9l.456,4.62a1,1,0,0,1-1.469.979c-3.7-1.989-11.621-1.029-11.7-1.019a1,1,0,0,1-.309-.01l-4.177-.783a.983.983,0,0,1-.214-.066c-.075-.032-.279.12-.411.3l-1.21,1.678A1,1,0,0,1,718.644,4862.494Z" fill="#20201d"/>
    </g>
  </g>
</svg>
