<svg xmlns="http://www.w3.org/2000/svg" width="74.111" height="58.196" viewBox="0 0 74.111 58.196">
  <g id="Grupo_13164" data-name="Grupo 13164" transform="translate(-542.559 -4937.351)">
    <path id="Trazado_12251" data-name="Trazado 12251" d="M548.831,4961.114v16.211a4.752,4.752,0,0,1-3.373-1.409,4.831,4.831,0,0,1-1.4-3.4v-12.854a3.885,3.885,0,0,1,3.878-3.909h16.309a3.885,3.885,0,0,1,3.878,3.909v12.854a4.831,4.831,0,0,1-1.4,3.4,4.752,4.752,0,0,1-3.373,1.409v-16.211" fill="none" stroke="#1a1a1a" stroke-linejoin="round" stroke-width="3.004" fill-rule="evenodd"/>
    <line id="Línea_115" data-name="Línea 115" y1="18.222" transform="translate(548.831 4977.325)" fill="none" stroke="#1a1a1a" stroke-linejoin="round" stroke-width="3.004"/>
    <line id="Línea_116" data-name="Línea 116" y1="16.135" transform="translate(556.094 4979.412)" fill="none" stroke="#1a1a1a" stroke-linejoin="round" stroke-width="3.004"/>
    <path id="Trazado_12252" data-name="Trazado 12252" d="M562.56,4945.382a6.562,6.562,0,0,1-1.894,4.617,6.423,6.423,0,0,1-9.145,0,6.574,6.574,0,0,1,0-9.234,6.454,6.454,0,0,1,11.039,4.617Z" fill="none" stroke="#1a1a1a" stroke-linejoin="round" stroke-width="3.004" fill-rule="evenodd"/>
    <line id="Línea_117" data-name="Línea 117" y2="18.222" transform="translate(563.356 4977.325)" fill="none" stroke="#1a1a1a" stroke-linejoin="round" stroke-width="3.004"/>
    <path id="Trazado_12253" data-name="Trazado 12253" d="M595.873,4961.114v16.211a4.752,4.752,0,0,1-3.373-1.409,4.827,4.827,0,0,1-1.4-3.4v-12.854a3.884,3.884,0,0,1,3.877-3.909h16.31a3.885,3.885,0,0,1,3.878,3.909v12.854a4.831,4.831,0,0,1-1.4,3.4,4.753,4.753,0,0,1-3.374,1.409v-16.211" fill="none" stroke="#1a1a1a" stroke-linejoin="round" stroke-width="3.004" fill-rule="evenodd"/>
    <line id="Línea_118" data-name="Línea 118" y1="18.222" transform="translate(595.873 4977.325)" fill="none" stroke="#1a1a1a" stroke-linejoin="round" stroke-width="3.004"/>
    <line id="Línea_119" data-name="Línea 119" y1="16.135" transform="translate(603.135 4979.412)" fill="none" stroke="#1a1a1a" stroke-linejoin="round" stroke-width="3.004"/>
    <path id="Trazado_12254" data-name="Trazado 12254" d="M609.6,4945.382a6.566,6.566,0,0,1-1.894,4.617,6.423,6.423,0,0,1-9.145,0,6.543,6.543,0,0,1,4.572-11.146,6.438,6.438,0,0,1,4.573,1.912A6.567,6.567,0,0,1,609.6,4945.382Z" fill="none" stroke="#1a1a1a" stroke-linejoin="round" stroke-width="3.004" fill-rule="evenodd"/>
    <line id="Línea_120" data-name="Línea 120" y2="18.222" transform="translate(610.397 4977.325)" fill="none" stroke="#1a1a1a" stroke-linejoin="round" stroke-width="3.004"/>
    <line id="Línea_121" data-name="Línea 121" x1="12.933" transform="translate(573.776 4962.838)" fill="none" stroke="#f87314" stroke-linejoin="round" stroke-width="3.004"/>
    <path id="Trazado_12255" data-name="Trazado 12255" d="M576.286,4960.3l-2.51,2.534,2.51,2.535" fill="none" stroke="#1a1a1a" stroke-linejoin="round" stroke-width="3.004" fill-rule="evenodd"/>
    <line id="Línea_122" data-name="Línea 122" x2="12.933" transform="translate(572.52 4970.239)" fill="none" stroke="#f87314" stroke-linejoin="round" stroke-width="3.004"/>
    <path id="Trazado_12256" data-name="Trazado 12256" d="M582.943,4967.7l2.51,2.535-2.51,2.535" fill="none" stroke="#f87314" stroke-linejoin="round" stroke-width="3.004" fill-rule="evenodd"/>
  </g>
</svg>
