<svg xmlns="http://www.w3.org/2000/svg" width="69.79" height="74.106" viewBox="0 0 69.79 74.106">
  <g id="Grupo_13162" data-name="Grupo 13162" transform="translate(-368.719 -4929.396)">
    <path id="Trazado_12237" data-name="Trazado 12237" d="M395.4,4987.377V4954.4l-11.995-6.94a5.187,5.187,0,0,1-1.912-7.07l15.128,8.753h13.987l15.127-8.753a5.159,5.159,0,0,1,.508,3.923,5.211,5.211,0,0,1-2.419,3.147l-11.995,6.94v32.973" fill="none" stroke="#1a1a1a" stroke-linejoin="round" stroke-width="3.004" fill-rule="evenodd"/>
    <line id="Línea_114" data-name="Línea 114" y1="15.707" transform="translate(403.614 4971.67)" fill="none" stroke="#1a1a1a" stroke-linejoin="round" stroke-width="3.004"/>
    <path id="Trazado_12238" data-name="Trazado 12238" d="M410.6,4937.949a6.972,6.972,0,1,1-6.985-7.051A7.018,7.018,0,0,1,410.6,4937.949Z" fill="none" stroke="#1a1a1a" stroke-linejoin="round" stroke-width="3.004" fill-rule="evenodd"/>
    <path id="Trazado_12239" data-name="Trazado 12239" d="M392.483,5003.5v-12.487h22.262V5003.5" fill="none" stroke="#f87314" stroke-linejoin="round" stroke-width="3.004" fill-rule="evenodd"/>
    <path id="Trazado_12240" data-name="Trazado 12240" d="M392.483,4994.652H370.222v8.85" fill="none" stroke="#f87314" stroke-linejoin="round" stroke-width="3.004" fill-rule="evenodd"/>
    <path id="Trazado_12241" data-name="Trazado 12241" d="M437.007,5003.5v-5.212H414.745" fill="none" stroke="#f87314" stroke-linejoin="round" stroke-width="3.004" fill-rule="evenodd"/>
  </g>
</svg>
