<svg xmlns="http://www.w3.org/2000/svg" width="74" height="65.597" viewBox="0 0 74 65.597">
  <g id="Grupo_13148" data-name="Grupo 13148" transform="translate(-235.337 -4807.383)">
    <g id="Grupo_13145" data-name="Grupo 13145">
      <g id="Grupo_13144" data-name="Grupo 13144">
        <path id="Trazado_12188" data-name="Trazado 12188" d="M297.337,4857.98a1,1,0,0,1-1-1v-40a1,1,0,0,1,.867-.991c8-1.072,9.744-2.292,10.079-2.618-1.361-1.669-14.231-3.988-34.946-3.988s-33.585,2.319-34.945,3.988c.335.326,2.081,1.546,10.079,2.618a1,1,0,0,1,.867.991v40a1,1,0,0,1-1.133.991c-11.868-1.59-11.868-3.692-11.868-4.588,0-1.577,1.974-2.407,3.693-2.954a1,1,0,1,1,.607,1.906,6.019,6.019,0,0,0-2.234,1.047c.345.325,1.982,1.429,8.935,2.448v-37.979c-11-1.575-11-3.594-11-4.468,0-5.932,35.49-6,37-6s37,.068,37,6c0,.874,0,2.893-11,4.468v37.979c6.954-1.019,8.59-2.123,8.934-2.448a5.983,5.983,0,0,0-2.236-1.048,1,1,0,1,1,.606-1.906c1.586.5,3.7,1.359,3.7,2.955,0,.9,0,3-11.867,4.588A1.014,1.014,0,0,1,297.337,4857.98Z" fill="#20201d"/>
        <path id="Trazado_12189" data-name="Trazado 12189" d="M300.339,4851.239a1.026,1.026,0,0,1-.171-.014,166.336,166.336,0,0,0-24.06-1.815,1,1,0,0,1,.014-2h.015a168.327,168.327,0,0,1,24.37,1.844,1,1,0,0,1-.168,1.985Z" fill="#20201d"/>
        <path id="Trazado_12190" data-name="Trazado 12190" d="M244.336,4851.239a1,1,0,0,1-.168-1.985,168.686,168.686,0,0,1,24.483-1.846,1.016,1.016,0,0,1,1.014.986,1,1,0,0,1-.986,1.014,166.721,166.721,0,0,0-24.173,1.817A1.006,1.006,0,0,1,244.336,4851.239Z" fill="#20201d"/>
        <path id="Trazado_12191" data-name="Trazado 12191" d="M308.337,4854.383a1,1,0,0,1-1-1v-40a1,1,0,0,1,2,0v40A1,1,0,0,1,308.337,4854.383Z" fill="#20201d"/>
        <path id="Trazado_12192" data-name="Trazado 12192" d="M236.337,4854.882a1,1,0,0,1-1-1v-40a1,1,0,0,1,2,0v40A1,1,0,0,1,236.337,4854.882Z" fill="#20201d"/>
      </g>
      <path id="Trazado_12193" data-name="Trazado 12193" d="M275.456,4834.98a1,1,0,0,1-1-1v-3h-4v3a1,1,0,0,1-2,0v-4a1,1,0,0,1,1-1h6a1,1,0,0,1,1,1v4A1,1,0,0,1,275.456,4834.98Z" fill="#f87314"/>
      <path id="Trazado_12194" data-name="Trazado 12194" d="M287.456,4843.98h-6a1,1,0,0,1-1-1v-18a1,1,0,0,1,1-1h6a1,1,0,0,1,1,1v18A1,1,0,0,1,287.456,4843.98Zm-5-2h4v-16h-4Z" fill="#f87314"/>
      <path id="Trazado_12195" data-name="Trazado 12195" d="M263.456,4843.98h-6a1,1,0,0,1-1-1v-9a1,1,0,0,1,1-1h6a1,1,0,0,1,1,1v9A1,1,0,0,1,263.456,4843.98Zm-5-2h4v-7h-4Z" fill="#f87314"/>
      <path id="Trazado_12196" data-name="Trazado 12196" d="M251.454,4833.98a1,1,0,0,1-.742-1.669l9-10a.988.988,0,0,1,.826-.327l11.621.968,11.7-8.772a1,1,0,0,1,1.047-.094l8,4a1,1,0,0,1-.894,1.789l-7.448-3.724-11.505,8.629a1,1,0,0,1-.683.2l-11.506-.959-8.669,9.631A1,1,0,0,1,251.454,4833.98Z" fill="#f87314"/>
    </g>
    <g id="Grupo_13147" data-name="Grupo 13147">
      <g id="Grupo_13146" data-name="Grupo 13146">
        <path id="Trazado_12197" data-name="Trazado 12197" d="M287.456,4871.98h-2v-8c0-5.317-3.845-9.03-9.35-9.03h-7.3c-5.505,0-9.35,3.713-9.35,9.03v8h-2v-8c0-6.391,4.773-11.03,11.35-11.03h7.3c6.577,0,11.35,4.639,11.35,11.03Z" fill="#20201d"/>
        <path id="Trazado_12198" data-name="Trazado 12198" d="M272.483,4850.707c-3.764,0-6.294-2.959-6.294-7.363s2.53-7.364,6.294-7.364,6.3,2.96,6.3,7.364S276.248,4850.707,272.483,4850.707Zm0-12.727c-3.166,0-4.294,2.771-4.294,5.364s1.128,5.363,4.294,5.363,4.3-2.77,4.3-5.363S275.65,4837.98,272.483,4837.98Z" fill="#20201d"/>
        <path id="Trazado_12199" data-name="Trazado 12199" d="M280.7,4872.918H263.875v-3.058l-.862-6.911a2.345,2.345,0,0,1,2.325-2.637h13.9a2.347,2.347,0,0,1,2.326,2.636l-.862,6.912Zm-14.824-2H278.7l.007-1.244.871-6.973a.346.346,0,0,0-.085-.273.338.338,0,0,0-.257-.116h-13.9a.345.345,0,0,0-.341.389l.878,7.1Z" fill="#20201d"/>
      </g>
      <path id="Trazado_12200" data-name="Trazado 12200" d="M288.456,4872.98h-32a1,1,0,1,1,0-2h32a1,1,0,0,1,0,2Z" fill="#20201d"/>
    </g>
  </g>
</svg>
