<svg xmlns="http://www.w3.org/2000/svg" xmlns:xlink="http://www.w3.org/1999/xlink" width="121" height="121.413" viewBox="0 0 121 121.413">
  <defs>
    <linearGradient id="linear-gradient" x1="0.5" x2="0.5" y2="1" gradientUnits="objectBoundingBox">
      <stop offset="0" stop-color="#fff33b"/>
      <stop offset="0.014" stop-color="#fee72e"/>
      <stop offset="0.042" stop-color="#fed51b"/>
      <stop offset="0.07" stop-color="#fdca10"/>
      <stop offset="0.1" stop-color="#fdc70c"/>
      <stop offset="0.4" stop-color="#f3903f"/>
      <stop offset="0.8" stop-color="#ed683c"/>
      <stop offset="1" stop-color="#e93e3a"/>
    </linearGradient>
    <filter id="Trazado_12324" x="2.96" y="6.626" width="114.787" height="114.787" filterUnits="userSpaceOnUse">
      <feOffset dy="3" input="SourceAlpha"/>
      <feGaussianBlur stdDeviation="3" result="blur"/>
      <feFlood flood-opacity="0.161"/>
      <feComposite operator="in" in2="blur"/>
      <feComposite in="SourceGraphic"/>
    </filter>
    <linearGradient id="linear-gradient-2" y1="-28.552" y2="5.561" xlink:href="#linear-gradient"/>
    <linearGradient id="linear-gradient-3" y1="-0.052" y2="1.085" xlink:href="#linear-gradient"/>
    <linearGradient id="linear-gradient-4" y1="-2.936" y2="1.937" xlink:href="#linear-gradient"/>
    <linearGradient id="linear-gradient-5" y1="-0.507" y2="4.366" xlink:href="#linear-gradient"/>
    <linearGradient id="linear-gradient-6" y1="-11.552" y2="22.56" xlink:href="#linear-gradient"/>
    <linearGradient id="linear-gradient-11" y1="-4.051" y2="30.06" xlink:href="#linear-gradient"/>
    <linearGradient id="linear-gradient-16" y1="-28.052" y2="6.061" xlink:href="#linear-gradient"/>
  </defs>
  <g id="Grupo_13311" data-name="Grupo 13311" transform="translate(-250 -8252)">
    <g id="Grupo_13179" data-name="Grupo 13179" transform="translate(0 1553)">
      <circle id="Elipse_668" data-name="Elipse 668" cx="60.5" cy="60.5" r="60.5" transform="translate(250 6699)" opacity="0.75" fill="url(#linear-gradient)"/>
      <g transform="matrix(1, 0, 0, 1, 250, 6699)" filter="url(#Trazado_12324)">
        <path id="Trazado_12324-2" data-name="Trazado 12324" d="M48.393,0A48.393,48.393,0,1,1,0,48.393,48.393,48.393,0,0,1,48.393,0Z" transform="translate(11.96 12.63)" fill="#fff"/>
      </g>
    </g>
    <g id="Worldwide-shopping_online-global-bag-smartphone" data-name="Worldwide-shopping online-global-bag-smartphone" transform="translate(279 8281)">
      <path id="Trazado_12585" data-name="Trazado 12585" d="M52,56h2v2H52Z" fill="url(#linear-gradient-2)"/>
      <path id="Trazado_12586" data-name="Trazado 12586" d="M62,25V5a3.009,3.009,0,0,0-3-3H47a3.009,3.009,0,0,0-3,3V17.29a18.928,18.928,0,0,0-24,0V5a3.009,3.009,0,0,0-3-3H5A3.009,3.009,0,0,0,2,5V25a3.009,3.009,0,0,0,3,3h8.43a18.82,18.82,0,0,0,0,8H5a3.009,3.009,0,0,0-3,3V59a3.009,3.009,0,0,0,3,3H17a3.009,3.009,0,0,0,3-3V46.71a18.928,18.928,0,0,0,24,0V59a3.009,3.009,0,0,0,3,3H59a3.009,3.009,0,0,0,3-3V39a3.009,3.009,0,0,0-3-3H50.57a18.82,18.82,0,0,0,0-8H59a3.009,3.009,0,0,0,3-3ZM47,28h1.51a16.984,16.984,0,0,1,.45,3H40.98a37.784,37.784,0,0,0-.97-7.79A18.667,18.667,0,0,0,44,20.71V25a3.009,3.009,0,0,0,3,3Zm-4.07-9.01a16.921,16.921,0,0,1-3.46,2.27,17.728,17.728,0,0,0-2.84-5.61,16.675,16.675,0,0,1,6.3,3.34ZM25.02,31a35.694,35.694,0,0,1,.83-7.04,18.7,18.7,0,0,0,12.3,0A35.694,35.694,0,0,1,38.98,31Zm13.96,2a35.694,35.694,0,0,1-.83,7.04,18.7,18.7,0,0,0-12.3,0A35.694,35.694,0,0,1,25.02,33ZM32,15c2.09,0,4.27,2.62,5.63,7.02a16.662,16.662,0,0,1-11.26,0C27.73,17.62,29.91,15,32,15Zm-4.63.65a17.728,17.728,0,0,0-2.84,5.61,16.921,16.921,0,0,1-3.46-2.27,16.675,16.675,0,0,1,6.3-3.34ZM20,25V20.71a18.667,18.667,0,0,0,3.99,2.5A37.784,37.784,0,0,0,23.02,31H15.04a16.984,16.984,0,0,1,.45-3H17a3.009,3.009,0,0,0,3-3ZM5,26a1,1,0,0,1-1-1V5A1,1,0,0,1,5,4H17a1,1,0,0,1,1,1V25a1,1,0,0,1-1,1ZM18,59a1,1,0,0,1-1,1H5a1,1,0,0,1-1-1V39a1,1,0,0,1,1-1H17a1,1,0,0,1,1,1ZM17,36H15.49a16.984,16.984,0,0,1-.45-3h7.98a37.784,37.784,0,0,0,.97,7.79A18.667,18.667,0,0,0,20,43.29V39A3.009,3.009,0,0,0,17,36Zm4.07,9.01a16.921,16.921,0,0,1,3.46-2.27,17.728,17.728,0,0,0,2.84,5.61,16.675,16.675,0,0,1-6.3-3.34ZM32,49c-2.09,0-4.27-2.62-5.63-7.02a16.662,16.662,0,0,1,11.26,0C36.27,46.38,34.09,49,32,49Zm4.63-.65a17.728,17.728,0,0,0,2.84-5.61,16.921,16.921,0,0,1,3.46,2.27,16.675,16.675,0,0,1-6.3,3.34ZM44,39v4.29a18.667,18.667,0,0,0-3.99-2.5A37.785,37.785,0,0,0,40.98,33h7.98a16.984,16.984,0,0,1-.45,3H47a3.009,3.009,0,0,0-3,3Zm15-1a1,1,0,0,1,1,1V59a1,1,0,0,1-1,1H47a1,1,0,0,1-1-1V39a1,1,0,0,1,1-1ZM47,26a1,1,0,0,1-1-1V5a1,1,0,0,1,1-1H59a1,1,0,0,1,1,1V25a1,1,0,0,1-1,1Z" fill="url(#linear-gradient-3)"/>
      <path id="Trazado_12587" data-name="Trazado 12587" d="M56.99,44.88A1,1,0,0,0,56,44V43a3,3,0,1,0-6,0v1a1,1,0,0,0-.99.88l-1,8a.968.968,0,0,0,.24.78A.981.981,0,0,0,49,54h8a.981.981,0,0,0,.75-.34.968.968,0,0,0,.24-.78ZM52,43a1,1,0,0,1,2,0v1H52Zm-1.87,9,.75-6h4.24l.75,6Z" fill="url(#linear-gradient-4)"/>
      <path id="Trazado_12588" data-name="Trazado 12588" d="M56.99,10.88A1,1,0,0,0,56,10V9a3,3,0,1,0-6,0v1a1,1,0,0,0-.99.88l-1,8a.968.968,0,0,0,.24.78A.981.981,0,0,0,49,20h8a.981.981,0,0,0,.75-.34.968.968,0,0,0,.24-.78ZM52,9a1,1,0,0,1,2,0v1H52Zm-1.87,9,.75-6h4.24l.75,6Z" fill="url(#linear-gradient-5)"/>
      <path id="Trazado_12589" data-name="Trazado 12589" d="M52,22h2v2H52Z" fill="url(#linear-gradient-6)"/>
      <g id="Grupo_13301" data-name="Grupo 13301">
        <path id="Trazado_12590" data-name="Trazado 12590" d="M14.99,10.88A1,1,0,0,0,14,10V9A3,3,0,1,0,8,9v1a1,1,0,0,0-.99.88l-1,8a.968.968,0,0,0,.24.78A.981.981,0,0,0,7,20h8a.981.981,0,0,0,.75-.34.968.968,0,0,0,.24-.78ZM10,9a1,1,0,0,1,2,0v1H10ZM8.13,18l.75-6h4.24l.75,6Z" fill="url(#linear-gradient-5)"/>
        <path id="Trazado_12591" data-name="Trazado 12591" d="M10,22h2v2H10Z" fill="url(#linear-gradient-6)"/>
        <path id="Trazado_12592" data-name="Trazado 12592" d="M14.99,44.88A1,1,0,0,0,14,44V43a3,3,0,1,0-6,0v1a1,1,0,0,0-.99.88l-1,8a.968.968,0,0,0,.24.78A.981.981,0,0,0,7,54h8a.981.981,0,0,0,.75-.34.968.968,0,0,0,.24-.78ZM10,43a1,1,0,0,1,2,0v1H10ZM8.13,52l.75-6h4.24l.75,6Z" fill="url(#linear-gradient-4)"/>
        <path id="Trazado_12593" data-name="Trazado 12593" d="M10,56h2v2H10Z" fill="url(#linear-gradient-2)"/>
      </g>
      <path id="Trazado_12594" data-name="Trazado 12594" d="M23,7h2V9H23Z" fill="url(#linear-gradient-11)"/>
      <path id="Trazado_12595" data-name="Trazado 12595" d="M27,7h2V9H27Z" fill="url(#linear-gradient-11)"/>
      <path id="Trazado_12596" data-name="Trazado 12596" d="M31,7h2V9H31Z" fill="url(#linear-gradient-11)"/>
      <path id="Trazado_12597" data-name="Trazado 12597" d="M35,7h2V9H35Z" fill="url(#linear-gradient-11)"/>
      <path id="Trazado_12598" data-name="Trazado 12598" d="M39,7h2V9H39Z" fill="url(#linear-gradient-11)"/>
      <path id="Trazado_12599" data-name="Trazado 12599" d="M23,55h2v2H23Z" fill="url(#linear-gradient-16)"/>
      <path id="Trazado_12600" data-name="Trazado 12600" d="M27,55h2v2H27Z" fill="url(#linear-gradient-16)"/>
      <path id="Trazado_12601" data-name="Trazado 12601" d="M31,55h2v2H31Z" fill="url(#linear-gradient-16)"/>
      <path id="Trazado_12602" data-name="Trazado 12602" d="M35,55h2v2H35Z" fill="url(#linear-gradient-16)"/>
      <path id="Trazado_12603" data-name="Trazado 12603" d="M39,55h2v2H39Z" fill="url(#linear-gradient-16)"/>
    </g>
  </g>
</svg>
