<svg xmlns="http://www.w3.org/2000/svg" xmlns:xlink="http://www.w3.org/1999/xlink" width="121" height="121.413" viewBox="0 0 121 121.413">
  <defs>
    <linearGradient id="linear-gradient" x1="0.5" x2="0.5" y2="1" gradientUnits="objectBoundingBox">
      <stop offset="0" stop-color="#fff33b"/>
      <stop offset="0.014" stop-color="#fee72e"/>
      <stop offset="0.042" stop-color="#fed51b"/>
      <stop offset="0.07" stop-color="#fdca10"/>
      <stop offset="0.1" stop-color="#fdc70c"/>
      <stop offset="0.4" stop-color="#f3903f"/>
      <stop offset="0.8" stop-color="#ed683c"/>
      <stop offset="1" stop-color="#e93e3a"/>
    </linearGradient>
    <filter id="Trazado_12324" x="2.96" y="6.626" width="114.787" height="114.787" filterUnits="userSpaceOnUse">
      <feOffset dy="3" input="SourceAlpha"/>
      <feGaussianBlur stdDeviation="3" result="blur"/>
      <feFlood flood-opacity="0.161"/>
      <feComposite operator="in" in2="blur"/>
      <feComposite in="SourceGraphic"/>
    </filter>
    <linearGradient id="linear-gradient-2" y1="-5.533" y2="26.622" xlink:href="#linear-gradient"/>
    <linearGradient id="linear-gradient-4" y1="-5.564" y2="19.17" xlink:href="#linear-gradient"/>
    <linearGradient id="linear-gradient-5" y1="-21.533" y2="10.622" xlink:href="#linear-gradient"/>
    <linearGradient id="linear-gradient-6" y1="-21.533" y2="10.622" xlink:href="#linear-gradient"/>
    <linearGradient id="linear-gradient-7" y1="-17.871" y2="6.863" xlink:href="#linear-gradient"/>
    <linearGradient id="linear-gradient-8" y1="-0.034" y2="1.037" xlink:href="#linear-gradient"/>
  </defs>
  <g id="Grupo_13308" data-name="Grupo 13308" transform="translate(-250 -6989)">
    <g id="Grupo_13176" data-name="Grupo 13176" transform="translate(0 290)">
      <circle id="Elipse_668" data-name="Elipse 668" cx="60.5" cy="60.5" r="60.5" transform="translate(250 6699)" opacity="0.75" fill="url(#linear-gradient)"/>
      <g transform="matrix(1, 0, 0, 1, 250, 6699)" filter="url(#Trazado_12324)">
        <path id="Trazado_12324-2" data-name="Trazado 12324" d="M48.393,0A48.393,48.393,0,1,1,0,48.393,48.393,48.393,0,0,1,48.393,0Z" transform="translate(11.96 12.63)" fill="#fff"/>
      </g>
    </g>
    <g id="negocios" transform="translate(279.966 7019)">
      <path id="Trazado_12543" data-name="Trazado 12543" d="M256.035,72.07h2.035v2.035h-2.035Zm0,0" transform="translate(-223.441 -62.904)" fill="url(#linear-gradient-2)"/>
      <path id="Trazado_12544" data-name="Trazado 12544" d="M208.035,72.07h2.035v2.035h-2.035Zm0,0" transform="translate(-181.546 -62.904)" fill="url(#linear-gradient-2)"/>
      <path id="Trazado_12545" data-name="Trazado 12545" d="M220.485,99.88a1.627,1.627,0,0,1-1.221-.611l-1.628,1.221a3.561,3.561,0,0,0,5.7,0l-1.628-1.221A1.639,1.639,0,0,1,220.485,99.88Zm0,0" transform="translate(-189.927 -86.644)" fill="url(#linear-gradient-4)"/>
      <path id="Trazado_12546" data-name="Trazado 12546" d="M104.035,328.07h2.035v2.035h-2.035Zm0,0" transform="translate(-90.774 -286.344)" fill="url(#linear-gradient-5)"/>
      <path id="Trazado_12547" data-name="Trazado 12547" d="M56.035,328.07H58.07v2.035H56.035Zm0,0" transform="translate(-48.879 -286.344)" fill="url(#linear-gradient-6)"/>
      <path id="Trazado_12548" data-name="Trazado 12548" d="M68.486,355.88a1.627,1.627,0,0,1-1.221-.611l-1.628,1.221a3.561,3.561,0,0,0,5.7,0l-1.628-1.221a1.64,1.64,0,0,1-1.221.611Zm0,0" transform="translate(-57.259 -310.084)" fill="url(#linear-gradient-7)"/>
      <path id="Trazado_12549" data-name="Trazado 12549" d="M58.031,48.848h-2.4a9.138,9.138,0,0,0-1.867-15.407,23.811,23.811,0,0,0,.193-2.908A23.232,23.232,0,0,0,39.708,9.014a9.15,9.15,0,0,0-18.3,0A23.232,23.232,0,0,0,7.156,30.533a23.811,23.811,0,0,0,.193,2.908A9.138,9.138,0,0,0,5.483,48.848h-2.4A3.053,3.053,0,0,0,.034,51.9v4.07a3.053,3.053,0,0,0,3.052,3.052H4.1V60.04a1.018,1.018,0,0,0,1.017,1.017h12.21a1.018,1.018,0,0,0,1.017-1.017V59.023h1.017a3.053,3.053,0,0,0,3.052-3.052v-3.5a23.344,23.344,0,0,0,16.28,0v3.5a3.053,3.053,0,0,0,3.052,3.052h1.017V60.04a1.018,1.018,0,0,0,1.017,1.017H56a1.018,1.018,0,0,0,1.017-1.017V59.023h1.017a3.053,3.053,0,0,0,3.052-3.052V51.9a3.053,3.053,0,0,0-3.052-3.052ZM3.087,56.988A1.018,1.018,0,0,1,2.069,55.97V51.9a1.018,1.018,0,0,1,1.017-1.017H4.1v6.1Zm46.8-8.14a7.07,7.07,0,0,1-7.042-8.135,8.082,8.082,0,0,0,2.08.287,7.288,7.288,0,0,0,2.215-.339A7.614,7.614,0,0,0,49.891,39.1a7.48,7.48,0,0,0,7.042,1.619,6.986,6.986,0,0,1,.08,1.008,7.131,7.131,0,0,1-7.122,7.122ZM56.36,38.765a5.56,5.56,0,0,1-3.111-.045A5.718,5.718,0,0,1,50.66,36.99a1.052,1.052,0,0,0-1.538,0,5.725,5.725,0,0,1-2.59,1.729,5.532,5.532,0,0,1-3.11.044,7.109,7.109,0,0,1,12.938,0ZM37.681,9.166A7.122,7.122,0,1,1,23.517,8.154a8.083,8.083,0,0,0,2.08.287A7.288,7.288,0,0,0,27.812,8.1a7.614,7.614,0,0,0,2.747-1.563A7.6,7.6,0,0,0,33.306,8.1a7.633,7.633,0,0,0,4.3.057,7.134,7.134,0,0,1,.078,1.008Zm-12.21,9.157h4.07v7.122h2.035V18.323h4.07v8.14H25.471Zm5.087-16.28a7.122,7.122,0,0,1,6.469,4.162,5.559,5.559,0,0,1-3.111-.045,5.718,5.718,0,0,1-2.589-1.729,1.052,1.052,0,0,0-1.538,0A5.725,5.725,0,0,1,27.2,6.16a5.532,5.532,0,0,1-3.11.044,7.123,7.123,0,0,1,6.469-4.16ZM11.227,34.6A7.122,7.122,0,0,1,17.7,38.765a5.56,5.56,0,0,1-3.111-.045A5.718,5.718,0,0,1,12,36.99a1.052,1.052,0,0,0-1.538,0,5.725,5.725,0,0,1-2.59,1.729,5.532,5.532,0,0,1-3.11.044,7.123,7.123,0,0,1,6.469-4.16ZM4.1,41.726a7.055,7.055,0,0,1,.08-1.013A8.083,8.083,0,0,0,6.264,41a7.288,7.288,0,0,0,2.215-.339A7.614,7.614,0,0,0,11.227,39.1a7.48,7.48,0,0,0,7.042,1.619,6.987,6.987,0,0,1,.08,1.008,7.122,7.122,0,0,1-14.245,0Zm12.21,17.3H6.139v-8.14h4.07v7.122h2.035V50.883h4.07Zm4.07-3.052a1.018,1.018,0,0,1-1.017,1.017H18.349v-6.1h1.017A1.018,1.018,0,0,1,20.384,51.9Zm21.367,1.017a1.018,1.018,0,0,1-1.017-1.017V51.9a1.018,1.018,0,0,1,1.017-1.017h1.017v6.1Zm0-8.14a3.034,3.034,0,0,0-2.359,1.14,21.349,21.349,0,0,1-17.666,0,3.034,3.034,0,0,0-2.359-1.14h-2.4A9.151,9.151,0,0,0,9.319,32.772a22.033,22.033,0,0,1-.127-2.239,21.212,21.212,0,0,1,12.428-19.4,9.168,9.168,0,0,0,3.2,5.152h-2.4a3.053,3.053,0,0,0-3.052,3.052v4.07a3.053,3.053,0,0,0,3.052,3.052h1.017v1.017A1.018,1.018,0,0,0,24.454,28.5h12.21a1.018,1.018,0,0,0,1.017-1.017V26.463H38.7a3.053,3.053,0,0,0,3.052-3.052v-4.07A3.053,3.053,0,0,0,38.7,16.289H36.3a9.165,9.165,0,0,0,3.2-5.152,21.212,21.212,0,0,1,12.428,19.4,21.893,21.893,0,0,1-.127,2.239,9.151,9.151,0,0,0-7.652,16.076ZM23.436,24.428H22.419A1.018,1.018,0,0,1,21.4,23.411v-4.07a1.018,1.018,0,0,1,1.017-1.017h1.017Zm14.245-6.1H38.7a1.018,1.018,0,0,1,1.017,1.017v4.07A1.018,1.018,0,0,1,38.7,24.428H37.681Zm17.3,40.7H44.8v-8.14h4.07v7.122h2.035V50.883h4.07Zm4.07-3.052a1.018,1.018,0,0,1-1.017,1.017H57.013v-6.1h1.017A1.018,1.018,0,0,1,59.048,51.9Zm0,0" transform="translate(0 0)" fill="url(#linear-gradient-8)"/>
      <path id="Trazado_12550" data-name="Trazado 12550" d="M408.035,328.07h2.035v2.035h-2.035Zm0,0" transform="translate(-356.109 -286.344)" fill="url(#linear-gradient-5)"/>
      <path id="Trazado_12551" data-name="Trazado 12551" d="M360.035,328.07h2.035v2.035h-2.035Zm0,0" transform="translate(-314.214 -286.344)" fill="url(#linear-gradient-5)"/>
      <path id="Trazado_12552" data-name="Trazado 12552" d="M372.485,355.88a1.627,1.627,0,0,1-1.221-.611l-1.628,1.221a3.561,3.561,0,0,0,5.7,0l-1.628-1.221a1.639,1.639,0,0,1-1.221.611Zm0,0" transform="translate(-322.594 -310.084)" fill="url(#linear-gradient-7)"/>
    </g>
  </g>
</svg>
