<svg xmlns="http://www.w3.org/2000/svg" xmlns:xlink="http://www.w3.org/1999/xlink" width="121" height="121.413" viewBox="0 0 121 121.413">
  <defs>
    <linearGradient id="linear-gradient" x1="0.5" x2="0.5" y2="1" gradientUnits="objectBoundingBox">
      <stop offset="0" stop-color="#fff33b"/>
      <stop offset="0.014" stop-color="#fee72e"/>
      <stop offset="0.042" stop-color="#fed51b"/>
      <stop offset="0.07" stop-color="#fdca10"/>
      <stop offset="0.1" stop-color="#fdc70c"/>
      <stop offset="0.4" stop-color="#f3903f"/>
      <stop offset="0.8" stop-color="#ed683c"/>
      <stop offset="1" stop-color="#e93e3a"/>
    </linearGradient>
    <filter id="Trazado_12155" x="2.96" y="6.626" width="114.787" height="114.787" filterUnits="userSpaceOnUse">
      <feOffset dy="3" input="SourceAlpha"/>
      <feGaussianBlur stdDeviation="3" result="blur"/>
      <feFlood flood-opacity="0.161"/>
      <feComposite operator="in" in2="blur"/>
      <feComposite in="SourceGraphic"/>
    </filter>
    <linearGradient id="linear-gradient-2" y1="-0.052" y2="1.013" xlink:href="#linear-gradient"/>
    <linearGradient id="linear-gradient-3" y1="-18.575" y2="13.389" xlink:href="#linear-gradient"/>
    <linearGradient id="linear-gradient-4" y1="-21.575" y2="10.389" xlink:href="#linear-gradient"/>
    <linearGradient id="linear-gradient-5" y1="-24.575" y2="7.389" xlink:href="#linear-gradient"/>
    <linearGradient id="linear-gradient-6" y1="-27.575" y2="4.389" xlink:href="#linear-gradient"/>
    <linearGradient id="linear-gradient-7" y1="-13.575" y2="18.389" xlink:href="#linear-gradient"/>
    <linearGradient id="linear-gradient-9" y1="-0.275" y2="2.184" xlink:href="#linear-gradient"/>
    <linearGradient id="linear-gradient-10" y1="-1.239" y2="5.864" xlink:href="#linear-gradient"/>
    <linearGradient id="linear-gradient-11" y1="-1.575" y2="30.389" xlink:href="#linear-gradient"/>
    <linearGradient id="linear-gradient-13" y1="-4.575" y2="27.389" xlink:href="#linear-gradient"/>
    <linearGradient id="linear-gradient-15" y1="-7.575" y2="24.389" xlink:href="#linear-gradient"/>
    <linearGradient id="linear-gradient-18" y1="-3.929" y2="1.398" xlink:href="#linear-gradient"/>
  </defs>
  <g id="Grupo_13306" data-name="Grupo 13306" transform="translate(-250 -4965)">
    <circle id="Elipse_667" data-name="Elipse 667" cx="60.5" cy="60.5" r="60.5" transform="translate(250 4965)" opacity="0.75" fill="url(#linear-gradient)"/>
    <g transform="matrix(1, 0, 0, 1, 250, 4965)" filter="url(#Trazado_12155)">
      <path id="Trazado_12155-2" data-name="Trazado 12155" d="M48.393,0A48.393,48.393,0,1,1,0,48.393,48.393,48.393,0,0,1,48.393,0Z" transform="translate(11.96 12.63)" fill="#fff"/>
    </g>
    <g id="Database" transform="translate(278.003 4993.006)">
      <path id="Trazado_12287" data-name="Trazado 12287" d="M57,22H35.719A16.994,16.994,0,1,0,16,35.719V38H15a1,1,0,0,0-1,1V57a5,5,0,1,0,10,0V39a1,1,0,0,0-1-1H22V35.719a16.81,16.81,0,0,0,4-1.245V57a5.006,5.006,0,0,0,5,5H57a5.006,5.006,0,0,0,5-5V27a5.006,5.006,0,0,0-5-5ZM4,19A15,15,0,1,1,19,34,15,15,0,0,1,4,19ZM22,57a3,3,0,0,1-6,0V40h6ZM20,38H18V35.949c.333.02.662.051,1,.051s.667-.031,1-.051ZM57,60H31a3,3,0,0,1-3-3V33.4a17.036,17.036,0,0,0,2.045-1.5A4.892,4.892,0,0,0,31,32H57a4.975,4.975,0,0,0,3-1.026V57A3,3,0,0,1,57,60Zm2.128-30.882A3.018,3.018,0,0,1,57,30H31.938a16.971,16.971,0,0,0,3.309-6H57a3,3,0,0,1,2.128,5.118Z" fill="url(#linear-gradient-2)"/>
      <g id="Grupo_13173" data-name="Grupo 13173">
        <path id="Trazado_12288" data-name="Trazado 12288" d="M32,36H56v2H32Z" fill="url(#linear-gradient-3)"/>
        <path id="Trazado_12289" data-name="Trazado 12289" d="M32,42H56v2H32Z" fill="url(#linear-gradient-4)"/>
        <path id="Trazado_12290" data-name="Trazado 12290" d="M32,48H56v2H32Z" fill="url(#linear-gradient-5)"/>
        <path id="Trazado_12291" data-name="Trazado 12291" d="M32,54H56v2H32Z" fill="url(#linear-gradient-6)"/>
      </g>
      <path id="Trazado_12292" data-name="Trazado 12292" d="M36,26h2v2H36Z" fill="url(#linear-gradient-7)"/>
      <path id="Trazado_12293" data-name="Trazado 12293" d="M40,26h2v2H40Z" fill="url(#linear-gradient-7)"/>
      <path id="Trazado_12294" data-name="Trazado 12294" d="M32,19A13,13,0,1,0,19,32,13,13,0,0,0,32,19ZM8,19A11,11,0,1,1,19,30,11,11,0,0,1,8,19Z" fill="url(#linear-gradient-9)"/>
      <path id="Trazado_12295" data-name="Trazado 12295" d="M19,10a9.011,9.011,0,0,0-9,9h2a7.008,7.008,0,0,1,7-7Z" fill="url(#linear-gradient-10)"/>
      <path id="Trazado_12296" data-name="Trazado 12296" d="M44,2H62V4H44Z" fill="url(#linear-gradient-11)"/>
      <path id="Trazado_12297" data-name="Trazado 12297" d="M38,2h4V4H38Z" fill="url(#linear-gradient-11)"/>
      <path id="Trazado_12298" data-name="Trazado 12298" d="M44,8H62v2H44Z" fill="url(#linear-gradient-13)"/>
      <path id="Trazado_12299" data-name="Trazado 12299" d="M38,8h4v2H38Z" fill="url(#linear-gradient-13)"/>
      <path id="Trazado_12300" data-name="Trazado 12300" d="M44,14H62v2H44Z" fill="url(#linear-gradient-15)"/>
      <path id="Trazado_12301" data-name="Trazado 12301" d="M38,14h4v2H38Z" fill="url(#linear-gradient-15)"/>
      <path id="Trazado_12302" data-name="Trazado 12302" d="M18,42h2v2H18Z" fill="url(#linear-gradient-4)"/>
      <path id="Trazado_12303" data-name="Trazado 12303" d="M18,46h2V58H18Z" fill="url(#linear-gradient-18)"/>
    </g>
  </g>
</svg>
