<svg xmlns="http://www.w3.org/2000/svg" xmlns:xlink="http://www.w3.org/1999/xlink" width="121" height="121.413" viewBox="0 0 121 121.413">
  <defs>
    <linearGradient id="linear-gradient" x1="0.5" x2="0.5" y2="1" gradientUnits="objectBoundingBox">
      <stop offset="0" stop-color="#fff33b"/>
      <stop offset="0.014" stop-color="#fee72e"/>
      <stop offset="0.042" stop-color="#fed51b"/>
      <stop offset="0.07" stop-color="#fdca10"/>
      <stop offset="0.1" stop-color="#fdc70c"/>
      <stop offset="0.4" stop-color="#f3903f"/>
      <stop offset="0.8" stop-color="#ed683c"/>
      <stop offset="1" stop-color="#e93e3a"/>
    </linearGradient>
    <filter id="Trazado_12155" x="2.96" y="6.626" width="114.787" height="114.787" filterUnits="userSpaceOnUse">
      <feOffset dy="3" input="SourceAlpha"/>
      <feGaussianBlur stdDeviation="3" result="blur"/>
      <feFlood flood-opacity="0.161"/>
      <feComposite operator="in" in2="blur"/>
      <feComposite in="SourceGraphic"/>
    </filter>
    <linearGradient id="linear-gradient-2" y1="-2.56" y2="33.921" xlink:href="#linear-gradient"/>
    <linearGradient id="linear-gradient-3" y1="-3.459" y2="33.022" xlink:href="#linear-gradient"/>
    <linearGradient id="linear-gradient-4" y1="-4.89" y2="31.592" xlink:href="#linear-gradient"/>
    <linearGradient id="linear-gradient-5" y1="-6.753" y2="29.728" xlink:href="#linear-gradient"/>
    <linearGradient id="linear-gradient-6" y1="-8.924" y2="27.557" xlink:href="#linear-gradient"/>
    <linearGradient id="linear-gradient-7" y1="-11.253" y2="25.228" xlink:href="#linear-gradient"/>
    <linearGradient id="linear-gradient-8" y1="-2.253" y2="34.228" xlink:href="#linear-gradient"/>
    <linearGradient id="linear-gradient-15" y1="-0.284" y2="2.148" xlink:href="#linear-gradient"/>
    <linearGradient id="linear-gradient-16" y1="-0.075" y2="1.141" xlink:href="#linear-gradient"/>
    <linearGradient id="linear-gradient-18" y1="-1.179" y2="4.032" xlink:href="#linear-gradient"/>
    <linearGradient id="linear-gradient-19" y1="-9.418" y2="2.743" xlink:href="#linear-gradient"/>
    <linearGradient id="linear-gradient-20" y1="-8.085" y2="4.076" xlink:href="#linear-gradient"/>
    <linearGradient id="linear-gradient-21" y1="-6.751" y2="5.409" xlink:href="#linear-gradient"/>
  </defs>
  <g id="Grupo_13304" data-name="Grupo 13304" transform="translate(-250 -4360)">
    <circle id="Elipse_667" data-name="Elipse 667" cx="60.5" cy="60.5" r="60.5" transform="translate(250 4360)" opacity="0.75" fill="url(#linear-gradient)"/>
    <g transform="matrix(1, 0, 0, 1, 250, 4360)" filter="url(#Trazado_12155)">
      <path id="Trazado_12155-2" data-name="Trazado 12155" d="M48.393,0A48.393,48.393,0,1,1,0,48.393,48.393,48.393,0,0,1,48.393,0Z" transform="translate(11.96 12.63)" fill="#fff"/>
    </g>
    <g id="protect-money-hands-gear-protection" transform="translate(279 4389)">
      <path id="Trazado_12304" data-name="Trazado 12304" d="M26.341,2.613h2v2h-2Z" transform="translate(-0.004 7.2) rotate(-15.009)" fill="url(#linear-gradient-2)"/>
      <path id="Trazado_12305" data-name="Trazado 12305" d="M22,4.411h2v2H22Z" transform="matrix(0.866, -0.5, 0.5, 0.866, 0.376, 12.226)" fill="url(#linear-gradient-3)"/>
      <path id="Trazado_12306" data-name="Trazado 12306" d="M18.272,7.272h2v2h-2Z" transform="translate(-0.205 16.05) rotate(-45)" fill="url(#linear-gradient-4)"/>
      <path id="Trazado_12307" data-name="Trazado 12307" d="M15.411,11h2v2h-2Z" transform="matrix(0.5, -0.866, 0.866, 0.5, -2.187, 20.212)" fill="url(#linear-gradient-5)"/>
      <path id="Trazado_12308" data-name="Trazado 12308" d="M13.613,15.341h2v2h-2Z" transform="translate(-4.953 26.227) rotate(-74.991)" fill="url(#linear-gradient-6)"/>
      <path id="Trazado_12309" data-name="Trazado 12309" d="M13,20h2v2H13Z" fill="url(#linear-gradient-7)"/>
      <path id="Trazado_12310" data-name="Trazado 12310" d="M31,2h2V4H31Z" fill="url(#linear-gradient-8)"/>
      <path id="Trazado_12311" data-name="Trazado 12311" d="M35.659,2.613h2v2h-2Z" transform="translate(23.681 38.088) rotate(-74.991)" fill="url(#linear-gradient-2)"/>
      <path id="Trazado_12312" data-name="Trazado 12312" d="M40,4.411h2v2H40Z" transform="matrix(0.5, -0.866, 0.866, 0.5, 15.817, 38.215)" fill="url(#linear-gradient-3)"/>
      <path id="Trazado_12313" data-name="Trazado 12313" d="M43.728,7.272h2v2h-2Z" transform="translate(7.251 34.05) rotate(-45)" fill="url(#linear-gradient-4)"/>
      <path id="Trazado_12314" data-name="Trazado 12314" d="M46.589,11h2v2h-2Z" transform="matrix(0.866, -0.5, 0.5, 0.866, 0.374, 25.398)" fill="url(#linear-gradient-5)"/>
      <path id="Trazado_12315" data-name="Trazado 12315" d="M48.387,15.341h2v2h-2Z" transform="translate(-2.547 13.339) rotate(-15.009)" fill="url(#linear-gradient-6)"/>
      <path id="Trazado_12316" data-name="Trazado 12316" d="M49,20h2v2H49Z" fill="url(#linear-gradient-7)"/>
      <path id="Trazado_12317" data-name="Trazado 12317" d="M46,17H42.25l-.18-.42,2.66-2.65a1.008,1.008,0,0,0,0-1.42L40.49,8.27a1.008,1.008,0,0,0-1.42,0l-2.65,2.66L36,10.75V7a1,1,0,0,0-1-1H29a1,1,0,0,0-1,1v3.75l-.42.18L24.93,8.27a1.008,1.008,0,0,0-1.42,0l-4.24,4.24a1.008,1.008,0,0,0,0,1.42l2.66,2.65-.18.42H18a1,1,0,0,0-1,1v6a1,1,0,0,0,1,1h3.75l.18.42-2.66,2.65a1.008,1.008,0,0,0,0,1.42l4.24,4.24a1.008,1.008,0,0,0,1.42,0l2.65-2.66.42.18V35a1,1,0,0,0,1,1h6a1,1,0,0,0,1-1V31.25l.42-.18,2.65,2.66a1.008,1.008,0,0,0,1.42,0l4.24-4.24a1.008,1.008,0,0,0,0-1.42l-2.66-2.65.18-.42H46a1,1,0,0,0,1-1V18a1,1,0,0,0-1-1Zm-1,6H41.54a.987.987,0,0,0-.95.7,9.619,9.619,0,0,1-.61,1.46.989.989,0,0,0,.18,1.17l2.45,2.45-2.83,2.83-2.45-2.45a.989.989,0,0,0-1.17-.18,9.619,9.619,0,0,1-1.46.61.987.987,0,0,0-.7.95V34H30V30.54a.987.987,0,0,0-.7-.95,9.619,9.619,0,0,1-1.46-.61.989.989,0,0,0-1.17.18l-2.45,2.45-2.83-2.83,2.45-2.45a.989.989,0,0,0,.18-1.17,9.619,9.619,0,0,1-.61-1.46.987.987,0,0,0-.95-.7H19V19h3.46a.987.987,0,0,0,.95-.7,9.619,9.619,0,0,1,.61-1.46.989.989,0,0,0-.18-1.17l-2.45-2.45,2.83-2.83,2.45,2.45a.989.989,0,0,0,1.17.18,9.619,9.619,0,0,1,1.46-.61.987.987,0,0,0,.7-.95V8h4v3.46a.987.987,0,0,0,.7.95,9.619,9.619,0,0,1,1.46.61.989.989,0,0,0,1.17-.18l2.45-2.45,2.83,2.83-2.45,2.45a.989.989,0,0,0-.18,1.17,9.618,9.618,0,0,1,.61,1.46.987.987,0,0,0,.95.7H45Z" fill="url(#linear-gradient-15)"/>
      <path id="Trazado_12318" data-name="Trazado 12318" d="M58,2a4,4,0,0,0-4,4V24.36a4.007,4.007,0,0,0-4.37,1.88L43.67,36.57a5.009,5.009,0,0,0-.67,2.5V54H42a1,1,0,0,0-.99.84l-1,6a1.039,1.039,0,0,0,.23.81A1.011,1.011,0,0,0,41,62H59a1.011,1.011,0,0,0,.76-.35,1.039,1.039,0,0,0,.23-.81l-1-6A1,1,0,0,0,58,54H57V48.31a3.029,3.029,0,0,1,.72-1.95l3.08-3.59A5.017,5.017,0,0,0,62,39.52V6a4,4,0,0,0-4-4Zm-.85,54,.67,4H42.18l.67-4ZM60,39.52a3.009,3.009,0,0,1-.72,1.95L56.2,45.06A5.037,5.037,0,0,0,55,48.31V54H45V39.07a3.062,3.062,0,0,1,.4-1.5l5.97-10.33a2,2,0,0,1,3.46,2L48.33,40.5l1.73,1,6.5-11.26A3.992,3.992,0,0,0,56,25.52V6a2,2,0,0,1,4,0Z" fill="url(#linear-gradient-16)"/>
      <path id="Trazado_12319" data-name="Trazado 12319" d="M22.99,54.84A1,1,0,0,0,22,54H21V39.07a5.009,5.009,0,0,0-.67-2.5L14.37,26.24A4.007,4.007,0,0,0,10,24.36V6A4,4,0,0,0,2,6V39.52a5.017,5.017,0,0,0,1.2,3.25l3.08,3.59A3.029,3.029,0,0,1,7,48.31V54H6a1,1,0,0,0-.99.84l-1,6a1.039,1.039,0,0,0,.23.81A1.011,1.011,0,0,0,5,62H23a1.011,1.011,0,0,0,.76-.35,1.039,1.039,0,0,0,.23-.81ZM4.72,41.47A3.009,3.009,0,0,1,4,39.52V6A2,2,0,1,1,8,6V25.52a3.992,3.992,0,0,0-.56,4.72l6.5,11.26,1.73-1L9.17,29.24a2,2,0,0,1,3.46-2L18.6,37.57a3.062,3.062,0,0,1,.4,1.5V54H9V48.31a5.037,5.037,0,0,0-1.2-3.25ZM6.18,60l.67-4h14.3l.67,4Z" fill="url(#linear-gradient-16)"/>
      <g id="Grupo_13174" data-name="Grupo 13174">
        <path id="Trazado_12320" data-name="Trazado 12320" d="M32,18a1,1,0,0,1,1,1,1,1,0,0,0,2,0,3,3,0,0,0-2-2.816V15a1,1,0,0,0-2,0v1.184A2.993,2.993,0,0,0,32,22a1,1,0,1,1-1,1,1,1,0,0,0-2,0,3,3,0,0,0,2,2.816V27a1,1,0,0,0,2,0V25.816A2.993,2.993,0,0,0,32,20a1,1,0,1,1,0-2Z" fill="url(#linear-gradient-18)"/>
        <path id="Trazado_12321" data-name="Trazado 12321" d="M33,54H31v2H29v2h2v2h2V58h2V56H33Z" fill="url(#linear-gradient-19)"/>
        <path id="Trazado_12322" data-name="Trazado 12322" d="M33,46H31v2H29v2h2v2h2V50h2V48H33Z" fill="url(#linear-gradient-20)"/>
        <path id="Trazado_12323" data-name="Trazado 12323" d="M33,38H31v2H29v2h2v2h2V42h2V40H33Z" fill="url(#linear-gradient-21)"/>
      </g>
    </g>
  </g>
</svg>
