<svg xmlns="http://www.w3.org/2000/svg" width="93.219" height="78.903" viewBox="0 0 93.219 78.903">
  <g id="Grupo_13170" data-name="Grupo 13170" transform="translate(-537.781 -4492.163)">
    <path id="Trazado_12264" data-name="Trazado 12264" d="M573.176,4536.751a4.4,4.4,0,0,1-.741-4.631,4.079,4.079,0,0,1,3.777-2.48l9.445-.177,6.506-12.675,2.011,1.032L587.05,4531.7l-10.789.2a1.793,1.793,0,0,0-1.746,1.1,2.132,2.132,0,0,0,.327,2.219Z" fill="#20201d"/>
    <g id="Grupo_13166" data-name="Grupo 13166">
      <path id="Trazado_12265" data-name="Trazado 12265" d="M627.328,4541.546h-2.26V4527c-.095-6.229-4.157-6.384-8.86-6.564-.564-.022-1.121-.043-1.661-.076l.139-2.256c.523.032,1.062.053,1.608.074,4.6.176,10.906.417,11.034,8.805Z" fill="#20201d"/>
    </g>
    <path id="Trazado_12266" data-name="Trazado 12266" d="M611.98,4530.75a1.127,1.127,0,0,1-.95-.517l-3.154-4.882a1.13,1.13,0,0,1,1.9-1.226l3.154,4.882a1.13,1.13,0,0,1-.948,1.743Z" fill="#20201d"/>
    <path id="Trazado_12267" data-name="Trazado 12267" d="M603.02,4510.242c-4.731,0-7.91-3.633-7.91-9.04s3.179-9.039,7.91-9.039,7.909,3.633,7.909,9.039S607.75,4510.242,603.02,4510.242Zm0-15.819c-4.17,0-5.65,3.652-5.65,6.779s1.48,6.78,5.65,6.78,5.65-3.652,5.65-6.78S607.19,4494.423,603.02,4494.423Z" fill="#20201d"/>
    <path id="Trazado_12268" data-name="Trazado 12268" d="M564.506,4538.9l-.479-2.209q1.078-.232,2.213-.447a126.873,126.873,0,0,1,22.953-1.953c4.269,0,8.473.182,12.5.54l-.2,2.251c-3.957-.352-8.094-.531-12.3-.531a124.665,124.665,0,0,0-22.535,1.914Q565.555,4538.676,564.506,4538.9Z" fill="#f87314"/>
    <path id="Trazado_12269" data-name="Trazado 12269" d="M589.193,4559.2c-4.348,0-7.126-.115-11.012-.456l.2-2.251c3.81.334,6.539.447,10.813.447,23.306,0,39.547-5.372,39.547-10.194,0-2.883-6.691-6.927-21.384-8.994l.316-2.238c5.472.77,23.328,3.856,23.328,11.232C631,4554.837,609.46,4559.2,589.193,4559.2Z" fill="#f87314"/>
    <g id="Grupo_13169" data-name="Grupo 13169">
      <g id="Grupo_13168" data-name="Grupo 13168">
        <g id="Grupo_13167" data-name="Grupo 13167">
          <path id="Trazado_12270" data-name="Trazado 12270" d="M578.289,4558.749h-.012a31.939,31.939,0,0,1-9.881-1.414,16.989,16.989,0,0,1-5.43-3.547l1.606-1.588a14.812,14.812,0,0,0,4.57,3,30.138,30.138,0,0,0,9.142,1.288h0a1.969,1.969,0,0,0,1.415-.589,1.93,1.93,0,0,0-1.271-3.283c-.3-.02-.614-.032-.936-.045-2.761-.11-6.541-.26-9.194-4.808-.538-.923-1.038-1.994-1.567-3.129-1.971-4.231-4.2-9.025-9.814-9.728H551.34c-6.547,0-11.3,5.227-11.3,12.429v2.26h-2.26v-2.26c0-8.374,5.829-14.689,13.559-14.689h5.65a1.215,1.215,0,0,1,.133.008c6.908.822,9.655,6.72,11.661,11.026.506,1.086.984,2.111,1.47,2.944,2.028,3.478,4.724,3.585,7.331,3.689.343.013.675.027.994.047a4.2,4.2,0,0,1-.29,8.387Z" fill="#20201d"/>
          <path id="Trazado_12271" data-name="Trazado 12271" d="M554.73,4530.388c-4.731,0-7.91-3.632-7.91-9.039s3.179-9.04,7.91-9.04,7.909,3.633,7.909,9.04S559.46,4530.388,554.73,4530.388Zm0-15.819c-4.17,0-5.65,3.652-5.65,6.78s1.48,6.779,5.65,6.779,5.649-3.652,5.649-6.779S558.9,4514.569,554.73,4514.569Z" fill="#20201d"/>
        </g>
      </g>
      <path id="Trazado_12272" data-name="Trazado 12272" d="M569.419,4571.066H547.95a10.181,10.181,0,0,1-10.169-10.17v-11.668a6.418,6.418,0,0,1,6.411-6.411h10.53a10.189,10.189,0,0,1,10.177,10.177v7.9c0,5.416,4.823,7.926,5.029,8.03a1.131,1.131,0,0,1-.509,2.14Zm-25.227-25.989a4.155,4.155,0,0,0-4.151,4.151V4560.9a7.918,7.918,0,0,0,7.909,7.91h18.09a10.933,10.933,0,0,1-3.4-7.91v-7.9a7.926,7.926,0,0,0-7.917-7.917Z" fill="#20201d"/>
      <path id="Trazado_12273" data-name="Trazado 12273" d="M578.458,4571.066H559.249v-2.26h17.966a5.659,5.659,0,0,0-5.536-4.52H564.9v-2.26h6.779a7.918,7.918,0,0,1,7.909,7.91A1.129,1.129,0,0,1,578.458,4571.066Z" fill="#20201d"/>
    </g>
    <path id="Trazado_12274" data-name="Trazado 12274" d="M602.963,4537.737a3.5,3.5,0,0,1-3.167-3.413,3.736,3.736,0,0,1,3.184-4.366l10.623-1.438a1.13,1.13,0,1,1,.3,2.239l-10.62,1.438a1.541,1.541,0,0,0-1.243,1.876c.075.679.453,1.389.951,1.4l15.86-.051a2.866,2.866,0,0,0,1.858-1.74,3.093,3.093,0,0,0,.039-2.589l-6.655-10.117c-1.835-2.842-4.849-6.219-8.815-6.219h-5.65c-2.212,0-6.779,1.933-6.779,7.909,0,.006-.013,3.9,0,12.428a1.13,1.13,0,0,1-1.129,1.131h0a1.13,1.13,0,0,1-1.13-1.128c-.012-8.541,0-12.434,0-12.434,0-7.011,5.285-10.166,9.039-10.166h5.65c3.943,0,7.647,2.5,10.709,7.245l6.661,10.126a5.243,5.243,0,0,1,.144,4.693,5.052,5.052,0,0,1-3.575,3.1l-.231.025Z" fill="#20201d"/>
  </g>
</svg>
