<svg xmlns="http://www.w3.org/2000/svg" width="74.107" height="60.938" viewBox="0 0 74.107 60.938">
  <g id="Grupo_13163" data-name="Grupo 13163" transform="translate(-235.284 -4640.305)">
    <path id="Trazado_12242" data-name="Trazado 12242" d="M261.8,4692.234a3.4,3.4,0,0,1,3.4-3.408h14.284a3.394,3.394,0,0,1,3.4,3.408v4.014c0,1.935-4.7,3.493-10.538,3.493s-10.537-1.558-10.538-3.493Z" fill="none" stroke="#1a1a1a" stroke-linejoin="round" stroke-width="3.004" fill-rule="evenodd"/>
    <path id="Trazado_12243" data-name="Trazado 12243" d="M278,4679.789a5.676,5.676,0,1,1-1.659-4.024A5.677,5.677,0,0,1,278,4679.789Z" fill="none" stroke="#1a1a1a" stroke-linejoin="round" stroke-width="3.004" fill-rule="evenodd"/>
    <path id="Trazado_12244" data-name="Trazado 12244" d="M236.786,4659.942a3.393,3.393,0,0,1,3.4-3.407h14.284a3.394,3.394,0,0,1,3.4,3.407v4.014c0,1.936-4.7,3.494-10.538,3.494s-10.538-1.558-10.538-3.494Z" fill="none" stroke="#1a1a1a" stroke-linejoin="round" stroke-width="3.004" fill-rule="evenodd"/>
    <path id="Trazado_12245" data-name="Trazado 12245" d="M252.987,4647.5a5.658,5.658,0,1,1-5.663-5.69A5.677,5.677,0,0,1,252.987,4647.5Z" fill="none" stroke="#1a1a1a" stroke-linejoin="round" stroke-width="3.004" fill-rule="evenodd"/>
    <path id="Trazado_12246" data-name="Trazado 12246" d="M286.813,4659.942a3.394,3.394,0,0,1,3.4-3.407h14.284a3.394,3.394,0,0,1,3.4,3.407v4.014c0,1.936-4.7,3.494-10.538,3.494s-10.538-1.558-10.538-3.494Z" fill="none" stroke="#1a1a1a" stroke-linejoin="round" stroke-width="3.004" fill-rule="evenodd"/>
    <path id="Trazado_12247" data-name="Trazado 12247" d="M303.014,4647.5a5.663,5.663,0,1,1-5.663-5.69,5.677,5.677,0,0,1,5.663,5.69" fill="none" stroke="#1a1a1a" stroke-linejoin="round" stroke-width="3.004" fill-rule="evenodd"/>
    <path id="Trazado_12248" data-name="Trazado 12248" d="M297.167,4674.086a25.638,25.638,0,0,1-6.653,11.5" fill="none" stroke="#f87314" stroke-linejoin="round" stroke-width="3.004" fill-rule="evenodd"/>
    <path id="Trazado_12249" data-name="Trazado 12249" d="M259.485,4645.243a25.757,25.757,0,0,1,25.705,0" fill="none" stroke="#f87314" stroke-linejoin="round" stroke-width="3.004" fill-rule="evenodd"/>
    <path id="Trazado_12250" data-name="Trazado 12250" d="M254.161,4685.582a25.629,25.629,0,0,1-6.653-11.5" fill="none" stroke="#f87314" stroke-linejoin="round" stroke-width="3.004" fill-rule="evenodd"/>
  </g>
</svg>
