<svg xmlns="http://www.w3.org/2000/svg" xmlns:xlink="http://www.w3.org/1999/xlink" width="121" height="121.413" viewBox="0 0 121 121.413">
  <defs>
    <linearGradient id="linear-gradient" x1="0.5" x2="0.5" y2="1" gradientUnits="objectBoundingBox">
      <stop offset="0" stop-color="#fff33b"/>
      <stop offset="0.014" stop-color="#fee72e"/>
      <stop offset="0.042" stop-color="#fed51b"/>
      <stop offset="0.07" stop-color="#fdca10"/>
      <stop offset="0.1" stop-color="#fdc70c"/>
      <stop offset="0.4" stop-color="#f3903f"/>
      <stop offset="0.8" stop-color="#ed683c"/>
      <stop offset="1" stop-color="#e93e3a"/>
    </linearGradient>
    <filter id="Trazado_12155" x="2.96" y="6.626" width="114.787" height="114.787" filterUnits="userSpaceOnUse">
      <feOffset dy="3" input="SourceAlpha"/>
      <feGaussianBlur stdDeviation="3" result="blur"/>
      <feFlood flood-opacity="0.161"/>
      <feComposite operator="in" in2="blur"/>
      <feComposite in="SourceGraphic"/>
    </filter>
    <linearGradient id="linear-gradient-2" y1="-0.536" y2="1.201" xlink:href="#linear-gradient"/>
    <linearGradient id="linear-gradient-3" y1="-0.162" y2="2.446" xlink:href="#linear-gradient"/>
    <linearGradient id="linear-gradient-4" y1="-0.15" y2="2.282" xlink:href="#linear-gradient"/>
    <linearGradient id="linear-gradient-5" y1="-0.387" y2="2.93" xlink:href="#linear-gradient"/>
    <linearGradient id="linear-gradient-6" y1="-20.253" y2="16.228" xlink:href="#linear-gradient"/>
    <linearGradient id="linear-gradient-8" y1="-23.253" y2="13.227" xlink:href="#linear-gradient"/>
    <linearGradient id="linear-gradient-10" y1="-26.253" y2="10.227" xlink:href="#linear-gradient"/>
    <linearGradient id="linear-gradient-12" y1="-29.253" y2="7.227" xlink:href="#linear-gradient"/>
  </defs>
  <g id="Grupo_13305" data-name="Grupo 13305" transform="translate(-250 -4673)">
    <circle id="Elipse_667" data-name="Elipse 667" cx="60.5" cy="60.5" r="60.5" transform="translate(250 4673)" opacity="0.75" fill="url(#linear-gradient)"/>
    <g transform="matrix(1, 0, 0, 1, 250, 4673)" filter="url(#Trazado_12155)">
      <path id="Trazado_12155-2" data-name="Trazado 12155" d="M48.393,0A48.393,48.393,0,1,1,0,48.393,48.393,48.393,0,0,1,48.393,0Z" transform="translate(11.96 12.63)" fill="#fff"/>
    </g>
    <g id="success-hand-arrow_up-business-finance" data-name="success-hand-arrow up-business-finance" transform="translate(278 4700)">
      <path id="Trazado_12275" data-name="Trazado 12275" d="M59,34H55a3.01,3.01,0,0,0-2.82,2H47a3.009,3.009,0,0,1-3-3V25a5,5,0,0,0-10,0V36H24a3.985,3.985,0,0,0-2.62,7,3.951,3.951,0,0,0,0,6A3.985,3.985,0,0,0,24,56h.56A3.906,3.906,0,0,0,24,58a4,4,0,0,0,4,4H39a.659.659,0,0,0,.14-.01l13.08-1.87A3.006,3.006,0,0,0,55,62h4a3.009,3.009,0,0,0,3-3V37a3.009,3.009,0,0,0-3-3ZM52,58.13,38.93,60H28a2,2,0,0,1,0-4h7V54H24a2,2,0,0,1,0-4H35V48H24a2,2,0,0,1,0-4H35V42H24a2,2,0,0,1,0-4H35a1,1,0,0,0,1-1V25a3,3,0,0,1,6,0v8a5,5,0,0,0,5,5h5ZM60,59a1,1,0,0,1-1,1H55a1,1,0,0,1-1-1V37a1,1,0,0,1,1-1h4a1,1,0,0,1,1,1Z" fill="url(#linear-gradient-2)"/>
      <path id="Trazado_12276" data-name="Trazado 12276" d="M61.8,10.4l-6-8a1.041,1.041,0,0,0-1.6,0l-6,8A1,1,0,0,0,49,12h2V29a1,1,0,0,0,1,1h6a1,1,0,0,0,1-1V12h2a1,1,0,0,0,.8-1.6ZM58,10a1,1,0,0,0-1,1V28H53V11a1,1,0,0,0-1-1H51l4-5.33L59,10Z" fill="url(#linear-gradient-3)"/>
      <path id="Trazado_12277" data-name="Trazado 12277" d="M17,2A15,15,0,1,0,32,17,15,15,0,0,0,17,2Zm0,28A13,13,0,1,1,30,17,13,13,0,0,1,17,30Z" fill="url(#linear-gradient-4)"/>
      <path id="Trazado_12278" data-name="Trazado 12278" d="M22,21a5.017,5.017,0,0,1-4,4.9V27a1,1,0,0,1-2,0V25.9A5.017,5.017,0,0,1,12,21a1,1,0,0,1,2,0,3,3,0,1,0,3-3,5,5,0,0,1-1-9.9V7a1,1,0,0,1,2,0V8.1A5.017,5.017,0,0,1,22,13a1,1,0,0,1-2,0,3,3,0,1,0-3,3,5,5,0,0,1,5,5Z" fill="url(#linear-gradient-5)"/>
      <path id="Trazado_12279" data-name="Trazado 12279" d="M2,38H6v2H2Z" fill="url(#linear-gradient-6)"/>
      <path id="Trazado_12280" data-name="Trazado 12280" d="M8,38h8v2H8Z" fill="url(#linear-gradient-6)"/>
      <path id="Trazado_12281" data-name="Trazado 12281" d="M2,44H6v2H2Z" fill="url(#linear-gradient-8)"/>
      <path id="Trazado_12282" data-name="Trazado 12282" d="M8,44h8v2H8Z" fill="url(#linear-gradient-8)"/>
      <path id="Trazado_12283" data-name="Trazado 12283" d="M2,50H6v2H2Z" fill="url(#linear-gradient-10)"/>
      <path id="Trazado_12284" data-name="Trazado 12284" d="M8,50h8v2H8Z" fill="url(#linear-gradient-10)"/>
      <path id="Trazado_12285" data-name="Trazado 12285" d="M2,56H6v2H2Z" fill="url(#linear-gradient-12)"/>
      <path id="Trazado_12286" data-name="Trazado 12286" d="M8,56h8v2H8Z" fill="url(#linear-gradient-12)"/>
    </g>
  </g>
</svg>
