<svg xmlns="http://www.w3.org/2000/svg" xmlns:xlink="http://www.w3.org/1999/xlink" width="121" height="121.413" viewBox="0 0 121 121.413">
  <defs>
    <linearGradient id="linear-gradient" x1="0.5" x2="0.5" y2="1" gradientUnits="objectBoundingBox">
      <stop offset="0" stop-color="#fff33b"/>
      <stop offset="0.014" stop-color="#fee72e"/>
      <stop offset="0.042" stop-color="#fed51b"/>
      <stop offset="0.07" stop-color="#fdca10"/>
      <stop offset="0.1" stop-color="#fdc70c"/>
      <stop offset="0.4" stop-color="#f3903f"/>
      <stop offset="0.8" stop-color="#ed683c"/>
      <stop offset="1" stop-color="#e93e3a"/>
    </linearGradient>
    <filter id="Trazado_12324" x="2.96" y="6.626" width="114.787" height="114.787" filterUnits="userSpaceOnUse">
      <feOffset dy="3" input="SourceAlpha"/>
      <feGaussianBlur stdDeviation="3" result="blur"/>
      <feFlood flood-opacity="0.161"/>
      <feComposite operator="in" in2="blur"/>
      <feComposite in="SourceGraphic"/>
    </filter>
    <linearGradient id="linear-gradient-2" y1="-0.097" y2="5.273" xlink:href="#linear-gradient"/>
    <linearGradient id="linear-gradient-3" y1="-0.246" y2="13.442" xlink:href="#linear-gradient"/>
    <linearGradient id="linear-gradient-4" y1="-0.579" y2="31.635" xlink:href="#linear-gradient"/>
    <linearGradient id="linear-gradient-7" y1="-3.579" y2="28.635" xlink:href="#linear-gradient"/>
    <linearGradient id="linear-gradient-10" y1="-6.894" y2="6.793" xlink:href="#linear-gradient"/>
    <linearGradient id="linear-gradient-11" y1="-17.579" y2="14.635" xlink:href="#linear-gradient"/>
    <linearGradient id="linear-gradient-12" y1="-14.579" y2="17.635" xlink:href="#linear-gradient"/>
    <linearGradient id="linear-gradient-13" y1="-0.092" y2="1.058" xlink:href="#linear-gradient"/>
    <linearGradient id="linear-gradient-14" y1="-1.064" y2="2.515" xlink:href="#linear-gradient"/>
    <linearGradient id="linear-gradient-15" y1="-4.632" y2="8.254" xlink:href="#linear-gradient"/>
    <linearGradient id="linear-gradient-16" y1="-23.579" y2="8.635" xlink:href="#linear-gradient"/>
    <linearGradient id="linear-gradient-17" y1="-8.526" y2="2.212" xlink:href="#linear-gradient"/>
  </defs>
  <g id="Grupo_13312" data-name="Grupo 13312" transform="translate(-250 -8593)">
    <g id="Grupo_13180" data-name="Grupo 13180" transform="translate(0 1894)">
      <circle id="Elipse_668" data-name="Elipse 668" cx="60.5" cy="60.5" r="60.5" transform="translate(250 6699)" opacity="0.75" fill="url(#linear-gradient)"/>
      <g transform="matrix(1, 0, 0, 1, 250, 6699)" filter="url(#Trazado_12324)">
        <path id="Trazado_12324-2" data-name="Trazado 12324" d="M48.393,0A48.393,48.393,0,1,1,0,48.393,48.393,48.393,0,0,1,48.393,0Z" transform="translate(11.96 12.63)" fill="#fff"/>
      </g>
    </g>
    <g id="Data_analysis-research-analysis-report-presentation" data-name="Data analysis-research-analysis-report-presentation" transform="translate(278 8625)">
      <path id="Trazado_12569" data-name="Trazado 12569" d="M34,14H44a1,1,0,0,0,1-1A11.013,11.013,0,0,0,34,2a1,1,0,0,0-1,1V13A1,1,0,0,0,34,14Zm1-9.945A9.02,9.02,0,0,1,42.945,12H35Z" fill="url(#linear-gradient-2)"/>
      <path id="Trazado_12570" data-name="Trazado 12570" d="M49.414,4H56V2H49a1,1,0,0,0-.707.293l-3,3,1.414,1.414Z" fill="url(#linear-gradient-3)"/>
      <path id="Trazado_12571" data-name="Trazado 12571" d="M58,2h4V4H58Z" fill="url(#linear-gradient-4)"/>
      <path id="Trazado_12572" data-name="Trazado 12572" d="M17.293,6.707l1.414-1.414-3-3A1,1,0,0,0,15,2H8V4h6.586Z" fill="url(#linear-gradient-3)"/>
      <path id="Trazado_12573" data-name="Trazado 12573" d="M2,2H6V4H2Z" fill="url(#linear-gradient-4)"/>
      <path id="Trazado_12574" data-name="Trazado 12574" d="M50,8h8v2H50Z" fill="url(#linear-gradient-7)"/>
      <path id="Trazado_12575" data-name="Trazado 12575" d="M60,8h2v2H60Z" fill="url(#linear-gradient-7)"/>
      <path id="Trazado_12576" data-name="Trazado 12576" d="M2,8H14v2H2Z" fill="url(#linear-gradient-7)"/>
      <path id="Trazado_12577" data-name="Trazado 12577" d="M25.586,36H19v2h7a1,1,0,0,0,.707-.293l3-3-1.414-1.414Z" fill="url(#linear-gradient-10)"/>
      <path id="Trazado_12578" data-name="Trazado 12578" d="M13,36h4v2H13Z" fill="url(#linear-gradient-11)"/>
      <path id="Trazado_12579" data-name="Trazado 12579" d="M13,30H25v2H13Z" fill="url(#linear-gradient-12)"/>
      <path id="Trazado_12580" data-name="Trazado 12580" d="M62,29A12.987,12.987,0,0,0,40.82,18.91,10.942,10.942,0,0,0,41,17a1,1,0,0,0-1-1H31V7a1,1,0,0,0-1-1,11.011,11.011,0,0,0-10.57,8H14a5,5,0,0,0-5,5V45a5,5,0,0,0,5,5H28v6H25a3.009,3.009,0,0,0-3,3v2a1,1,0,0,0,1,1H41a1,1,0,0,0,1-1V59a3.009,3.009,0,0,0-3-3H36V50h8v7a5,5,0,1,0,10,0V45a1,1,0,0,0-1-1H52V41.64A13.025,13.025,0,0,0,62,29ZM29,8.06V17a1,1,0,0,0,1,1h8.94A9,9,0,1,1,29,8.06ZM39,58a1,1,0,0,1,1,1v1H24V59a1,1,0,0,1,1-1Zm-9-2V50h4v6ZM45,44a1,1,0,0,0-1,1v3H14a3.009,3.009,0,0,1-3-3V44H42V42H11V19a3.009,3.009,0,0,1,3-3h5.05c-.03.33-.05.66-.05,1a10.989,10.989,0,0,0,17.38,8.95A12.8,12.8,0,0,0,36,29,13.025,13.025,0,0,0,46,41.64V44Zm7,13a3,3,0,0,1-6,0V46h6ZM48,44V41.95c.33.02.66.05,1,.05s.67-.03,1-.05V44Zm1-4A11,11,0,1,1,60,29,11,11,0,0,1,49,40Z" fill="url(#linear-gradient-13)"/>
      <path id="Trazado_12581" data-name="Trazado 12581" d="M49,20a9,9,0,1,0,9,9A9,9,0,0,0,49,20Zm0,16a7,7,0,1,1,7-7,7,7,0,0,1-7,7Z" fill="url(#linear-gradient-14)"/>
      <path id="Trazado_12582" data-name="Trazado 12582" d="M44,29h2a3,3,0,0,1,3-3V24A5.006,5.006,0,0,0,44,29Z" fill="url(#linear-gradient-15)"/>
      <g id="Grupo_13300" data-name="Grupo 13300">
        <path id="Trazado_12583" data-name="Trazado 12583" d="M48,48h2v2H48Z" fill="url(#linear-gradient-16)"/>
        <path id="Trazado_12584" data-name="Trazado 12584" d="M48,52h2v6H48Z" fill="url(#linear-gradient-17)"/>
      </g>
    </g>
  </g>
</svg>
