<svg xmlns="http://www.w3.org/2000/svg" xmlns:xlink="http://www.w3.org/1999/xlink" width="121" height="121.413" viewBox="0 0 121 121.413">
  <defs>
    <linearGradient id="linear-gradient" x1="0.5" x2="0.5" y2="1" gradientUnits="objectBoundingBox">
      <stop offset="0" stop-color="#fff33b"/>
      <stop offset="0.014" stop-color="#fee72e"/>
      <stop offset="0.042" stop-color="#fed51b"/>
      <stop offset="0.07" stop-color="#fdca10"/>
      <stop offset="0.1" stop-color="#fdc70c"/>
      <stop offset="0.4" stop-color="#f3903f"/>
      <stop offset="0.8" stop-color="#ed683c"/>
      <stop offset="1" stop-color="#e93e3a"/>
    </linearGradient>
    <filter id="Trazado_12324" x="2.96" y="6.626" width="114.787" height="114.787" filterUnits="userSpaceOnUse">
      <feOffset dy="3" input="SourceAlpha"/>
      <feGaussianBlur stdDeviation="3" result="blur"/>
      <feFlood flood-opacity="0.161"/>
      <feComposite operator="in" in2="blur"/>
      <feComposite in="SourceGraphic"/>
    </filter>
    <linearGradient id="linear-gradient-2" y1="-5.097" y2="11.88" xlink:href="#linear-gradient"/>
    <linearGradient id="linear-gradient-4" y1="-6.597" y2="10.38" xlink:href="#linear-gradient"/>
    <linearGradient id="linear-gradient-6" y1="-8.097" y2="8.88" xlink:href="#linear-gradient"/>
    <linearGradient id="linear-gradient-8" y1="-9.597" y2="7.38" xlink:href="#linear-gradient"/>
    <linearGradient id="linear-gradient-17" y1="-0.073" y2="1.059" xlink:href="#linear-gradient"/>
    <linearGradient id="linear-gradient-18" y1="-1.649" y2="2.595" xlink:href="#linear-gradient"/>
    <linearGradient id="linear-gradient-20" y1="-0.524" y2="3.72" xlink:href="#linear-gradient"/>
    <linearGradient id="linear-gradient-21" y1="-2.231" y2="9.087" xlink:href="#linear-gradient"/>
  </defs>
  <g id="Grupo_13307" data-name="Grupo 13307" transform="translate(-250 -6711)">
    <g id="Grupo_13175" data-name="Grupo 13175" transform="translate(0 12)">
      <circle id="Elipse_668" data-name="Elipse 668" cx="60.5" cy="60.5" r="60.5" transform="translate(250 6699)" opacity="0.75" fill="url(#linear-gradient)"/>
      <g transform="matrix(1, 0, 0, 1, 250, 6699)" filter="url(#Trazado_12324)">
        <path id="Trazado_12324-2" data-name="Trazado 12324" d="M48.393,0A48.393,48.393,0,1,1,0,48.393,48.393,48.393,0,0,1,48.393,0Z" transform="translate(11.96 12.63)" fill="#fff"/>
      </g>
    </g>
    <g id="Hospital-Medical-Building-Center-Health_care" data-name="Hospital-Medical-Building-Center-Health care" transform="translate(279 6739.995)">
      <path id="Trazado_12523" data-name="Trazado 12523" d="M9,18H7a1,1,0,0,0-1,1v2a1,1,0,0,0,2,0V20H9a1,1,0,0,0,0-2Z" fill="url(#linear-gradient-2)"/>
      <path id="Trazado_12524" data-name="Trazado 12524" d="M16,18H14a1,1,0,0,0-1,1v2a1,1,0,0,0,2,0V20h1a1,1,0,0,0,0-2Z" fill="url(#linear-gradient-2)"/>
      <path id="Trazado_12525" data-name="Trazado 12525" d="M9,24H7a1,1,0,0,0-1,1v2a1,1,0,0,0,2,0V26H9a1,1,0,0,0,0-2Z" fill="url(#linear-gradient-4)"/>
      <path id="Trazado_12526" data-name="Trazado 12526" d="M16,24H14a1,1,0,0,0-1,1v2a1,1,0,0,0,2,0V26h1a1,1,0,0,0,0-2Z" fill="url(#linear-gradient-4)"/>
      <path id="Trazado_12527" data-name="Trazado 12527" d="M9,30H7a1,1,0,0,0-1,1v2a1,1,0,0,0,2,0V32H9a1,1,0,0,0,0-2Z" fill="url(#linear-gradient-6)"/>
      <path id="Trazado_12528" data-name="Trazado 12528" d="M16,30H14a1,1,0,0,0-1,1v2a1,1,0,0,0,2,0V32h1a1,1,0,0,0,0-2Z" fill="url(#linear-gradient-6)"/>
      <path id="Trazado_12529" data-name="Trazado 12529" d="M9,36H7a1,1,0,0,0-1,1v2a1,1,0,0,0,2,0V38H9a1,1,0,0,0,0-2Z" fill="url(#linear-gradient-8)"/>
      <path id="Trazado_12530" data-name="Trazado 12530" d="M48,22a1,1,0,0,0,1-1V20h1a1,1,0,0,0,0-2H48a1,1,0,0,0-1,1v2A1,1,0,0,0,48,22Z" fill="url(#linear-gradient-2)"/>
      <path id="Trazado_12531" data-name="Trazado 12531" d="M55,22a1,1,0,0,0,1-1V20h1a1,1,0,0,0,0-2H55a1,1,0,0,0-1,1v2A1,1,0,0,0,55,22Z" fill="url(#linear-gradient-2)"/>
      <path id="Trazado_12532" data-name="Trazado 12532" d="M48,28a1,1,0,0,0,1-1V26h1a1,1,0,0,0,0-2H48a1,1,0,0,0-1,1v2A1,1,0,0,0,48,28Z" fill="url(#linear-gradient-4)"/>
      <path id="Trazado_12533" data-name="Trazado 12533" d="M55,28a1,1,0,0,0,1-1V26h1a1,1,0,0,0,0-2H55a1,1,0,0,0-1,1v2A1,1,0,0,0,55,28Z" fill="url(#linear-gradient-4)"/>
      <path id="Trazado_12534" data-name="Trazado 12534" d="M48,34a1,1,0,0,0,1-1V32h1a1,1,0,0,0,0-2H48a1,1,0,0,0-1,1v2A1,1,0,0,0,48,34Z" fill="url(#linear-gradient-6)"/>
      <path id="Trazado_12535" data-name="Trazado 12535" d="M55,34a1,1,0,0,0,1-1V32h1a1,1,0,0,0,0-2H55a1,1,0,0,0-1,1v2A1,1,0,0,0,55,34Z" fill="url(#linear-gradient-6)"/>
      <path id="Trazado_12536" data-name="Trazado 12536" d="M48,40a1,1,0,0,0,1-1V38h1a1,1,0,0,0,0-2H48a1,1,0,0,0-1,1v2A1,1,0,0,0,48,40Z" fill="url(#linear-gradient-8)"/>
      <path id="Trazado_12537" data-name="Trazado 12537" d="M55,40a1,1,0,0,0,1-1V38h1a1,1,0,0,0,0-2H55a1,1,0,0,0-1,1v2A1,1,0,0,0,55,40Z" fill="url(#linear-gradient-8)"/>
      <path id="Trazado_12538" data-name="Trazado 12538" d="M61,14H44.95a12.988,12.988,0,0,0-25.9,0H3a1,1,0,0,0-1,1V55a1,1,0,0,0,1,1h8v.67L8.2,60.4A1,1,0,0,0,9,62h6a1,1,0,0,0,.8-1.6L13,56.67V56h6v5a1,1,0,0,0,1,1H44a1,1,0,0,0,1-1V56h6v.67L48.2,60.4A1,1,0,0,0,49,62h6a1,1,0,0,0,.8-1.6L53,56.67V56h8a1,1,0,0,0,1-1V15A1,1,0,0,0,61,14ZM11,60l1-1.33L13,60Zm1-10a3,3,0,1,1,3-3,3,3,0,0,1-3,3Zm7,4H13V51.9a5,5,0,1,0-2,0V54H4V16H19Zm16,6H29V49a3,3,0,0,1,6,0Zm8,0H37V49a5,5,0,0,0-10,0V60H21V15a11,11,0,1,1,22,0Zm8,0,1-1.33L53,60Zm1-10a3,3,0,1,1,3-3,3,3,0,0,1-3,3Zm8,4H53V51.9a5,5,0,1,0-2,0V54H45V16H60Z" fill="url(#linear-gradient-17)"/>
      <path id="Trazado_12539" data-name="Trazado 12539" d="M36,24a4.994,4.994,0,0,0-4,2.03A4.985,4.985,0,0,0,23,29V39a1,1,0,0,0,1,1H40a1,1,0,0,0,1-1V29a5,5,0,0,0-5-5ZM31,38H25V29a3,3,0,0,1,6,0Zm8,0H33V29a3,3,0,0,1,6,0Z" fill="url(#linear-gradient-18)"/>
      <path id="Trazado_12540" data-name="Trazado 12540" d="M17,37a1,1,0,0,1-1,1H15v1a1,1,0,0,1-2,0V37a1,1,0,0,1,1-1h2A1,1,0,0,1,17,37Z" fill="url(#linear-gradient-8)"/>
      <g id="Grupo_13299" data-name="Grupo 13299">
        <path id="Trazado_12541" data-name="Trazado 12541" d="M32,6a8,8,0,1,0,8,8,8,8,0,0,0-8-8Zm0,14a6,6,0,1,1,6-6A6,6,0,0,1,32,20Z" fill="url(#linear-gradient-20)"/>
        <path id="Trazado_12542" data-name="Trazado 12542" d="M35,12v4a1,1,0,0,1-2,0V15H31v1a1,1,0,0,1-2,0V12a1,1,0,0,1,2,0v1h2V12a1,1,0,0,1,2,0Z" fill="url(#linear-gradient-21)"/>
      </g>
    </g>
  </g>
</svg>
