<svg xmlns="http://www.w3.org/2000/svg" xmlns:xlink="http://www.w3.org/1999/xlink" width="60" height="60" viewBox="0 0 60 60">
  <defs>
    <linearGradient id="linear-gradient" x1="0.5" y1="-0.059" x2="0.5" y2="1.041" gradientUnits="objectBoundingBox">
      <stop offset="0" stop-color="#fff33b"/>
      <stop offset="0.014" stop-color="#fee72e"/>
      <stop offset="0.042" stop-color="#fed51b"/>
      <stop offset="0.07" stop-color="#fdca10"/>
      <stop offset="0.1" stop-color="#fdc70c"/>
      <stop offset="0.4" stop-color="#f3903f"/>
      <stop offset="0.8" stop-color="#ed683c"/>
      <stop offset="1" stop-color="#e93e3a"/>
    </linearGradient>
    <linearGradient id="linear-gradient-2" y1="-0.865" y2="3.517" xlink:href="#linear-gradient"/>
    <linearGradient id="linear-gradient-3" y1="-0.291" y2="2.248" xlink:href="#linear-gradient"/>
  </defs>
  <g id="pharmacy-drug-desk-pharmacist-apothecary" transform="translate(-2 -2)">
    <path id="Trazado_12553" data-name="Trazado 12553" d="M61,36a1,1,0,0,0,1-1V3a1,1,0,0,0-1-1H3A1,1,0,0,0,2,3V35a1,1,0,0,0,1,1H8.1a5,5,0,0,0,1.33,2.49A7.019,7.019,0,0,0,5,45v5H3a1,1,0,0,0-1,1v4a1,1,0,0,0,1,1H5v5a1,1,0,0,0,1,1H58a1,1,0,0,0,1-1V56h2a1,1,0,0,0,1-1V51a1,1,0,0,0-1-1H59V45a7.019,7.019,0,0,0-4.43-6.51A5,5,0,0,0,55.9,36ZM7,45a5.017,5.017,0,0,1,4-4.9V45a1.033,1.033,0,0,0,.29.71l2,2a1.014,1.014,0,0,0,1.42,0l2-2A1.033,1.033,0,0,0,17,45V40.1A5.017,5.017,0,0,1,21,45v5H7Zm8.91-12.98,2.09.7V35a3.009,3.009,0,0,1-3,3H13a3.009,3.009,0,0,1-3-3V32.87Zm-5.89-1.18A2.988,2.988,0,0,1,13,28h2a3,3,0,0,1,2.96,2.6l-1.64-.55a1.032,1.032,0,0,0-.46-.04ZM15,40v4.59l-1,1-1-1V40Zm3.57-1.51A5,5,0,0,0,19.9,36H44.1a5,5,0,0,0,1.33,2.49A7.019,7.019,0,0,0,41,45v5H23V45a7.019,7.019,0,0,0-4.43-6.51ZM57,60H7V56H57Zm3-8v2H4V52Zm-3-7v5H43V45a5.017,5.017,0,0,1,4-4.9V45a1.033,1.033,0,0,0,.29.71l2,2a1.014,1.014,0,0,0,1.42,0l2-2A1.033,1.033,0,0,0,53,45V40.1A5.017,5.017,0,0,1,57,45ZM51.91,32.02l2.09.7V35a3.009,3.009,0,0,1-3,3H49a3.009,3.009,0,0,1-3-3V32.87Zm-5.89-1.18A2.988,2.988,0,0,1,49,28h2a3,3,0,0,1,2.96,2.6l-1.64-.55a1.032,1.032,0,0,0-.46-.04ZM51,40v4.59l-1,1-1-1V40Zm0-14H49a5,5,0,0,0-5,5v3H20V31a5,5,0,0,0-5-5H13a5,5,0,0,0-5,5v3H4V4H60V34H56V31a5,5,0,0,0-5-5Z" fill="url(#linear-gradient)"/>
    <path id="Trazado_12554" data-name="Trazado 12554" d="M28.465,26.534a3.987,3.987,0,0,0,2.828-1.17l7.071-7.071a4,4,0,0,0-5.657-5.657l-7.071,7.071a4,4,0,0,0,2.829,6.827ZM34.121,14.05a2,2,0,1,1,2.829,2.829l-2.829,2.828-2.828-2.828ZM27.05,21.121l2.829-2.828,2.828,2.828L29.879,23.95a2,2,0,0,1-2.829-2.829Z" fill="url(#linear-gradient-2)"/>
    <path id="Trazado_12555" data-name="Trazado 12555" d="M32,32A13,13,0,1,0,19,19,13,13,0,0,0,32,32ZM32,8A11,11,0,1,1,21,19,11,11,0,0,1,32,8Z" fill="url(#linear-gradient-3)"/>
  </g>
</svg>
