<svg xmlns="http://www.w3.org/2000/svg" xmlns:xlink="http://www.w3.org/1999/xlink" width="463" height="286" viewBox="0 0 463 286">
  <defs>
    <linearGradient id="linear-gradient" x1="0.5" y1="1" x2="0.5" gradientUnits="objectBoundingBox">
      <stop offset="0.248" stop-color="#f4e9d4"/>
      <stop offset="1" stop-color="#e0cdaf"/>
    </linearGradient>
    <clipPath id="clip-path">
      <rect id="SVGID" width="205.766" height="226.573" transform="translate(754.808 -736)" fill="none"/>
    </clipPath>
  </defs>
  <g id="Grupo_12905" data-name="Grupo 12905" transform="translate(-644 736)">
    <path id="Trazado_11522" data-name="Trazado 11522" d="M1023.712-512H744.33L644-450h463Z" fill="url(#linear-gradient)"/>
    <path id="Trazado_11523" data-name="Trazado 11523" d="M711.428-543.048a6.976,6.976,0,0,0-6.07,3.535,10.115,10.115,0,0,0-9.63-7.024q-.246,0-.489.012a10.817,10.817,0,0,0-10.676-9.083,10.815,10.815,0,0,0-10.815,10.816,10.82,10.82,0,0,0,.393,2.9,9.048,9.048,0,0,0-2.836-.456,9.057,9.057,0,0,0-2.838.457A12.56,12.56,0,0,0,657-549.328a12.56,12.56,0,0,0-12.56,12.56v.025h73.932A6.978,6.978,0,0,0,711.428-543.048Z" fill="#fff"/>
    <g id="books">
      <g id="Grupo_12801" data-name="Grupo 12801">
        <rect id="Rectángulo_3314" data-name="Rectángulo 3314" width="9.407" height="51.057" rx="1.255" transform="translate(955.153 -561.985)" fill="#6b614f"/>
        <rect id="Rectángulo_3315" data-name="Rectángulo 3315" width="12.483" height="51.057" rx="1.255" transform="translate(964.509 -561.985)" fill="#6b614f"/>
        <rect id="Rectángulo_3316" data-name="Rectángulo 3316" width="12.483" height="51.057" rx="1.255" transform="translate(930.623 -561.985)" fill="#6b614f"/>
        <rect id="Rectángulo_3317" data-name="Rectángulo 3317" width="10.717" height="51.057" rx="1.255" transform="translate(944.034 -561.985)" fill="#6b614f"/>
        <rect id="Rectángulo_3318" data-name="Rectángulo 3318" width="12.483" height="9.045" transform="translate(930.623 -552.94)" fill="#b2cafd"/>
        <rect id="Rectángulo_3319" data-name="Rectángulo 3319" width="10.717" height="4.282" transform="translate(944.034 -523.87)" fill="#fff" opacity="0.2"/>
        <rect id="Rectángulo_3320" data-name="Rectángulo 3320" width="10.717" height="7.043" transform="translate(944.034 -534.33)" fill="#fff" opacity="0.2"/>
        <rect id="Rectángulo_3321" data-name="Rectángulo 3321" width="12.483" height="11.476" transform="translate(965.509 -547.339)" fill="#fff" opacity="0.2"/>
        <rect id="Rectángulo_3322" data-name="Rectángulo 3322" width="7.813" height="7.813" rx="1.684" transform="translate(967.853 -560.198) rotate(12.287)" fill="#fff" opacity="0.2"/>
      </g>
    </g>
    <g id="Grupo_12804" data-name="Grupo 12804">
      <path id="Trazado_11524" data-name="Trazado 11524" d="M800.343-519.04c-3.8,4.794-7.989,7.05-12.266,9.295H769.858c-20.789-10.542-33.339-55.548-27.354-80.228C783.005-580.429,818.414-541.569,800.343-519.04Z" fill="#f4f4ef"/>
      <path id="Trazado_11525" data-name="Trazado 11525" d="M742.621-590.464a.507.507,0,0,0-.608.373c-5.893,24.313,6.1,68.827,26.772,80.346H771c-21.081-9.559-33.834-54.932-28.122-79.62l.021.006c16.935,26.128,41.429,61.479,44.844,79.214-.078.036-.465.221-.878.4h2.351C829.32-530.015,789.141-579.5,742.621-590.464Z" fill="#5eb4b9"/>
      <g id="Grupo_12802" data-name="Grupo 12802">
        <path id="Trazado_11526" data-name="Trazado 11526" d="M752.423-576.529a.505.505,0,0,0,.5-.414l1.484-8.225a.5.5,0,0,0-.407-.585.505.505,0,0,0-.587.407l-1.485,8.224A.5.5,0,0,0,752.423-576.529Z" fill="#f4f4ef"/>
        <path id="Trazado_11527" data-name="Trazado 11527" d="M764.781-557.742a.509.509,0,0,0,.2.043.5.5,0,0,0,.462-.3l7.657-17.2a.5.5,0,0,0-.256-.665.5.5,0,0,0-.667.256l-7.657,17.2A.5.5,0,0,0,764.781-557.742Z" fill="#f4f4ef"/>
        <path id="Trazado_11528" data-name="Trazado 11528" d="M796.866-553.58a.505.505,0,0,0-.71.076L779.7-533.1a.5.5,0,0,0,.077.709.5.5,0,0,0,.316.111.5.5,0,0,0,.394-.188l16.456-20.4A.5.5,0,0,0,796.866-553.58Z" fill="#f4f4ef"/>
        <path id="Trazado_11529" data-name="Trazado 11529" d="M770.255-548.3c-11.49-18.942-24.925-37.479-25.2-37.754-.75-1.031-1.586-2.168-2.372-3.222a.506.506,0,0,0-.707-.1.5.5,0,0,0-.1.705l.675.909c7.083,9.576,17.642,24.816,26.845,39.988,5.27,8.689,16.511,27.907,17.922,38.031h1.02C786.822-520.327,775.793-539.169,770.255-548.3Z" fill="#f4f4ef"/>
      </g>
      <g id="Grupo_12803" data-name="Grupo 12803">
        <path id="Trazado_11530" data-name="Trazado 11530" d="M756.832-567.059a.5.5,0,0,0-.371-.609l-14.023-3.427a.5.5,0,0,0-.611.369.5.5,0,0,0,.37.61l14.023,3.427A.507.507,0,0,0,756.832-567.059Z" fill="#5eb4b9"/>
        <path id="Trazado_11531" data-name="Trazado 11531" d="M747.021-545.289l23.814,2.126a.337.337,0,0,0,.045,0,.505.505,0,0,0,.5-.46.5.5,0,0,0-.458-.546l-23.814-2.127a.5.5,0,0,0-.548.457A.5.5,0,0,0,747.021-545.289Z" fill="#5eb4b9"/>
        <path id="Trazado_11532" data-name="Trazado 11532" d="M783.362-520.733l-22.411,1.5a.5.5,0,0,0-.47.536.505.505,0,0,0,.5.471l.034,0,22.411-1.5a.5.5,0,0,0,.47-.537A.506.506,0,0,0,783.362-520.733Z" fill="#5eb4b9"/>
        <path id="Trazado_11533" data-name="Trazado 11533" d="M742.621-590.464a.507.507,0,0,0-.608.373c-5.893,24.313,6.1,68.827,26.772,80.346H771c-21.081-9.559-33.834-54.932-28.122-79.62l.021.006c45.51,11.028,85.576,59.774,44.844,79.214-.079.036-.451.215-.878.4h2.351C829.32-530.015,789.141-579.5,742.621-590.464Z" fill="#5eb4b9"/>
      </g>
    </g>
    <g id="Grupo_12805" data-name="Grupo 12805">
      <path id="Trazado_11534" data-name="Trazado 11534" d="M846.784-588.377v77.791H814.127c-19.4-17.155-3.508-63.382,26.041-87.789A59.391,59.391,0,0,1,846.784-588.377Z" fill="#4778e3"/>
      <path id="Trazado_11535" data-name="Trazado 11535" d="M846.784-577.977v-1.434l-9.1,7.674c3.122-27.4,2.975-25.943,2.936-26.088a.548.548,0,0,0-1.075.074L837.738-581.9l-6.13-8.262a.549.549,0,0,0-.767-.113.548.548,0,0,0-.114.766l6.829,9.2c0,.005-2.444,21.45-2.444,21.45l-16.693-13.855a.549.549,0,0,0-.772.071.549.549,0,0,0,.072.772l17.246,14.314c-.015.129-3.188,27.97-3.2,28.092l-24.654-11.4a.549.549,0,0,0-.728.268.548.548,0,0,0,.268.727l24.984,11.553c-.4,3.475-1.637,14.367-2.02,17.726h1.1l.37-3.24,15.7-6.515v-1.187l-15.557,6.455c1.969-17.289,1.108-9.733,3.04-26.681l12.517-7.667v-1.286l-12.36,7.572L837.5-570.15Z" fill="#f4f4ef"/>
    </g>
    <g id="Grupo_12806" data-name="Grupo 12806">
      <path id="Trazado_11536" data-name="Trazado 11536" d="M770.388-523.822a12.557,12.557,0,0,0,3.556-1,13.646,13.646,0,0,0,6.839-6.939c2.452-5.308,1.406-11.425-.4-13.45-1.235,3.848-11.194,16.211-12.247,17.344-1.018,1.132-2.008,2.006-2.448,2.574-.393-.917-3.147-7.528-7.2-16.306,3.012.313,9.767-2.789,10.985-10.88.763-5.062-.982-8.317.046-11.5-4.653.779-8.1,10.913-9.5,15.43-.992,3.229-1.746,4.972-2.015,5.907-2.173-4.679-4.405-9.3-6.618-13.66,1.878-.368,8.292-3.8,8.668-12.025.16-3.711-1.052-7.008-2.218-8.315-2.3,4.3-7.342,8.369-7.465,16.85-.006.287-.007.925.04,1.58-.3-.593-4.289-8.26-4.57-8.441.511-1.378.718-6.352-1.869-10.495a20.22,20.22,0,0,0-10.434-7.9,37.425,37.425,0,0,0,1.64,8.038c2.39,7.306,8.288,10.487,10.025,10.733a.444.444,0,0,0,.056.177c2.547,4.658,5.034,9.468,7.421,14.3a41.458,41.458,0,0,0-9.611-5.3c-5.993-2.428-5.966-2.986-8.706-4.45a12.169,12.169,0,0,0,.912,6.434A12.089,12.089,0,0,0,746-548.284c3.706.15,6.564-1.149,7.447-1.958,2.667,5.449,5.2,10.9,7.539,16.153a36.224,36.224,0,0,0-5.684-1.8c-4.138-.958-7.227-.709-15.855.328,2.125,3.925,8.891,8.144,15.891,6.356a10.544,10.544,0,0,0,6.126-3.8c2.469,5.583,4.713,10.927,6.655,15.791a13.971,13.971,0,0,0-13.15.291,17.989,17.989,0,0,0-6.028,5.45H761.03c3.54-1.64,6.664-3.574,7.558-4.574q.939,2.373,1.775,4.574h.885c-1.5-3.95-3.239-8.288-5.137-12.819A8.846,8.846,0,0,0,770.388-523.822Z" fill="#ffb833"/>
      <path id="Trazado_11537" data-name="Trazado 11537" d="M787.677-524.443c-8.345,1.272-13.956,7.365-15.3,12.962h7.75c4.569-3.976,4.844-4.5,12.819-13.082A17.72,17.72,0,0,0,787.677-524.443Z" fill="#ffb833"/>
    </g>
    <g id="Grupo_12807" data-name="Grupo 12807">
      <path id="Trazado_11538" data-name="Trazado 11538" d="M768.3-517.294c6.335-8.84.815-20.619-3.926-21.2.473,2.235.149,5.855-.129,13.352-.053,4.039-.047,5.226-.186,6.991-.113,1.782-.306,2.9-.291,3.5-1.063-.532-6.8-3.243-14.282-7.688a11.424,11.424,0,0,0,4.163-7.055c1.577-7.363-2.8-11.934-3.912-14.307a5.085,5.085,0,0,1-.549-2.157c-3.331,2.978-2.9,11.149-2.083,15.575.307,1.7.54,2.56.907,4.583.212,1.141.388,2.173.581,2.827-6.634-3.987-11.211-7.3-11.565-7.538,1.164-1,3.771-5.063,3.793-9.8.042-5.086-2.646-9.127-4.417-9.931-1.07,4.128-3.705,8.771-2.491,14.54a15.383,15.383,0,0,0,1.479,4.026q-3.477-2.512-6.777-5.153a.419.419,0,0,0-.174-.086,10.42,10.42,0,0,0-.723-3.078,14.012,14.012,0,0,0-6.96-7.9,31.151,31.151,0,0,0-7.232-2.689,17.955,17.955,0,0,0,5.089,11.013c3.432,3.154,7.991,3.688,9.377,3.267.091.153,5.4,4.413,12.088,8.9a67.907,67.907,0,0,0-10.634.1c-5.517.419-5.952-.081-9.783-.624,3.349,10.6,15.573,10.648,20.975,2.687a6.714,6.714,0,0,0,.689-1.335c4.518,2.923,8.163,5.23,13.983,8.4a47.948,47.948,0,0,0-5.368,2.094,32.134,32.134,0,0,0-7.663,5.065h11.55a11.569,11.569,0,0,0,2.477-6.62c4.477,2.407,9.028,4.624,13.592,6.62h2.084q-3.68-1.561-7.343-3.315A9.094,9.094,0,0,0,768.3-517.294Z" fill="#f87314"/>
      <path id="Trazado_11539" data-name="Trazado 11539" d="M776.478-510.92h4.932c0-.068.006-.138.01-.209.994-17.533.339-12.508.916-22.515C778.205-529.866,772.27-519.076,776.478-510.92Z" fill="#f87314"/>
    </g>
    <g id="Grupo_12810" data-name="Grupo 12810">
      <path id="Trazado_11540" data-name="Trazado 11540" d="M927.308-510.677H898.914v-85.051a131.576,131.576,0,0,1,33.86-29.872C951.168-595.5,952.92-528.832,927.308-510.677Z" fill="#f4f4ef"/>
      <path id="Trazado_11541" data-name="Trazado 11541" d="M933.342-625.946a.666.666,0,0,0-.912-.224,132.055,132.055,0,0,0-33.516,29.378v86.115h9.12c-1.02-25.241,14.343-76.261,24.49-113.992l.024-.015c18.1,30.509,19.5,97.008-6.387,114.007h2.267C953.682-529.86,951.652-595.9,933.342-625.946Z" fill="#5eb4b9"/>
      <g id="Grupo_12808" data-name="Grupo 12808">
        <path id="Trazado_11542" data-name="Trazado 11542" d="M924.982-605.022a.666.666,0,0,0,.9.275.665.665,0,0,0,.274-.9l-5.185-9.74a.665.665,0,0,0-.9-.275.665.665,0,0,0-.275.9Z" fill="#f4f4ef"/>
        <path id="Trazado_11543" data-name="Trazado 11543" d="M917.431-575.934a.666.666,0,0,0,.5-1.108l-16.555-18.542a.666.666,0,0,0-.939-.053.666.666,0,0,0-.054.94C918.077-574.875,916.989-575.934,917.431-575.934Z" fill="#f4f4ef"/>
        <path id="Trazado_11544" data-name="Trazado 11544" d="M908.763-537.888a.666.666,0,0,0,.366-1.221l-10.215-6.727v1.593C909.152-537.5,908.477-537.888,908.763-537.888Z" fill="#f4f4ef"/>
        <path id="Trazado_11545" data-name="Trazado 11545" d="M933.678-625.066a.666.666,0,0,0-.844.416c-8.567,24.99-26.918,87.531-25.564,113.973H908.6c-1.377-26.177,16.9-88.383,25.49-113.544A.666.666,0,0,0,933.678-625.066Z" fill="#f4f4ef"/>
      </g>
      <g id="Grupo_12809" data-name="Grupo 12809">
        <path id="Trazado_11546" data-name="Trazado 11546" d="M924.99-590.8l16.2-9.961a.666.666,0,0,0,.219-.916.666.666,0,0,0-.916-.218l-16.2,9.961a.666.666,0,0,0-.218.916A.667.667,0,0,0,924.99-590.8Z" fill="#5eb4b9"/>
        <path id="Trazado_11547" data-name="Trazado 11547" d="M915.917-555.281c.2,0-1.578.725,29.256-12.326a.665.665,0,0,0,.353-.872.665.665,0,0,0-.872-.354l-29,12.274A.666.666,0,0,0,915.917-555.281Z" fill="#5eb4b9"/>
        <path id="Trazado_11548" data-name="Trazado 11548" d="M939.047-528.753a.667.667,0,0,0-.807-.485l-28.7,7.151a.666.666,0,0,0,.321,1.292l28.7-7.151A.667.667,0,0,0,939.047-528.753Z" fill="#5eb4b9"/>
        <path id="Trazado_11549" data-name="Trazado 11549" d="M933.342-625.946a.666.666,0,0,0-.912-.224,132.055,132.055,0,0,0-33.516,29.378v2.149a132.539,132.539,0,0,1,33.609-30.026l.025-.015c18.1,30.509,19.5,97.008-6.387,114.007h2.267C953.682-529.86,951.652-595.9,933.342-625.946Z" fill="#5eb4b9"/>
      </g>
    </g>
    <path id="Trazado_11550" data-name="Trazado 11550" d="M950.841-567.017c3.5-1.829,5.89-4.7,6.471-6.469-5.256.17-12.7-2.585-20.913,2.98.267-.415,5.312-8.333,5.332-8.7,1.54-.264,6.229-2.722,8.664-7.31a21.5,21.5,0,0,0,1.712-13.808,39.9,39.9,0,0,0-6.524,5.79c-5.451,6.09-5.238,13.211-4.54,14.942l0,.009c-.073.266-3.686,6.1-9.333,14.521a44.2,44.2,0,0,0-.253-11.607c-.956-6.808-.429-7.081-.541-10.382a12.94,12.94,0,0,0-5.435,4.266,12.853,12.853,0,0,0-.574,13.508c1.82,3.461,4.507,5.4,5.737,5.8-3.134,4.645-6.817,9.969-10.822,15.527a38.742,38.742,0,0,0-1.364-6.169c-1.322-4.318-3.2-7.028-8.745-14.416-2.481,4.046-2.76,12.519,2.613,18.008a11.23,11.23,0,0,0,6.747,3.613c-3.478,4.8-7.185,9.759-10.975,14.58.088-2.368-1.341-8.332-7.269-11.993a19,19,0,0,0-8.869-2.683v5.242c.824.733,1.687,1.51,2.544,2.3,4.262,3.942,10.788,7.748,12.8,8.139-3.14,3.966-6.329,7.827-9.488,11.422h1.174q.742-.854,1.522-1.77a43.219,43.219,0,0,0,4.17,1.77h18.988c-6.356-6.431-15.48-7.454-20.775-4.612,3.279-3.966,6.9-8.555,10.648-13.487a9.422,9.422,0,0,0,1.838,4.192,13.341,13.341,0,0,0,2.817,2.739,14.51,14.51,0,0,0,10.027,2.6c6.19-.571,11.263-4.79,12.167-7.527-4.259.925-21-1.7-22.483-2.035-1.584-.335-2.915-.78-3.673-.883,3.691-4.88,7.484-10.071,11.173-15.309,1.316,2.939,7.768,7.5,15.861,4.315,5.065-1.993,7.132-5.332,10.608-6.082-3.194-3.867-14.357-1.642-19.259-.526-3.5.806-5.5,1.041-6.506,1.291,3.147-4.49,6.206-9,9.045-13.363C936.5-567.058,943.073-562.984,950.841-567.017Z" fill="#f87314"/>
    <path id="Trazado_11551" data-name="Trazado 11551" d="M981.373-537.243a14.547,14.547,0,0,0-9.595-2.116c-3.716.668-6.3,3.346-6.7,4.446-.137-.017-5.481,1.319-11.666,3.434a55.082,55.082,0,0,0,5.147-6.91c2.434-3.763,2.969-3.8,5.2-6-8.48-3.038-14.5,4.823-12.012,12.208a5.439,5.439,0,0,0,.522,1.1c-4.108,1.441-8.22,3.08-12.269,4.9a39.049,39.049,0,0,0,1.281-4.487c.808-3.621.553-5.917.238-12.829a11.279,11.279,0,0,0-4.745,5.021c-3,6.116.781,11.664,2.389,12.673-3.851,1.756-7.64,3.672-11.31,5.732a10.645,10.645,0,0,0,.541-4.279c-.4-7.02-6.657-11.714-11.661-11.761,4.075,8.034,4.746,9.519,6.449,11.882a30.8,30.8,0,0,0,3.856,4.619c-3.835,2.186-7.534,4.529-11.028,7.01h1.162q1.578-1.1,3.221-2.174c.409.458,1.452,1.275,2.508,2.174h8.348c-2.329-2.334-5.524-3.914-8.747-3.521,3.329-2.083,6.828-4.067,10.447-5.928a7.375,7.375,0,0,0,.179,3.86,12.291,12.291,0,0,0,3.6,5.589h8.725c-1.321-1.066-3-2.492-5.276-4.355-2.578-2.014-3.346-2.592-4.416-3.546-1.093-.946-1.721-1.619-2.115-1.9,3.872-1.965,7.877-3.788,11.956-5.441a9.251,9.251,0,0,0,2.51,6.141c3.975,4.625,9.065,4.045,11.142,4.49a4.1,4.1,0,0,1,1.66.7c-.288-3.608-5.766-7.337-9.022-8.977-1.244-.633-1.915-.906-3.4-1.661-.84-.422-1.592-.815-2.108-1.01,3.471-1.385,6.993-2.645,10.529-3.763a12.165,12.165,0,0,0,4.463,7.25c3.259,2.519,7.182,2.766,8.569,2.019-2.137-2.713-3.84-6.688-8.156-8.733a12.478,12.478,0,0,0-3.319-1.019q3.321-1.01,6.643-1.845a.341.341,0,0,0,.14-.07,8.449,8.449,0,0,0,2.339,1.043,11.351,11.351,0,0,0,8.507-.615,25.208,25.208,0,0,0,5.279-3.346Z" fill="#ffb833"/>
    <path id="Trazado_11552" data-name="Trazado 11552" d="M778.289-709.47a6.973,6.973,0,0,0-6.07,3.536,10.116,10.116,0,0,0-9.631-7.025c-.163,0-.326.005-.488.012a10.818,10.818,0,0,0-10.676-9.083,10.815,10.815,0,0,0-10.816,10.816,10.82,10.82,0,0,0,.393,2.9,9.065,9.065,0,0,0-2.835-.456,9.068,9.068,0,0,0-2.839.457,12.558,12.558,0,0,0-11.466-7.435,12.56,12.56,0,0,0-12.56,12.56v.025h73.933A6.979,6.979,0,0,0,778.289-709.47Z" fill="#fff"/>
    <path id="Trazado_11553" data-name="Trazado 11553" d="M1053.821-628.379a6.975,6.975,0,0,0-6.07,3.536,10.117,10.117,0,0,0-9.63-7.025c-.164,0-.327.005-.489.013a10.818,10.818,0,0,0-10.676-9.084,10.816,10.816,0,0,0-10.816,10.816,10.791,10.791,0,0,0,.394,2.9,9.049,9.049,0,0,0-2.836-.457,9.057,9.057,0,0,0-2.838.457,12.561,12.561,0,0,0-11.467-7.435,12.56,12.56,0,0,0-12.56,12.561v.024h73.933A6.979,6.979,0,0,0,1053.821-628.379Z" fill="#fff"/>
    <g id="Grupo_12815" data-name="Grupo 12815">
      <g id="Grupo_12812" data-name="Grupo 12812">
        <g id="Grupo_12811" data-name="Grupo 12811">
          <path id="Trazado_11554" data-name="Trazado 11554" d="M658.4-620.865a.257.257,0,0,1-.248-.193l-3.961-15.53a.263.263,0,0,1,.028-.194.261.261,0,0,1,.157-.117l10.746-2.741a.253.253,0,0,1,.175.018l2.5,1.214a.258.258,0,0,1,.137.167l3.517,13.792a.256.256,0,0,1-.185.311l-12.8,3.265A.273.273,0,0,1,658.4-620.865Zm-3.649-15.6,3.835,15.033,12.3-3.138L667.461-638l-2.306-1.121Z" fill="#fff"/>
          <path id="Trazado_11555" data-name="Trazado 11555" d="M664.939-636.41a.255.255,0,0,1-.14-.042.258.258,0,0,1-.115-.238l.244-2.724a.255.255,0,0,1,.129-.2.257.257,0,0,1,.238-.007l2.5,1.214a.26.26,0,0,1,.145.224.257.257,0,0,1-.133.231l-2.741,1.511A.26.26,0,0,1,664.939-636.41Zm.466-2.589-.168,1.875,1.886-1.039Z" fill="#fff"/>
        </g>
        <path id="Trazado_11556" data-name="Trazado 11556" d="M659.083-624.158a.256.256,0,0,1-.248-.193.257.257,0,0,1,.185-.312l9.369-2.389a.255.255,0,0,1,.311.185.256.256,0,0,1-.185.311l-9.369,2.39A.272.272,0,0,1,659.083-624.158Z" fill="#fff"/>
        <path id="Trazado_11557" data-name="Trazado 11557" d="M658.584-626.114a.257.257,0,0,1-.248-.193.257.257,0,0,1,.185-.312l9.369-2.389a.255.255,0,0,1,.311.185.255.255,0,0,1-.185.311l-9.368,2.39A.28.28,0,0,1,658.584-626.114Z" fill="#fff"/>
        <path id="Trazado_11558" data-name="Trazado 11558" d="M658.085-628.07a.257.257,0,0,1-.248-.193.257.257,0,0,1,.185-.312l9.369-2.389a.255.255,0,0,1,.311.185.255.255,0,0,1-.185.311l-9.368,2.39A.28.28,0,0,1,658.085-628.07Z" fill="#fff"/>
        <path id="Trazado_11559" data-name="Trazado 11559" d="M657.586-630.026a.257.257,0,0,1-.248-.193.256.256,0,0,1,.185-.312l9.369-2.389a.255.255,0,0,1,.311.185.255.255,0,0,1-.185.311l-9.368,2.39A.28.28,0,0,1,657.586-630.026Z" fill="#fff"/>
        <path id="Trazado_11560" data-name="Trazado 11560" d="M657.088-631.982a.255.255,0,0,1-.248-.193.256.256,0,0,1,.185-.312l9.368-2.389a.255.255,0,0,1,.311.185.255.255,0,0,1-.185.311l-9.368,2.39A.272.272,0,0,1,657.088-631.982Z" fill="#fff"/>
        <path id="Trazado_11561" data-name="Trazado 11561" d="M659.023-634.56a.257.257,0,0,1-.248-.193.256.256,0,0,1,.185-.311l4.5-1.148a.258.258,0,0,1,.312.186.256.256,0,0,1-.185.311l-4.5,1.147A.234.234,0,0,1,659.023-634.56Z" fill="#fff"/>
      </g>
      <g id="Grupo_12814" data-name="Grupo 12814">
        <g id="Grupo_12813" data-name="Grupo 12813">
          <path id="Trazado_11562" data-name="Trazado 11562" d="M702.74-638.014a.257.257,0,0,1-.248-.193l-3.961-15.529a.258.258,0,0,1,.028-.194.256.256,0,0,1,.157-.118l10.746-2.741a.265.265,0,0,1,.175.018l2.5,1.215a.254.254,0,0,1,.136.167l3.518,13.791a.257.257,0,0,1-.185.312l-12.8,3.264A.284.284,0,0,1,702.74-638.014Zm-3.649-15.6,3.835,15.033,12.3-3.138L711.8-655.147l-2.306-1.122Z" fill="#fff"/>
          <path id="Trazado_11563" data-name="Trazado 11563" d="M709.281-653.559a.252.252,0,0,1-.14-.042.256.256,0,0,1-.115-.237l.244-2.725a.252.252,0,0,1,.129-.2.254.254,0,0,1,.238-.008l2.5,1.215a.254.254,0,0,1,.144.224.254.254,0,0,1-.132.23l-2.741,1.511A.26.26,0,0,1,709.281-653.559Zm.466-2.588-.168,1.875,1.886-1.04Z" fill="#fff"/>
        </g>
        <path id="Trazado_11564" data-name="Trazado 11564" d="M703.425-641.307a.256.256,0,0,1-.248-.193.256.256,0,0,1,.185-.312l9.368-2.389a.257.257,0,0,1,.312.185.257.257,0,0,1-.185.312l-9.369,2.389A.228.228,0,0,1,703.425-641.307Z" fill="#fff"/>
        <path id="Trazado_11565" data-name="Trazado 11565" d="M702.926-643.263a.257.257,0,0,1-.248-.193.257.257,0,0,1,.185-.312l9.369-2.389a.257.257,0,0,1,.311.185.257.257,0,0,1-.185.312l-9.368,2.389A.287.287,0,0,1,702.926-643.263Z" fill="#fff"/>
        <path id="Trazado_11566" data-name="Trazado 11566" d="M702.427-645.219a.257.257,0,0,1-.248-.193.257.257,0,0,1,.185-.312l9.369-2.389a.257.257,0,0,1,.311.185.257.257,0,0,1-.185.312l-9.368,2.389A.235.235,0,0,1,702.427-645.219Z" fill="#fff"/>
        <path id="Trazado_11567" data-name="Trazado 11567" d="M701.928-647.175a.257.257,0,0,1-.248-.193.257.257,0,0,1,.185-.312l9.369-2.389a.255.255,0,0,1,.311.185.256.256,0,0,1-.185.312l-9.368,2.389A.28.28,0,0,1,701.928-647.175Z" fill="#fff"/>
        <path id="Trazado_11568" data-name="Trazado 11568" d="M701.429-649.131a.257.257,0,0,1-.248-.193.257.257,0,0,1,.185-.312l9.369-2.389a.256.256,0,0,1,.311.185.255.255,0,0,1-.185.311l-9.368,2.39A.28.28,0,0,1,701.429-649.131Z" fill="#fff"/>
        <path id="Trazado_11569" data-name="Trazado 11569" d="M703.365-651.708a.257.257,0,0,1-.248-.193.257.257,0,0,1,.185-.312l4.5-1.147a.257.257,0,0,1,.312.185.256.256,0,0,1-.185.311l-4.5,1.148A.28.28,0,0,1,703.365-651.708Z" fill="#fff"/>
      </g>
      <path id="Trazado_11570" data-name="Trazado 11570" d="M677.691-637.825a.256.256,0,0,1-.235-.153.257.257,0,0,1,.131-.338l16.26-7.165a.257.257,0,0,1,.338.131.256.256,0,0,1-.132.338l-16.259,7.165A.255.255,0,0,1,677.691-637.825Z" fill="#fff"/>
      <path id="Trazado_11571" data-name="Trazado 11571" d="M694.776-638.32a.254.254,0,0,1-.116-.028.257.257,0,0,1-.111-.346l.972-1.893-1.962-.539a.257.257,0,0,1-.179-.315.257.257,0,0,1,.315-.179l2.266.623a.254.254,0,0,1,.166.144.257.257,0,0,1-.006.22l-1.116,2.174A.259.259,0,0,1,694.776-638.32Z" fill="#fff"/>
      <path id="Trazado_11572" data-name="Trazado 11572" d="M679.8-637.512h-.016l-2.345-.149a.254.254,0,0,1-.192-.107.258.258,0,0,1-.039-.217l.65-2.355a.259.259,0,0,1,.316-.179.256.256,0,0,1,.178.315l-.566,2.052,2.03.129a.256.256,0,0,1,.24.272A.257.257,0,0,1,679.8-637.512Z" fill="#fff"/>
      <path id="Trazado_11573" data-name="Trazado 11573" d="M679.148-633.1a.257.257,0,0,1-.235-.153.257.257,0,0,1,.131-.338l16.26-7.165a.257.257,0,0,1,.338.131.256.256,0,0,1-.131.338l-16.26,7.165A.251.251,0,0,1,679.148-633.1Z" fill="#fff"/>
    </g>
    <g id="Grupo_12819" data-name="Grupo 12819">
      <path id="Trazado_11574" data-name="Trazado 11574" d="M937.083-671.185H903.354a6.993,6.993,0,0,0-6.994,6.993v5.739a6.962,6.962,0,0,0,.8,3.242l-.8-.159s-4.23,10.336-3.416,9.319c.524-.654,5.931-3.5,9.721-5.443.227.022.456.035.689.035h33.729a6.993,6.993,0,0,0,6.993-6.994v-5.739A6.993,6.993,0,0,0,937.083-671.185Z" fill="#ffb833"/>
      <g id="Grupo_12816" data-name="Grupo 12816">
        <rect id="Rectángulo_3323" data-name="Rectángulo 3323" width="4.15" height="2.548" transform="translate(938.94 -665.307) rotate(180)" fill="#fff"/>
        <rect id="Rectángulo_3324" data-name="Rectángulo 3324" width="29.744" height="2.548" transform="translate(932.044 -665.307) rotate(180)" fill="#fff"/>
      </g>
      <g id="Grupo_12817" data-name="Grupo 12817">
        <rect id="Rectángulo_3325" data-name="Rectángulo 3325" width="16.947" height="2.548" transform="translate(938.94 -659.936) rotate(180)" fill="#fff"/>
        <rect id="Rectángulo_3326" data-name="Rectángulo 3326" width="16.947" height="2.548" transform="translate(919.248 -659.936) rotate(180)" fill="#fff"/>
      </g>
      <g id="Grupo_12818" data-name="Grupo 12818">
        <rect id="Rectángulo_3327" data-name="Rectángulo 3327" width="11.828" height="2.548" transform="translate(938.94 -654.566) rotate(180)" fill="#fff"/>
        <rect id="Rectángulo_3328" data-name="Rectángulo 3328" width="22.066" height="2.548" transform="translate(924.366 -654.566) rotate(180)" fill="#fff"/>
      </g>
    </g>
    <g id="Grupo_12820" data-name="Grupo 12820">
      <path id="Trazado_11575" data-name="Trazado 11575" d="M944.842-483.056l-8.867,1.567-.861-2.8,2.593-1.987Z" fill="#b0b0b4"/>
      <path id="Trazado_11576" data-name="Trazado 11576" d="M942.662-494.495l-22.25,3.71,19.891,4.374Z" fill="#fff"/>
      <path id="Trazado_11577" data-name="Trazado 11577" d="M937.591-476l-17.163-14.637,19.3,6.492Z" fill="#fff"/>
      <path id="Trazado_11578" data-name="Trazado 11578" d="M940.3-486.411l4.538,3.355s-4.659-.914-5.111-1.088-19.3-6.493-19.3-6.493Z" fill="#dddee0"/>
    </g>
    <g id="Grupo_12825" data-name="Grupo 12825">
      <g id="Grupo_12821" data-name="Grupo 12821">
        <path id="Trazado_11579" data-name="Trazado 11579" d="M706.361-571.416a8.99,8.99,0,0,1-8.98-8.98,8.991,8.991,0,0,1,8.98-8.981,8.991,8.991,0,0,1,8.98,8.981A8.99,8.99,0,0,1,706.361-571.416Z" fill="#f4f4ef"/>
        <path id="Trazado_11580" data-name="Trazado 11580" d="M706.361-589.087a8.7,8.7,0,0,1,8.69,8.691,8.7,8.7,0,0,1-8.69,8.69,8.7,8.7,0,0,1-8.69-8.69,8.7,8.7,0,0,1,8.69-8.691Zm0-.58a9.27,9.27,0,0,0-9.27,9.271,9.27,9.27,0,0,0,9.27,9.27,9.27,9.27,0,0,0,9.27-9.27,9.27,9.27,0,0,0-9.27-9.271Z" fill="#1aa6ab"/>
      </g>
      <g id="Grupo_12824" data-name="Grupo 12824">
        <g id="Grupo_12822" data-name="Grupo 12822">
          <path id="Trazado_11581" data-name="Trazado 11581" d="M702.8-575.059a2.628,2.628,0,0,1-1.2-.706,2.633,2.633,0,0,1,.052-3.718l5.754-5.6a2.645,2.645,0,0,1,2.518-.654,2.624,2.624,0,0,1,1.2.706,2.612,2.612,0,0,1,.744,1.87,2.611,2.611,0,0,1-.8,1.848l-5.754,5.6A2.642,2.642,0,0,1,702.8-575.059Z" fill="#f4f4ef"/>
          <path id="Trazado_11582" data-name="Trazado 11582" d="M709.858-585.491h0a2.374,2.374,0,0,1,1.085.638,2.381,2.381,0,0,1-.047,3.363l-5.754,5.6a2.39,2.39,0,0,1-2.277.592,2.367,2.367,0,0,1-1.085-.638,2.38,2.38,0,0,1,.046-3.363l5.754-5.6a2.391,2.391,0,0,1,2.278-.592Zm.13-.486a2.883,2.883,0,0,0-2.759.717l-5.753,5.6a2.881,2.881,0,0,0-.057,4.074h0a2.87,2.87,0,0,0,1.315.773,2.881,2.881,0,0,0,2.759-.717l5.754-5.6a2.881,2.881,0,0,0,.056-4.073,2.864,2.864,0,0,0-1.315-.774Z" fill="#f87314"/>
        </g>
        <path id="Trazado_11583" data-name="Trazado 11583" d="M705.9-580.065a4.216,4.216,0,0,1-1.4-2.541l-3.025,2.943a2.881,2.881,0,0,0-.057,4.074,2.882,2.882,0,0,0,4.074.056l3.125-3.04A4.7,4.7,0,0,1,705.9-580.065Z" fill="#f87314"/>
        <g id="Grupo_12823" data-name="Grupo 12823">
          <path id="Trazado_11584" data-name="Trazado 11584" d="M701.946-576.557a.627.627,0,0,1-.441-.432c-.406-1.4.733-2.547,1.9-3.478a.628.628,0,0,1,.883.1.628.628,0,0,1-.1.883c-1.178.941-1.633,1.6-1.476,2.147a.629.629,0,0,1-.43.778A.623.623,0,0,1,701.946-576.557Z" fill="#f4f4ef"/>
        </g>
      </g>
    </g>
    <g id="Grupo_12829" data-name="Grupo 12829">
      <g id="Grupo_12826" data-name="Grupo 12826">
        <path id="Trazado_11585" data-name="Trazado 11585" d="M955.216-483.884q-.493-.016-.985-.038l.025-.561c.326.015.652.027.978.038Z" fill="#fff"/>
      </g>
      <g id="Grupo_12827" data-name="Grupo 12827">
        <path id="Trazado_11586" data-name="Trazado 11586" d="M957.6-483.846h-.408l0-.562h.405q.778,0,1.557-.016l.012.561Q958.385-483.846,957.6-483.846Zm3.545-.084-.027-.561c.651-.03,1.31-.07,1.959-.118l.041.56C962.465-484,961.8-483.961,961.146-483.93Zm3.942-.288-.055-.559c.651-.065,1.307-.138,1.95-.219l.07.557C966.405-484.358,965.745-484.283,965.088-484.218Zm3.923-.492-.084-.555c.644-.1,1.295-.2,1.936-.319l.1.553C970.316-484.916,969.659-484.808,969.011-484.71Zm3.892-.691-.113-.55c.64-.131,1.285-.271,1.918-.417l.126.547C974.2-485.674,973.547-485.533,972.9-485.4Zm3.851-.889-.14-.544c.629-.162,1.266-.334,1.894-.513l.154.54C978.029-486.627,977.388-486.453,976.754-486.29Zm3.8-1.083-.167-.536c.625-.2,1.253-.4,1.865-.609l.181.532C981.819-487.776,981.186-487.57,980.556-487.373Zm3.742-1.274-.194-.527c.611-.225,1.227-.462,1.832-.7l.208.522C985.534-489.113,984.913-488.874,984.3-488.647Zm3.673-1.463-.221-.516c.6-.256,1.2-.523,1.794-.795l.234.51C989.18-490.637,988.572-490.367,987.971-490.11Zm3.593-1.648-.248-.5c.587-.287,1.175-.586,1.751-.887l.26.5C992.747-492.348,992.154-492.047,991.564-491.758Zm3.5-1.831-.273-.491c.573-.319,1.146-.647,1.7-.976l.285.483C996.222-494.241,995.645-493.91,995.067-493.589Zm3.4-2.011-.3-.476c.554-.347,1.109-.705,1.649-1.064l.311.468C999.587-496.311,999.029-495.95,998.471-495.6Zm3.292-2.187-.321-.461.032-.022c.521-.367,1.044-.745,1.556-1.126l.335.451c-.516.383-1.043.764-1.566,1.132Zm3.172-2.357-.346-.442c.505-.395,1.019-.809,1.528-1.229l.358.433C1005.962-500.959,1005.444-500.543,1004.935-500.144Zm3.047-2.515-.368-.424c.49-.426.983-.865,1.464-1.3l.379.414C1008.972-503.531,1008.476-503.088,1007.982-502.659Zm2.916-2.667-.389-.4c.471-.453.941-.916,1.4-1.377l.4.394C1011.846-506.248,1011.372-505.781,1010.9-505.326Zm2.78-2.809-.409-.384c.447-.475.893-.961,1.327-1.446l.418.374C1014.577-509.1,1014.128-508.612,1013.678-508.135Zm2.635-2.946-.427-.363c.418-.493.84-1,1.252-1.511l.437.352C1017.159-512.089,1016.735-511.577,1016.313-511.081Zm2.484-3.076-.446-.341c.4-.52.793-1.05,1.172-1.574l.455.33C1019.595-515.214,1019.2-514.681,1018.8-514.157Zm2.32-3.2-.462-.317c.37-.541.737-1.09,1.088-1.634l.471.3C1021.86-518.456,1021.491-517.9,1021.117-517.358Zm2.149-3.32-.48-.293c.34-.557.676-1.126,1-1.69l.487.279C1023.947-521.814,1023.608-521.241,1023.266-520.678Zm1.963-3.434-.495-.265c.308-.576.611-1.163.9-1.744l.5.251C1025.845-525.285,1025.54-524.693,1025.229-524.112Zm1.765-3.543-.51-.235c.273-.592.541-1.2.8-1.793l.516.22C1027.539-528.86,1027.269-528.251,1026.994-527.655Zm1.549-3.641-.523-.2c.073-.185.144-.371.215-.557.153-.406.307-.837.456-1.28l.532.179c-.151.45-.307.887-.464,1.3Q1028.652-531.576,1028.543-531.3Zm1.269-3.754-.54-.156c.171-.593.339-1.212.512-1.893l.544.138C1030.153-536.274,1029.984-535.649,1029.812-535.05Zm.98-3.83-.547-.127c.148-.636.291-1.277.432-1.918l.548.12Q1031.012-539.839,1030.792-538.88Zm.853-3.85-.549-.12q.21-.965.425-1.926l.548.123Q1031.853-543.693,1031.645-542.73Zm.872-3.838-.545-.133c.167-.686.328-1.313.493-1.916l.541.147C1032.843-547.872,1032.683-547.249,1032.517-546.568Zm1.039-3.782-.535-.169c.206-.655.421-1.286.64-1.877l.526.2C1033.972-551.619,1033.759-551,1033.556-550.35Zm11.1-2.638a12.772,12.772,0,0,1-1.84-.136l.081-.555a12.23,12.23,0,0,0,1.759.129h.158l.008.561Zm2.171-.2-.1-.552a11.562,11.562,0,0,0,1.522-.39c.11-.036.218-.075.325-.116l.2.524c-.116.045-.233.087-.351.125A12.068,12.068,0,0,1,1046.831-553.186Zm-5.97-.369a16.75,16.75,0,0,1-1.883-.679l.221-.516a16.146,16.146,0,0,0,1.819.656Zm-5.941-.455-.513-.227c.275-.621.569-1.223.872-1.789l.495.265C1035.477-555.207,1035.189-554.618,1034.92-554.01Zm15.65-.668-.321-.461a8.526,8.526,0,0,0,1.432-1.255l.415.378A9.13,9.13,0,0,1,1050.57-554.678Zm-13.385-.435c-.562-.31-1.135-.659-1.7-1.037l.311-.467c.554.369,1.113.71,1.662,1.012Zm-3.314-2.2c-.511-.4-1.026-.821-1.531-1.265l.37-.422c.5.436,1,.855,1.505,1.243Zm2.894-.117-.469-.308c.369-.564.765-1.106,1.174-1.612l.436.353C1037.509-558.505,1037.125-557.978,1036.765-557.43Zm16.513-.24-.494-.266a5.966,5.966,0,0,0,.633-1.763l.553.1A6.531,6.531,0,0,1,1053.278-557.67Zm-22.395-2.256c-.464-.452-.93-.93-1.388-1.42l.411-.383c.451.484.912.955,1.369,1.4Zm8.317-.511-.4-.4a18.591,18.591,0,0,1,1.484-1.333l.352.438A18,18,0,0,0,1039.2-560.437Zm14.182-1.1a4.216,4.216,0,0,0-.423-1.079,4.216,4.216,0,0,0-.381-.566l.439-.35a4.737,4.737,0,0,1,.431.642,4.755,4.755,0,0,1,.48,1.223Zm-25.207-1.285c-.4-.463-.8-.947-1.184-1.437l-.072-.091.437-.352.075.095c.384.484.778.962,1.171,1.42Zm14.033-.037-.3-.472c.547-.353,1.128-.688,1.725-.995l.257.5C1043.305-563.53,1042.74-563.2,1042.208-562.861Zm8.947-1.494a5.937,5.937,0,0,0-1.773-.6l.1-.552a6.468,6.468,0,0,1,1.941.66Zm-5.509-.273-.192-.527a7.853,7.853,0,0,1,1.989-.438l.05.559A7.3,7.3,0,0,0,1045.646-564.628Zm-19.938-1.289c-.4-.529-.8-1.063-1.175-1.588l.455-.329c.377.522.77,1.053,1.168,1.578Zm-2.317-3.2c-.37-.533-.743-1.083-1.109-1.634l.468-.311c.364.549.735,1.1,1.1,1.626Zm-2.185-3.29q-.531-.834-1.045-1.676l.479-.293q.512.838,1.039,1.667Zm-2.06-3.369q-.5-.852-.986-1.711l.489-.276q.484.855.981,1.7Zm-316.509-1.768-.56-.036q.064-.984.136-1.968l.56.04Q702.7-578.524,702.637-577.544Zm314.566-1.669q-.473-.865-.931-1.739l.5-.261q.457.87.927,1.732Zm-314.28-2.258-.559-.045q.079-.983.169-1.966l.559.051C703.032-582.778,702.977-582.124,702.923-581.471Zm312.442-1.234q-.445-.877-.883-1.764l.5-.248q.435.883.88,1.757Zm-312.083-2.683-.559-.058q.1-.981.215-1.961l.557.064Q703.382-586.367,703.282-585.388Zm310.339-.855c-.181-.377-.36-.754-.538-1.134q-.155-.328-.3-.659l.514-.225q.141.324.293.646.267.567.536,1.13Zm-309.885-3.05-.557-.073q.129-.979.272-1.955l.556.082Q703.863-590.267,703.736-589.293Zm308.322-.6c-.214-.609-.412-1.248-.591-1.9l.541-.149c.176.638.37,1.265.58,1.862Zm-307.747-3.29-.553-.092c.109-.655.224-1.309.343-1.944l.552.1C704.535-594.48,704.42-593.83,704.311-593.179ZM1011-593.717c-.133-.623-.252-1.26-.365-1.948l.553-.091c.112.679.23,1.308.361,1.922Zm-305.963-3.32-.55-.115c.136-.648.28-1.3.429-1.929l.546.129C705.313-598.325,705.17-597.681,705.035-597.037Zm305.313-.586c-.076-.59-.15-1.232-.228-1.962l.558-.059c.077.726.151,1.363.227,1.949Zm-304.415-3.233L705.39-601c.167-.64.345-1.281.527-1.905l.539.157C706.275-602.126,706.1-601.491,705.933-600.856Zm303.992-.69-.187-1.959.558-.054.188,1.959Zm-302.892-3.072-.534-.174c.2-.63.42-1.26.64-1.871l.528.19C707.449-605.867,707.235-605.243,707.033-604.618Zm302.5-.841c-.078-.7-.155-1.339-.237-1.947l.557-.074c.082.612.16,1.253.238,1.96ZM708.362-608.3l-.522-.208c.245-.615.5-1.228.766-1.825l.514.227C708.859-609.521,708.6-608.913,708.362-608.3Zm300.648-1.04q-.16-.969-.336-1.936l.552-.1q.177.972.338,1.946Zm-299.067-2.543-.5-.246c.29-.6.594-1.189.9-1.763l.494.265C710.531-613.064,710.231-612.478,709.943-611.888Zm20.443-.15a5.115,5.115,0,0,1-.864-.073l.094-.553a4.634,4.634,0,0,0,1.842-.062l.13.546A5.163,5.163,0,0,1,730.386-612.038Zm-2.8-.767a6.188,6.188,0,0,1-1.585-1.3l.421-.371a5.649,5.649,0,0,0,1.442,1.184Zm5.882-.207-.31-.468a6.71,6.71,0,0,0,1.4-1.259l.428.363A7.246,7.246,0,0,1,733.469-613.012Zm274.837-.2q-.192-.965-.4-1.924l.548-.119q.21.965.4,1.933ZM711.8-615.338l-.483-.286c.338-.571.689-1.138,1.045-1.684l.47.306C712.478-616.463,712.131-615.9,711.8-615.338Zm13.077-.462a11.059,11.059,0,0,1-.728-1.883l.539-.156a10.529,10.529,0,0,0,.691,1.787Zm11.227-.279-.5-.247a7.661,7.661,0,0,0,.621-1.791l.549.116A8.163,8.163,0,0,1,736.1-616.079Zm271.373-.973q-.223-.956-.463-1.909l.544-.137q.24.957.466,1.919Zm-293.54-1.566-.455-.329c.4-.549.8-1.079,1.211-1.575l.435.356C714.725-619.679,714.325-619.158,713.934-618.618Zm9.791-1.027a18.416,18.416,0,0,1-.179-1.993l.561-.02a17.756,17.756,0,0,0,.174,1.931ZM736.351-620a5.656,5.656,0,0,0-.428-1.8l.506-.244a6.259,6.259,0,0,1,.482,2Zm270.165-.867q-.255-.948-.526-1.893l.539-.155q.273.949.529,1.9Zm-290.1-.766-.408-.386c.467-.494.948-.961,1.429-1.39l.373.419C717.338-622.568,716.868-622.111,716.412-621.629Zm18.54-1.812a8.035,8.035,0,0,0-1.339-1.345l.35-.439a8.622,8.622,0,0,1,1.432,1.439Zm-10.82-.159-.561-.034c.03-.483.076-.968.138-1.439.024-.181.049-.361.074-.541l.556.079c-.025.178-.05.356-.073.535C724.205-624.541,724.16-624.07,724.132-623.6Zm-4.817-.606-.33-.454a17.441,17.441,0,0,1,1.682-1.083l.275.489A16.945,16.945,0,0,0,719.315-624.206Zm286.117-.434q-.285-.941-.587-1.875l.534-.173q.3.941.591,1.884ZM732-625.809a10.566,10.566,0,0,0-1.785-.7l.157-.539a11.112,11.112,0,0,1,1.88.733Zm-9.32-.282-.209-.521a13.955,13.955,0,0,1,1.367-.469q.271-.078.549-.142l.126.547c-.175.041-.348.085-.52.135A13.66,13.66,0,0,0,722.683-626.091Zm5.653-.79a11.627,11.627,0,0,0-1.92-.059l-.029-.561a12.2,12.2,0,0,1,2.012.062Zm-3.687-.588-.553-.1c.115-.645.244-1.3.382-1.941l.549.118C724.89-628.753,724.763-628.107,724.649-627.469Zm279.578-.911q-.318-.93-.65-1.855l.529-.19q.333.928.652,1.864ZM725.472-631.3l-.544-.137c.159-.634.333-1.277.515-1.91l.54.155C725.8-632.561,725.63-631.925,725.472-631.3Zm277.427-.782q-.348-.92-.709-1.833l.522-.206q.363.916.712,1.841Zm-276.342-2.984-.534-.173c.2-.623.417-1.253.641-1.872l.528.191C726.97-636.3,726.757-635.68,726.557-635.063Zm274.9-.67q-.377-.906-.768-1.808l.514-.224q.395.906.772,1.817Zm-273.565-3.018-.522-.207c.242-.609.5-1.224.759-1.827l.515.223C728.38-639.964,728.127-639.354,727.887-638.751Zm272-.586q-.406-.9-.826-1.783l.507-.24q.422.892.83,1.791Zm-270.44-3.012-.508-.239c.277-.589.569-1.187.869-1.778l.5.254C730.011-643.526,729.721-642.933,729.446-642.349Zm268.758-.54q-.435-.881-.885-1.754l.5-.257q.453.878.889,1.763Zm-266.985-2.96-.493-.268c.316-.58.642-1.161.97-1.725l.485.282C731.856-647,731.533-646.425,731.219-645.849Zm265.187-.534q-.464-.867-.941-1.725l.491-.273q.48.862.945,1.733Zm-263.215-2.86-.478-.3c.342-.554.7-1.115,1.063-1.668l.469.307C733.885-650.35,733.53-649.793,733.191-649.243Zm261.3-.574q-.492-.85-1-1.693l.481-.289q.507.846,1,1.7Zm-259.153-2.709-.461-.32c.373-.537.759-1.079,1.148-1.61l.453.332C736.1-653.6,735.713-653.059,735.343-652.526Zm257.131-.661q-.52-.834-1.053-1.659l.472-.3q.535.829,1.057,1.667Zm-254.81-2.505-.444-.344c.4-.52.815-1.042,1.227-1.549l.436.354C738.474-656.727,738.064-656.209,737.664-655.692Zm252.677-.795c-.374-.557-.748-1.1-1.112-1.616l.459-.324c.366.519.743,1.066,1.119,1.627Zm-250.2-2.253-.427-.364c.425-.5.863-1,1.3-1.488l.419.374C741-659.731,740.561-659.234,740.139-658.74Zm247.938-.95c-.4-.536-.806-1.056-1.2-1.548l.437-.352c.4.5.807,1.023,1.212,1.564Zm-245.319-1.975-.409-.384c.45-.479.91-.958,1.369-1.425l.4.393C743.663-662.617,743.205-662.141,742.758-661.665Zm242.864-1.075c-.433-.5-.876-.985-1.316-1.448l.407-.386c.446.468.894.961,1.332,1.465ZM745.51-664.465l-.392-.4c.467-.454.949-.912,1.432-1.361l.382.411C746.452-665.371,745.974-664.916,745.51-664.465Zm237.415-1.107c-.47-.449-.957-.89-1.447-1.313l.367-.425c.5.429.991.877,1.468,1.332Zm-234.541-1.565-.373-.42c.489-.434.99-.87,1.491-1.295l.363.427C749.368-668,748.869-667.568,748.384-667.137Zm231.584-.988c-.5-.393-1.031-.785-1.57-1.166l.324-.458c.546.386,1.081.783,1.591,1.181Zm-228.594-1.556-.354-.435c.505-.412,1.024-.827,1.541-1.233l.347.442C752.393-670.5,751.877-670.091,751.374-669.681Zm225.4-.7c-.531-.343-1.09-.69-1.664-1.032l.287-.482c.58.345,1.145.7,1.682,1.042ZM754.465-672.1l-.338-.448q.787-.594,1.587-1.173l.33.454Q755.249-672.7,754.465-672.1Zm218.948-.289c-.547-.3-1.128-.616-1.728-.929l.26-.5c.6.316,1.189.63,1.74.936Zm-3.48-1.838c-.57-.309-1.148-.644-1.719-.995l.294-.478c.562.346,1.131.675,1.693.979Zm-212.289-.179-.321-.46q.809-.566,1.627-1.117l.314.466Q758.45-674.972,757.644-674.41Zm208.908-1.9c-.544-.375-1.083-.769-1.6-1.17l.343-.445c.513.4,1.044.783,1.58,1.153ZM760.9-676.6l-.306-.471q.828-.537,1.664-1.061l.3.475Q761.726-677.14,760.9-676.6Zm3.33-2.087-.29-.48q.843-.512,1.7-1.01l.283.484Q765.074-679.2,764.233-678.692Zm199.176-.042c-.507-.435-1-.884-1.471-1.334l.389-.405c.461.443.948.885,1.447,1.313Zm-195.783-1.945-.277-.488q.858-.486,1.724-.961l.27.492Q768.48-681.163,767.626-680.679Zm192.92-.809c-.455-.494-.892-1-1.3-1.507l.437-.351c.4.5.827.993,1.274,1.478Zm-189.473-1.083-.264-.5q.871-.463,1.748-.916l.258.5Q771.94-683.032,771.073-682.571Zm3.495-1.8-.252-.5q.882-.442,1.769-.874l.246.5Q775.446-684.817,774.568-684.375Zm183.493-.218c-.383-.56-.737-1.13-1.052-1.694l.489-.274c.308.549.653,1.1,1.026,1.651ZM778.1-686.1l-.241-.507q.891-.423,1.787-.836l.235.509Q778.992-686.521,778.1-686.1Zm182.327-.892c-.594,0-1.205-.03-1.815-.09l.055-.558c.592.058,1.184.087,1.76.087h.177l.005.561Zm2.18-.14-.074-.556a14.049,14.049,0,0,0,1.892-.381l.149.542A14.666,14.666,0,0,1,962.611-687.131Zm-5.969-.243c-.647-.129-1.3-.291-1.937-.482l.161-.537c.621.185,1.256.343,1.885.468Zm-174.967-.375-.231-.512q.9-.405,1.8-.8l.226.514Q782.572-688.153,781.675-687.749Zm174.447-.328a16.622,16.622,0,0,1-.684-1.882l.538-.159a16.216,16.216,0,0,0,.661,1.819Zm10.349-.13-.232-.511a11.358,11.358,0,0,0,1.676-.934l.315.465A11.829,11.829,0,0,1,966.471-688.207Zm-13.648-.3c-.595-.229-1.211-.488-1.831-.771l.234-.511c.609.279,1.214.534,1.8.758Zm-167.547-.832-.222-.516q.906-.389,1.815-.771l.218.517Q786.18-689.721,785.276-689.334Zm163.934-.808c-.554-.286-1.124-.594-1.742-.94l.275-.49c.612.343,1.176.648,1.724.931Zm20.573-.344-.4-.389a9.478,9.478,0,0,0,1.175-1.505l.475.3A10.022,10.022,0,0,1,969.783-690.486ZM788.9-690.86l-.214-.519q.912-.375,1.825-.745l.211.521Q789.813-691.234,788.9-690.86ZM955-691.916a13.347,13.347,0,0,1-.151-1.984l.562-.019a12.812,12.812,0,0,0,.144,1.919Zm-9.243-.154c-.567-.333-1.13-.672-1.694-1.011l.29-.481c.562.338,1.124.676,1.689,1.009Zm-153.207-.265-.207-.522q.917-.363,1.834-.722l.2.523Q793.465-692.7,792.551-692.335Zm3.666-1.431-.2-.524q.919-.354,1.842-.7l.2.525Q797.135-694.12,796.217-693.766Zm175.723-.117-.523-.205a9.9,9.9,0,0,0,.523-1.839l.552.1A10.468,10.468,0,0,1,971.94-693.883Zm-29.563-.212q-.5-.3-1-.592-.347-.2-.694-.4l.28-.487q.349.2.7.4c.335.2.67.4,1.005.594ZM799.9-695.16l-.2-.526q.922-.345,1.849-.684l.193.527Q800.821-695.5,799.9-695.16Zm155.667-.675-.554-.09a13.054,13.054,0,0,1,.475-1.954l.534.175A12.422,12.422,0,0,0,955.566-695.835Zm-16.6-.217q-.861-.474-1.73-.932l.262-.5q.873.461,1.739.937ZM803.6-696.515l-.191-.528q.928-.333,1.857-.662l.187.529Q804.522-696.847,803.6-696.515Zm3.71-1.311-.183-.531q.932-.323,1.864-.64l.181.532Q808.236-698.149,807.306-697.826Zm164.778,0a7.761,7.761,0,0,0-.287-1.874l.541-.154a8.387,8.387,0,0,1,.307,2.01Zm-36.593-.056q-.878-.441-1.763-.867l.244-.506q.89.428,1.772.872Zm-124.458-1.209-.177-.532q.936-.312,1.873-.617l.173.534Q811.967-699.4,811.033-699.093Zm145.725-.381-.494-.266a9.142,9.142,0,0,1,1.159-1.664l.423.37A8.614,8.614,0,0,0,956.758-699.474Zm-24.807-.114q-.894-.41-1.793-.8l.225-.514q.9.4,1.8.808Zm-117.176-.724-.17-.534q.939-.3,1.881-.592l.166.536Q815.713-700.611,814.775-700.312Zm113.577-.853q-.906-.38-1.819-.742l.208-.522q.916.366,1.828.746Zm42.686-.262a6.311,6.311,0,0,0-.711-.938,6.2,6.2,0,0,0-.506-.494l.369-.423a6.83,6.83,0,0,1,.551.538,7.043,7.043,0,0,1,.774,1.02Zm-152.505-.053-.163-.537q.944-.286,1.889-.566l.159.539Q819.474-701.765,818.533-701.48Zm140.709-.86-.342-.445a10.934,10.934,0,0,1,1.708-1.075l.255.5A10.367,10.367,0,0,0,959.242-702.34Zm-136.936-.255-.155-.539q.946-.273,1.9-.538l.152.54Q823.251-702.867,822.306-702.595Zm102.395-.023q-.918-.347-1.843-.679l.19-.529q.929.334,1.852.683Zm-98.606-1.036-.147-.542q.951-.258,1.905-.509l.143.543Q827.045-703.911,826.095-703.654Zm142.141-.211a6.95,6.95,0,0,0-1.816-.514l.08-.556a7.524,7.524,0,0,1,1.963.556ZM921-703.946q-.93-.316-1.865-.618l.172-.534q.941.3,1.874.621Zm41.639-.122-.159-.538a10.162,10.162,0,0,1,1.987-.379l.049.559A9.644,9.644,0,0,0,962.643-704.068ZM829.9-704.654l-.139-.545q.957-.243,1.913-.478l.134.545Q830.854-704.9,829.9-704.654Zm87.365-.5q-.939-.287-1.884-.558l.155-.539q.949.273,1.893.56Zm-83.545-.441-.129-.546q.958-.228,1.92-.446l.125.547Q834.678-705.819,833.72-705.593Zm79.769-.645q-.948-.257-1.9-.5l.138-.544q.956.243,1.908.5Zm-75.933-.228-.12-.549q.963-.21,1.928-.412l.115.549Q838.516-706.675,837.556-706.466Zm72.124-.739q-.955-.227-1.915-.44l.122-.548q.963.215,1.923.442Zm-68.275-.067-.11-.55q.968-.193,1.936-.377l.1.551Q842.369-707.465,841.405-707.272Zm3.864-.734-.1-.552q.97-.176,1.943-.341l.094.553Q846.237-708.181,845.269-708.006Zm60.575-.05q-.961-.2-1.927-.383l.1-.551q.969.184,1.936.384Zm-56.7-.61-.089-.555q.975-.156,1.949-.3l.084.555Q850.116-708.822,849.146-708.666Zm52.838-.127q-.968-.171-1.938-.327l.09-.554q.973.158,1.945.328Zm-48.947-.456-.078-.556q.977-.137,1.955-.263l.071.557Q854.012-709.385,853.037-709.249Zm45.067-.169q-.972-.142-1.947-.272l.074-.556q.978.129,1.954.272Zm-41.167-.334-.066-.558q.98-.116,1.96-.221l.06.558Q857.913-709.868,856.937-709.752Zm37.271-.182q-.977-.115-1.954-.217l.058-.558q.982.1,1.961.218Zm-33.36-.238-.054-.559q.982-.094,1.965-.178l.047.559Q861.827-710.266,860.848-710.172Zm29.45-.17q-.979-.089-1.959-.164l.043-.56q.984.076,1.966.165Zm-25.531-.163-.041-.56q.982-.072,1.968-.134l.035.561Q865.746-710.578,864.767-710.505Zm21.611-.139q-.981-.063-1.963-.112l.029-.561q.986.05,1.97.112Zm-17.685-.105-.028-.561q.984-.05,1.971-.087l.021.561Q869.675-710.8,868.693-710.749Zm13.758-.094q-.982-.037-1.965-.061l.013-.562q.987.026,1.973.062Zm-9.829-.056-.015-.561q.987-.025,1.973-.039l.008.562Q873.6-710.923,872.622-710.9Zm5.9-.041c-.616-.008-1.232-.013-1.849-.011h-.117v-.562h.117c.623,0,1.237,0,1.855.011Z" fill="#fff"/>
      </g>
      <g id="Grupo_12828" data-name="Grupo 12828">
        <path id="Trazado_11587" data-name="Trazado 11587" d="M702.448-574.466l-.561-.032.058-.983.56.034Z" fill="#fff"/>
      </g>
    </g>
    <g id="Grupo_12849" data-name="Grupo 12849">
      <g id="Grupo_12831" data-name="Grupo 12831">
        <path id="Trazado_11588" data-name="Trazado 11588" d="M1033.107-546.237a9.377,9.377,0,0,1-9.366-9.366,9.376,9.376,0,0,1,9.366-9.366,9.376,9.376,0,0,1,9.366,9.366A9.377,9.377,0,0,1,1033.107-546.237Z" fill="#f4f4ef"/>
        <g id="Grupo_12830" data-name="Grupo 12830">
          <path id="Trazado_11589" data-name="Trazado 11589" d="M1033.107-564.642a9.049,9.049,0,0,1,9.039,9.039,9.049,9.049,0,0,1-9.039,9.039,9.049,9.049,0,0,1-9.039-9.039,9.049,9.049,0,0,1,9.039-9.039Zm0-.654a9.693,9.693,0,0,0-9.692,9.693,9.693,9.693,0,0,0,9.692,9.693,9.693,9.693,0,0,0,9.693-9.693,9.693,9.693,0,0,0-9.693-9.693Z" fill="#1aa6ab"/>
        </g>
      </g>
      <g id="Grupo_12848" data-name="Grupo 12848">
        <g id="Grupo_12837" data-name="Grupo 12837">
          <g id="Grupo_12832" data-name="Grupo 12832">
            <path id="Trazado_11590" data-name="Trazado 11590" d="M1028.964-552.26a.258.258,0,0,1-.1-.021c-1.392-.623-2.437-.921-3.012-.346a.248.248,0,0,1-.351,0,.247.247,0,0,1,0-.352c.862-.862,2.292-.326,3.566.244a.248.248,0,0,1,.125.328A.247.247,0,0,1,1028.964-552.26Z" fill="#f87314"/>
          </g>
          <g id="Grupo_12833" data-name="Grupo 12833">
            <path id="Trazado_11591" data-name="Trazado 11591" d="M1032.765-550.886a6.42,6.42,0,0,1-2.407-.705.248.248,0,0,1-.124-.329.248.248,0,0,1,.328-.125c1.4.63,2.457.932,3.033.356.728-.728.005-2.273-.693-3.767-.772-1.65-1.57-3.355-.595-4.329.86-.862,2.283-.33,3.549.236a.248.248,0,0,1,.125.328.248.248,0,0,1-.328.126c-1.383-.618-2.421-.912-2.995-.339-.728.728-.005,2.273.694,3.767.772,1.649,1.569,3.355.595,4.329A1.6,1.6,0,0,1,1032.765-550.886Z" fill="#f87314"/>
          </g>
          <g id="Grupo_12834" data-name="Grupo 12834">
            <path id="Trazado_11592" data-name="Trazado 11592" d="M1039.571-557.693a6.421,6.421,0,0,1-2.406-.705.249.249,0,0,1-.125-.329.249.249,0,0,1,.329-.125c1.4.631,2.457.932,3.033.356a.248.248,0,0,1,.351,0,.248.248,0,0,1,0,.352A1.6,1.6,0,0,1,1039.571-557.693Z" fill="#f87314"/>
          </g>
          <g id="Grupo_12835" data-name="Grupo 12835">
            <path id="Trazado_11593" data-name="Trazado 11593" d="M1030.368-547.862a.25.25,0,0,1-.176-.072.249.249,0,0,1,0-.352c.728-.728.005-2.273-.694-3.767-.772-1.649-1.569-3.355-.6-4.329.86-.86,2.277-.332,3.538.231a.249.249,0,0,1,.126.328.249.249,0,0,1-.329.126c-1.191-.532-2.377-.94-2.983-.333-.728.727-.005,2.272.693,3.767.772,1.649,1.57,3.354.595,4.329A.247.247,0,0,1,1030.368-547.862Z" fill="#f87314"/>
          </g>
          <g id="Grupo_12836" data-name="Grupo 12836">
            <path id="Trazado_11594" data-name="Trazado 11594" d="M1036.173-554.293a6.166,6.166,0,0,1-2.306-.655.248.248,0,0,1-.127-.328.249.249,0,0,1,.328-.127c1.167.517,2.329.913,2.931.31.727-.727.005-2.272-.694-3.766-.772-1.65-1.57-3.355-.6-4.329a.247.247,0,0,1,.352,0,.248.248,0,0,1,0,.351c-.727.728-.005,2.273.694,3.767.772,1.649,1.569,3.355.595,4.329A1.59,1.59,0,0,1,1036.173-554.293Z" fill="#f87314"/>
          </g>
        </g>
        <g id="Grupo_12838" data-name="Grupo 12838">
          <path id="Trazado_11595" data-name="Trazado 11595" d="M1040.064-558.708a.124.124,0,0,1-.088-.036l-3.74-3.74a.126.126,0,0,1,0-.178.126.126,0,0,1,.178,0l3.739,3.74a.126.126,0,0,1,0,.178A.124.124,0,0,1,1040.064-558.708Z" fill="#f87314"/>
        </g>
        <g id="Grupo_12839" data-name="Grupo 12839">
          <path id="Trazado_11596" data-name="Trazado 11596" d="M1038.519-558.75a.127.127,0,0,1-.089-.037l-2.151-2.151a.126.126,0,0,1,0-.178.126.126,0,0,1,.178,0l2.151,2.151a.126.126,0,0,1,0,.178A.129.129,0,0,1,1038.519-558.75Z" fill="#f87314"/>
        </g>
        <g id="Grupo_12840" data-name="Grupo 12840">
          <path id="Trazado_11597" data-name="Trazado 11597" d="M1036.648-556.937a.125.125,0,0,1-.089-.037l-2.065-2.065a.126.126,0,0,1,0-.178.128.128,0,0,1,.178,0l2.065,2.066a.125.125,0,0,1,0,.177A.125.125,0,0,1,1036.648-556.937Z" fill="#f87314"/>
        </g>
        <g id="Grupo_12841" data-name="Grupo 12841">
          <path id="Trazado_11598" data-name="Trazado 11598" d="M1036.579-555.268a.124.124,0,0,1-.088-.036l-3.666-3.666a.126.126,0,0,1,0-.178.125.125,0,0,1,.177,0l3.666,3.666a.126.126,0,0,1,0,.178A.124.124,0,0,1,1036.579-555.268Z" fill="#f87314"/>
        </g>
        <g id="Grupo_12842" data-name="Grupo 12842">
          <path id="Trazado_11599" data-name="Trazado 11599" d="M1034.91-555.2a.125.125,0,0,1-.089-.037l-2.065-2.065a.126.126,0,0,1,0-.178.126.126,0,0,1,.178,0l2.065,2.065a.126.126,0,0,1,0,.178A.123.123,0,0,1,1034.91-555.2Z" fill="#f87314"/>
        </g>
        <g id="Grupo_12843" data-name="Grupo 12843">
          <path id="Trazado_11600" data-name="Trazado 11600" d="M1033.3-553.62a.128.128,0,0,1-.089-.036l-2.065-2.066a.126.126,0,0,1,0-.178.128.128,0,0,1,.178,0l2.065,2.066a.126.126,0,0,1,0,.178A.125.125,0,0,1,1033.3-553.62Z" fill="#f87314"/>
        </g>
        <g id="Grupo_12844" data-name="Grupo 12844">
          <path id="Trazado_11601" data-name="Trazado 11601" d="M1033.234-551.951a.128.128,0,0,1-.089-.036l-3.666-3.666a.126.126,0,0,1,0-.178.126.126,0,0,1,.178,0l3.666,3.666a.126.126,0,0,1,0,.178A.128.128,0,0,1,1033.234-551.951Z" fill="#f87314"/>
        </g>
        <g id="Grupo_12845" data-name="Grupo 12845">
          <path id="Trazado_11602" data-name="Trazado 11602" d="M1031.565-551.882a.125.125,0,0,1-.089-.037l-2.065-2.065a.126.126,0,0,1,0-.178.125.125,0,0,1,.177,0l2.066,2.065a.126.126,0,0,1,0,.178A.125.125,0,0,1,1031.565-551.882Z" fill="#f87314"/>
        </g>
        <g id="Grupo_12846" data-name="Grupo 12846">
          <path id="Trazado_11603" data-name="Trazado 11603" d="M1029.886-550.2a.128.128,0,0,1-.089-.036l-2.065-2.066a.126.126,0,0,1,0-.178.128.128,0,0,1,.178,0l2.065,2.066a.126.126,0,0,1,0,.178A.125.125,0,0,1,1029.886-550.2Z" fill="#f87314"/>
        </g>
        <g id="Grupo_12847" data-name="Grupo 12847">
          <path id="Trazado_11604" data-name="Trazado 11604" d="M1029.818-548.534a.129.129,0,0,1-.089-.037l-3.666-3.666a.126.126,0,0,1,0-.178.126.126,0,0,1,.178,0l3.666,3.666a.126.126,0,0,1,0,.178A.129.129,0,0,1,1029.818-548.534Z" fill="#f87314"/>
        </g>
      </g>
    </g>
    <g id="Grupo_12856" data-name="Grupo 12856">
      <g id="Grupo_12850" data-name="Grupo 12850">
        <circle id="Elipse_658" data-name="Elipse 658" cx="9.039" cy="9.039" r="9.039" transform="translate(729.387 -650.839) rotate(-82.027)" fill="#f4f4ef"/>
        <path id="Trazado_11605" data-name="Trazado 11605" d="M739.591-649.175a9.373,9.373,0,0,1-9.361-9.362,9.372,9.372,0,0,1,9.361-9.361,9.372,9.372,0,0,1,9.362,9.361A9.373,9.373,0,0,1,739.591-649.175Zm0-18.077a8.725,8.725,0,0,0-8.715,8.715,8.726,8.726,0,0,0,8.715,8.716,8.726,8.726,0,0,0,8.716-8.716A8.725,8.725,0,0,0,739.591-667.252Z" fill="#1aa6ab"/>
      </g>
      <g id="Grupo_12855" data-name="Grupo 12855">
        <g id="Grupo_12851" data-name="Grupo 12851">
          <path id="Trazado_11606" data-name="Trazado 11606" d="M739.7-652.5a5.2,5.2,0,0,1-5.2-5.2v-4.137a2.208,2.208,0,0,1,2.206-2.206h1.341v.645h-1.341a1.562,1.562,0,0,0-1.56,1.561v4.137a4.557,4.557,0,0,0,4.552,4.552,4.557,4.557,0,0,0,4.552-4.552v-4.137a1.563,1.563,0,0,0-1.561-1.561h-1.351v-.645h1.351a2.208,2.208,0,0,1,2.206,2.206v4.137A5.2,5.2,0,0,1,739.7-652.5Z" fill="#f87314"/>
        </g>
        <g id="Grupo_12852" data-name="Grupo 12852">
          <path id="Trazado_11607" data-name="Trazado 11607" d="M745.011-647.189a5.644,5.644,0,0,1-5.637-5.637h.645a5,5,0,0,0,4.992,4.992A5,5,0,0,0,750-652.826h.645A5.644,5.644,0,0,1,745.011-647.189Z" fill="#f87314"/>
        </g>
        <path id="Trazado_11608" data-name="Trazado 11608" d="M737.465-663.722a.581.581,0,0,1,.581-.58.581.581,0,0,1,.581.58.581.581,0,0,1-.581.581A.581.581,0,0,1,737.465-663.722Z" fill="#f87314"/>
        <path id="Trazado_11609" data-name="Trazado 11609" d="M740.78-663.722a.581.581,0,0,1,.581-.58.58.58,0,0,1,.58.58.581.581,0,0,1-.58.581A.581.581,0,0,1,740.78-663.722Z" fill="#f87314"/>
        <g id="Grupo_12853" data-name="Grupo 12853">
          <path id="Trazado_11610" data-name="Trazado 11610" d="M752.225-652.826a1.9,1.9,0,0,1-1.9,1.9,1.9,1.9,0,0,1-1.9-1.9,1.9,1.9,0,0,1,1.9-1.9A1.9,1.9,0,0,1,752.225-652.826Z" fill="#f4f4ef"/>
          <path id="Trazado_11611" data-name="Trazado 11611" d="M750.325-650.6a2.225,2.225,0,0,1-2.222-2.222,2.225,2.225,0,0,1,2.222-2.223,2.225,2.225,0,0,1,2.223,2.223A2.225,2.225,0,0,1,750.325-650.6Zm0-3.8a1.578,1.578,0,0,0-1.576,1.577,1.579,1.579,0,0,0,1.576,1.577,1.579,1.579,0,0,0,1.577-1.577A1.578,1.578,0,0,0,750.325-654.4Z" fill="#f87314"/>
        </g>
        <g id="Grupo_12854" data-name="Grupo 12854">
          <path id="Trazado_11612" data-name="Trazado 11612" d="M751.12-652.826a.794.794,0,0,1-.795.794.794.794,0,0,1-.794-.794.794.794,0,0,1,.794-.794A.794.794,0,0,1,751.12-652.826Z" fill="#f4f4ef"/>
          <path id="Trazado_11613" data-name="Trazado 11613" d="M750.325-651.709a1.119,1.119,0,0,1-1.117-1.117,1.119,1.119,0,0,1,1.117-1.117,1.118,1.118,0,0,1,1.118,1.117A1.118,1.118,0,0,1,750.325-651.709Zm0-1.589a.473.473,0,0,0-.471.472.472.472,0,0,0,.471.471.472.472,0,0,0,.472-.471A.473.473,0,0,0,750.325-653.3Z" fill="#f87314"/>
        </g>
      </g>
    </g>
    <g id="Grupo_12861" data-name="Grupo 12861">
      <g id="Grupo_12857" data-name="Grupo 12857">
        <circle id="Elipse_659" data-name="Elipse 659" cx="9.039" cy="9.039" r="9.039" transform="translate(976.678 -670.592) rotate(-2.597)" fill="#f4f4ef"/>
        <path id="Trazado_11614" data-name="Trazado 11614" d="M986.117-652.61a9.373,9.373,0,0,1-9.362-9.362,9.372,9.372,0,0,1,9.362-9.361,9.371,9.371,0,0,1,9.361,9.361A9.372,9.372,0,0,1,986.117-652.61Zm0-18.078a8.726,8.726,0,0,0-8.716,8.716,8.726,8.726,0,0,0,8.716,8.716,8.726,8.726,0,0,0,8.716-8.716A8.726,8.726,0,0,0,986.117-670.688Z" fill="#1aa6ab"/>
      </g>
      <g id="Grupo_12860" data-name="Grupo 12860">
        <g id="Grupo_12858" data-name="Grupo 12858">
          <path id="Trazado_11615" data-name="Trazado 11615" d="M988.155-657.7h-4.077a4.324,4.324,0,0,1-4.324-4.324h0a4.324,4.324,0,0,1,4.324-4.324h4.077a4.324,4.324,0,0,1,4.325,4.324h0A4.324,4.324,0,0,1,988.155-657.7Z" fill="#f4f4ef"/>
          <path id="Trazado_11616" data-name="Trazado 11616" d="M990.429-657.46H981.8a2.294,2.294,0,0,1-2.292-2.292V-664.3a2.3,2.3,0,0,1,2.292-2.293h8.625a2.3,2.3,0,0,1,2.293,2.293v4.548A2.3,2.3,0,0,1,990.429-657.46Zm-8.625-8.648A1.81,1.81,0,0,0,980-664.3v4.548a1.81,1.81,0,0,0,1.808,1.808h8.625a1.811,1.811,0,0,0,1.809-1.808V-664.3a1.811,1.811,0,0,0-1.809-1.808Z" fill="#f87314"/>
        </g>
        <g id="Grupo_12859" data-name="Grupo 12859">
          <path id="Trazado_11617" data-name="Trazado 11617" d="M983.546-662.026a2.571,2.571,0,0,1,2.571-2.571,2.571,2.571,0,0,1,2.57,2.571,2.57,2.57,0,0,1-2.57,2.57A2.57,2.57,0,0,1,983.546-662.026Z" fill="#f4f4ef"/>
          <path id="Trazado_11618" data-name="Trazado 11618" d="M986.117-659.254a2.775,2.775,0,0,1-2.773-2.772,2.775,2.775,0,0,1,2.773-2.772,2.775,2.775,0,0,1,2.772,2.772A2.775,2.775,0,0,1,986.117-659.254Zm0-5.141a2.372,2.372,0,0,0-2.369,2.369,2.372,2.372,0,0,0,2.369,2.369,2.372,2.372,0,0,0,2.369-2.369A2.372,2.372,0,0,0,986.117-664.4Z" fill="#f87314"/>
        </g>
        <rect id="Rectángulo_3329" data-name="Rectángulo 3329" width="1.002" height="2.762" transform="translate(985.616 -663.407)" fill="#f87314"/>
        <rect id="Rectángulo_3330" data-name="Rectángulo 3330" width="1.002" height="2.762" transform="translate(987.498 -662.527) rotate(90)" fill="#f87314"/>
        <path id="Trazado_11619" data-name="Trazado 11619" d="M988.9-667.7h0a.5.5,0,0,1-.5.5h-4.56a.5.5,0,0,1-.5-.5h0a.5.5,0,0,1,.5-.5h4.56A.5.5,0,0,1,988.9-667.7Z" fill="#f87314"/>
      </g>
    </g>
    <g id="Grupo_12868" data-name="Grupo 12868">
      <g id="Grupo_12862" data-name="Grupo 12862">
        <circle id="Elipse_660" data-name="Elipse 660" cx="9.039" cy="9.039" r="9.039" transform="translate(906.879 -703.216) rotate(-88.494)" fill="#f4f4ef"/>
        <path id="Trazado_11620" data-name="Trazado 11620" d="M916.152-702.652a9.373,9.373,0,0,1-9.362-9.361,9.373,9.373,0,0,1,9.362-9.362,9.372,9.372,0,0,1,9.361,9.362A9.372,9.372,0,0,1,916.152-702.652Zm0-18.077a8.726,8.726,0,0,0-8.716,8.716,8.725,8.725,0,0,0,8.716,8.715,8.725,8.725,0,0,0,8.716-8.715A8.726,8.726,0,0,0,916.152-720.729Z" fill="#1aa6ab"/>
      </g>
      <g id="Grupo_12867" data-name="Grupo 12867">
        <g id="Grupo_12863" data-name="Grupo 12863">
          <path id="Trazado_11621" data-name="Trazado 11621" d="M914.408-715.944h4.083a4.331,4.331,0,0,1,4.331,4.331h0a4.331,4.331,0,0,1-4.331,4.33h-4.083a4.331,4.331,0,0,1-4.331-4.33h0A4.331,4.331,0,0,1,914.408-715.944Z" fill="#f4f4ef"/>
          <path id="Trazado_11622" data-name="Trazado 11622" d="M920.768-707.041h-8.637a2.3,2.3,0,0,1-2.3-2.295v-4.555a2.3,2.3,0,0,1,2.3-2.295h8.637a2.3,2.3,0,0,1,2.3,2.295v4.555A2.3,2.3,0,0,1,920.768-707.041Zm-8.637-8.661a1.814,1.814,0,0,0-1.812,1.811v4.555a1.813,1.813,0,0,0,1.812,1.811h8.637a1.813,1.813,0,0,0,1.812-1.811v-4.555a1.814,1.814,0,0,0-1.812-1.811Z" fill="#f87314"/>
        </g>
        <path id="Trazado_11623" data-name="Trazado 11623" d="M913.664-705.932h0a.5.5,0,0,1,.5-.5h4.567a.5.5,0,0,1,.5.5h0a.5.5,0,0,1-.5.5h-4.567A.5.5,0,0,1,913.664-705.932Z" fill="#f87314"/>
        <g id="Grupo_12866" data-name="Grupo 12866">
          <g id="Grupo_12864" data-name="Grupo 12864">
            <path id="Trazado_11624" data-name="Trazado 11624" d="M918.017-706.368a.6.6,0,0,1-.577-.452l-.934-3.766-.22.82a.6.6,0,0,1-.574.441h-4.439a.6.6,0,0,1-.594-.595.594.594,0,0,1,.594-.594h3.983l.7-2.6a.593.593,0,0,1,.574-.44h.005a.6.6,0,0,1,.572.451l.672,2.71.783-7.5a.6.6,0,0,1,.586-.532h.006a.594.594,0,0,1,.589.521l.925,7.4h1.23a.594.594,0,0,1,.6.594.6.6,0,0,1-.6.595h-1.755a.6.6,0,0,1-.589-.521l-.347-2.776-.6,5.721a.594.594,0,0,1-.55.531Z" fill="#f4f4ef"/>
          </g>
          <g id="Grupo_12865" data-name="Grupo 12865">
            <path id="Trazado_11625" data-name="Trazado 11625" d="M918.017-706.708a.254.254,0,0,1-.247-.194l-1.251-5.042-.561,2.09a.255.255,0,0,1-.246.189h-4.439a.255.255,0,0,1-.254-.255.255.255,0,0,1,.254-.255h4.243l.767-2.854a.255.255,0,0,1,.248-.189.255.255,0,0,1,.245.194l1.139,4.59.984-9.431a.255.255,0,0,1,.251-.228h0a.255.255,0,0,1,.252.223l.962,7.7h1.53a.255.255,0,0,1,.255.255.255.255,0,0,1-.255.255h-1.755a.255.255,0,0,1-.252-.223l-.715-5.715-.9,8.667a.253.253,0,0,1-.235.227Z" fill="#f87314"/>
          </g>
        </g>
      </g>
    </g>
    <g id="Grupo_12880" data-name="Grupo 12880">
      <g id="Grupo_12869" data-name="Grupo 12869">
        <circle id="Elipse_661" data-name="Elipse 661" cx="8.002" cy="8.002" r="8.002" transform="translate(1003.782 -608.227) rotate(-5.655)" fill="#f4f4ef"/>
        <path id="Trazado_11626" data-name="Trazado 11626" d="M1012.534-608.8a7.753,7.753,0,0,1,7.744,7.744,7.753,7.753,0,0,1-7.744,7.744,7.753,7.753,0,0,1-7.744-7.744,7.753,7.753,0,0,1,7.744-7.744Zm0-.517a8.261,8.261,0,0,0-8.261,8.261,8.262,8.262,0,0,0,8.261,8.261,8.261,8.261,0,0,0,8.261-8.261,8.26,8.26,0,0,0-8.261-8.261Z" fill="#1aa6ab"/>
      </g>
      <g id="Grupo_12879" data-name="Grupo 12879">
        <path id="Trazado_11627" data-name="Trazado 11627" d="M1017.081-606.01a1.534,1.534,0,0,0-2.133.131l-5.549,5.961a1.5,1.5,0,0,0-.4,1.135,1.071,1.071,0,0,1-.3.8L1007.7-596.9a.7.7,0,0,0,0,.975.685.685,0,0,0,.984-.02l1.029-1.1a1.073,1.073,0,0,1,.781-.354,1.493,1.493,0,0,0,1.1-.477l5.584-6A1.5,1.5,0,0,0,1017.081-606.01Z" fill="#f87314"/>
        <path id="Trazado_11628" data-name="Trazado 11628" d="M1008.17-596.99c-.421.452-.513.687-.285.9.2.184.4.161.894-.366l.677-.727a.115.115,0,0,0-.006-.162l-.425-.4a.115.115,0,0,0-.162.006Z" fill="#f4f4ef"/>
        <path id="Trazado_11629" data-name="Trazado 11629" d="M1015.762-605.35a.544.544,0,0,1,.769-.027.543.543,0,0,1,.027.768.544.544,0,0,1-.769.028A.544.544,0,0,1,1015.762-605.35Z" fill="#f4f4ef"/>
        <g id="Grupo_12870" data-name="Grupo 12870">
          <rect id="Rectángulo_3331" data-name="Rectángulo 3331" width="11.027" height="0.353" transform="translate(1008.517 -597.029) rotate(-47.051)" fill="#f4f4ef"/>
        </g>
        <g id="Grupo_12878" data-name="Grupo 12878">
          <g id="Grupo_12871" data-name="Grupo 12871">
            <path id="Trazado_11630" data-name="Trazado 11630" d="M1015.606-603.421a.178.178,0,0,1-.11-.047l-.8-.741a.176.176,0,0,1-.009-.25.177.177,0,0,1,.249-.009l.8.742a.177.177,0,0,1,.009.249A.178.178,0,0,1,1015.606-603.421Z" fill="#f4f4ef"/>
          </g>
          <g id="Grupo_12872" data-name="Grupo 12872">
            <path id="Trazado_11631" data-name="Trazado 11631" d="M1014.8-602.56a.174.174,0,0,1-.11-.047l-.8-.741a.178.178,0,0,1-.009-.25.178.178,0,0,1,.25-.009l.8.742a.175.175,0,0,1,.009.249A.176.176,0,0,1,1014.8-602.56Z" fill="#f4f4ef"/>
          </g>
          <g id="Grupo_12873" data-name="Grupo 12873">
            <path id="Trazado_11632" data-name="Trazado 11632" d="M1014-601.7a.178.178,0,0,1-.11-.047l-.8-.742a.177.177,0,0,1-.009-.249.177.177,0,0,1,.249-.009l.8.741a.178.178,0,0,1,.009.25A.178.178,0,0,1,1014-601.7Z" fill="#f4f4ef"/>
          </g>
          <g id="Grupo_12874" data-name="Grupo 12874">
            <path id="Trazado_11633" data-name="Trazado 11633" d="M1013.2-600.838a.179.179,0,0,1-.11-.047l-.8-.742a.177.177,0,0,1-.009-.249.178.178,0,0,1,.25-.009l.8.741a.176.176,0,0,1,.009.25A.176.176,0,0,1,1013.2-600.838Z" fill="#f4f4ef"/>
          </g>
          <g id="Grupo_12875" data-name="Grupo 12875">
            <path id="Trazado_11634" data-name="Trazado 11634" d="M1012.4-599.977a.184.184,0,0,1-.11-.047l-.8-.742a.177.177,0,0,1-.009-.249.176.176,0,0,1,.249-.009l.8.741a.178.178,0,0,1,.009.25A.176.176,0,0,1,1012.4-599.977Z" fill="#f4f4ef"/>
          </g>
          <g id="Grupo_12876" data-name="Grupo 12876">
            <path id="Trazado_11635" data-name="Trazado 11635" d="M1011.6-599.117a.168.168,0,0,1-.11-.047l-.8-.741a.176.176,0,0,1-.008-.249.176.176,0,0,1,.249-.009l.8.741a.176.176,0,0,1,.009.25A.178.178,0,0,1,1011.6-599.117Z" fill="#f4f4ef"/>
          </g>
          <g id="Grupo_12877" data-name="Grupo 12877">
            <path id="Trazado_11636" data-name="Trazado 11636" d="M1010.8-598.256a.178.178,0,0,1-.11-.047l-.8-.741a.177.177,0,0,1-.009-.249.175.175,0,0,1,.249-.009l.8.741a.177.177,0,0,1,.009.249A.178.178,0,0,1,1010.8-598.256Z" fill="#f4f4ef"/>
          </g>
        </g>
      </g>
    </g>
    <g id="Grupo_12884" data-name="Grupo 12884">
      <path id="Trazado_11637" data-name="Trazado 11637" d="M817.24-678.492l-.8.16a6.957,6.957,0,0,0,.8-3.242v-5.74a6.993,6.993,0,0,0-6.994-6.993H776.517a6.993,6.993,0,0,0-6.993,6.993v5.74a6.993,6.993,0,0,0,6.993,6.993h33.729a6.817,6.817,0,0,0,.689-.035c3.79,1.946,9.2,4.789,9.721,5.443C821.47-668.155,817.24-678.492,817.24-678.492Z" fill="#ffb833"/>
      <g id="Grupo_12881" data-name="Grupo 12881">
        <rect id="Rectángulo_3332" data-name="Rectángulo 3332" width="4.15" height="2.548" transform="translate(774.66 -690.977)" fill="#fff"/>
        <rect id="Rectángulo_3333" data-name="Rectángulo 3333" width="29.744" height="2.548" transform="translate(781.556 -690.977)" fill="#fff"/>
      </g>
      <g id="Grupo_12882" data-name="Grupo 12882">
        <rect id="Rectángulo_3334" data-name="Rectángulo 3334" width="16.947" height="2.548" transform="translate(774.66 -685.606)" fill="#fff"/>
        <rect id="Rectángulo_3335" data-name="Rectángulo 3335" width="16.947" height="2.548" transform="translate(794.352 -685.606)" fill="#fff"/>
      </g>
      <g id="Grupo_12883" data-name="Grupo 12883">
        <rect id="Rectángulo_3336" data-name="Rectángulo 3336" width="11.828" height="2.548" transform="translate(774.66 -680.236)" fill="#fff"/>
        <rect id="Rectángulo_3337" data-name="Rectángulo 3337" width="22.065" height="2.548" transform="translate(789.234 -680.236)" fill="#fff"/>
      </g>
    </g>
    <g id="Grupo_12901" data-name="Grupo 12901">
      <g id="Grupo_12900" data-name="Grupo 12900" clip-path="url(#clip-path)">
        <g id="Grupo_12899" data-name="Grupo 12899">
          <g id="Grupo_12885" data-name="Grupo 12885">
            <path id="Trazado_11638" data-name="Trazado 11638" d="M855.193-559.668a1.157,1.157,0,0,1-.946-.487c-19.859-27.816-27.655-53.836-20.856-69.6,3.427-7.946,10.485-12.867,20.412-14.23a1.161,1.161,0,0,1,1.309.993,1.161,1.161,0,0,1-.993,1.309c-9.207,1.265-15.463,5.588-18.6,12.849-6.474,15.012,1.232,40.182,20.613,67.331a1.161,1.161,0,0,1-.27,1.62A1.15,1.15,0,0,1,855.193-559.668Z" fill="#232b59"/>
          </g>
          <g id="Grupo_12886" data-name="Grupo 12886">
            <path id="Trazado_11639" data-name="Trazado 11639" d="M886.568-559.668a1.142,1.142,0,0,1-.265-.031,1.163,1.163,0,0,1-.868-1.4c7.943-34,2.611-58.4-5.028-69.9-3.342-5.029-7.292-8.059-11.422-8.761a1.161,1.161,0,0,1-.951-1.34,1.16,1.16,0,0,1,1.34-.95c4.778.812,9.263,4.188,12.969,9.765,7.907,11.9,13.466,36.986,5.355,71.71A1.162,1.162,0,0,1,886.568-559.668Z" fill="#232b59"/>
          </g>
          <path id="Trazado_11640" data-name="Trazado 11640" d="M915.763-596.86C919.3-593.9,933.2-525.687,931.1-507.6c-2.943,25.4-18.779,61.792-18.779,61.792l-28.315,4.647S885.651-622.069,915.763-596.86Z" fill="#f19e86"/>
          <path id="Trazado_11641" data-name="Trazado 11641" d="M911.165-460.157S890.616-262.933,884.63-234.011c-1.083,5.232-32.568,3.444-33.291-1.85-2.816-20.61-15.5-63.3-13.093-82.372,1.074-8.5,7.505-23.706,11.8-34.029,5.365-12.892-20.39-85.413-.307-142.281C855.172-509.925,911.165-460.157,911.165-460.157Z" fill="#234f73"/>
          <path id="Trazado_11642" data-name="Trazado 11642" d="M879.495-478S864.834-262.432,860.37-233.237c-.808,5.282-42.74,6.782-45.064-5.341-3.916-20.429-2.929-58.751-1.522-77.918.627-8.541,6.254-24.067,10-34.6,4.683-13.155-24.832-84.229-7.754-142.07C820.653-508.811,879.495-478,879.495-478Z" fill="#275c85"/>
          <path id="Trazado_11643" data-name="Trazado 11643" d="M904.768-461.879c-.775,6.2,4.083,15.181,7.552,16.073,0,5.78-5.61,15.3-8.579,23.039-3.224,8.408-15.53-16.456-15.53-16.456Z" fill="#234f73"/>
          <path id="Trazado_11644" data-name="Trazado 11644" d="M860.954-635.443c19.365,2.015,47.771,17.653,54.809,38.583,3.971,11.809-4.6,136.7-4.6,136.7L807.14-457.568s7.133-31.235,7.876-39.41c1.777-19.559-8.255-81.694-20.57-103.685C785.774-616.147,844.052-637.2,860.954-635.443Z" fill="#f4f4ef"/>
          <path id="Trazado_11645" data-name="Trazado 11645" d="M872.2-662.318s5.185,34.315,4.944,35.295c-.458,1.857-3.154,21.29-6.3,23.108-4.584,2.646-30.644-19.026-32.346-23.108-.375-.9,4.459-39.344,4.459-39.344Z" fill="#f19e86"/>
          <g id="Grupo_12889" data-name="Grupo 12889">
            <path id="Trazado_11646" data-name="Trazado 11646" d="M879.068-671.766c3.377-19.825-.947-31.049-2.846-33.776-2.661-3.818-34.161-6.021-39.154,2.2s-2.349,28.343-.294,31.573,24.965,6.168,24.965,6.168Z" fill="#6b614f"/>
            <path id="Trazado_11647" data-name="Trazado 11647" d="M872.9-694.234c3.159,3.984,4.073,8.73,4.161,17.031,7-11.744,4.65,14.542-.549,11.922-.827,8.489-5.19,17.614-12.57,21.674-4.072,2.239-7.109,2.113-9.98.771-9.111-4.259-13.419-14.24-14.3-21.527-2.58.138-5.477-8.783-5.232-13.717.168-3.388,2.765-4.9,4.166-.3-.272-9.045.666-13.893,2.59-15.858,2.427-2.479,9.75,5,19.824,5.039C870.437-689.162,870.912-696.742,872.9-694.234Z" fill="#f5b48d"/>
            <g id="Grupo_12887" data-name="Grupo 12887">
              <path id="Trazado_11648" data-name="Trazado 11648" d="M849.933-664.231a74.785,74.785,0,0,1-8.759-.445,2.113,2.113,0,0,1-1.248-1.371c-.934-2.246-1.615-8.962-1.011-9.981.217-.366.625-.553,1.618-.746,2.863-.557,12.782-1.258,15.109.514h0c.28.213,1.024.781,1.095,4.8.011.58.067,5.689-1.072,6.622C855.109-664.38,852.665-664.231,849.933-664.231Zm-8.282-2c1.627.337,11.427.613,12.969.127.577-1.2.752-7.9.016-8.89-1.783-1.277-12.418-.735-14.356-.074C840.077-673.648,840.817-667.12,841.651-666.228Zm.034.034Zm-1.578-8.8Z" fill="#423c32"/>
            </g>
            <g id="Grupo_12888" data-name="Grupo 12888">
              <path id="Trazado_11649" data-name="Trazado 11649" d="M866.955-664.229c-2.733,0-5.177-.151-5.732-.607-1.14-.933-1.083-6.042-1.073-6.622.071-4.02.815-4.588,1.095-4.8h0c2.33-1.775,12.25-1.071,15.112-.514.992.193,1.4.382,1.615.746.621,1.047-.05,7.668-1.011,9.98a2.111,2.111,0,0,1-1.248,1.372A74.581,74.581,0,0,1,866.955-664.229Zm-4.687-1.872c1.543.484,11.344.209,12.968-.127.822-.879,1.551-7.223,1.343-8.847-2.009-.654-12.551-1.186-14.328.084C861.515-674,861.69-667.3,862.268-666.1Zm12.934-.093Zm1.578-8.8Z" fill="#423c32"/>
            </g>
          </g>
          <path id="Trazado_11650" data-name="Trazado 11650" d="M793.646-603.69c-16.506,26.416-20.381,93.06-16.531,105.972,6.971,23.383,44.925,61.981,44.925,61.981l6.971-15.061s-21-47.351-20.914-56.8,5.436-30.9,5.436-41.687S793.646-603.69,793.646-603.69Z" fill="#f19e86"/>
          <path id="Trazado_11651" data-name="Trazado 11651" d="M774.061-533.257c.871-16,10.263-76.421,28.316-81.649,13.088-3.79,25.71,88.1,19.029,89.655S774.061-533.257,774.061-533.257Z" fill="#f4f4ef"/>
          <path id="Trazado_11652" data-name="Trazado 11652" d="M906.584-612c12.508,6.1,27.746,59.545,24.729,72.035a114.726,114.726,0,0,1-22.187,5.228Z" fill="#f4f4ef"/>
          <g id="Grupo_12890" data-name="Grupo 12890">
            <path id="Trazado_11653" data-name="Trazado 11653" d="M915.717-539.734h-.027a.581.581,0,0,1-.554-.606c.662-14.566.007-38.167,0-38.4a.581.581,0,0,1,.564-.6.545.545,0,0,1,.6.564c.006.238.663,23.882,0,38.488A.582.582,0,0,1,915.717-539.734Z" fill="#275a82"/>
          </g>
          <circle id="Elipse_662" data-name="Elipse 662" cx="9.585" cy="9.585" r="9.585" transform="translate(848.315 -549.468) rotate(-80.783)" fill="#1aa6ab"/>
          <g id="Grupo_12891" data-name="Grupo 12891">
            <path id="Trazado_11654" data-name="Trazado 11654" d="M823.254-526.6c-.015,0-.029,0-.044,0a.58.58,0,0,1-.536-.623c.025-.334,2.441-33.743-2.79-51.366a.582.582,0,0,1,.392-.722.58.58,0,0,1,.723.391c5.29,17.827,2.859,51.447,2.833,51.785A.58.58,0,0,1,823.254-526.6Z" fill="#d3d3d3"/>
          </g>
          <path id="Trazado_11655" data-name="Trazado 11655" d="M830.7-576.855c3.776,0,26.624-.291,27.109,0s.388,8.133.388,8.133H831.475Z" fill="#d3d3d3"/>
          <g id="Grupo_12892" data-name="Grupo 12892">
            <path id="Trazado_11656" data-name="Trazado 11656" d="M855.193-559.668a1.157,1.157,0,0,1-.946-.487c-22.494-31.508-29.313-60.158-17.8-74.771a1.162,1.162,0,0,1,1.632-.192,1.161,1.161,0,0,1,.193,1.632c-10.686,13.558-3.674,41.812,17.862,71.981a1.161,1.161,0,0,1-.27,1.62A1.15,1.15,0,0,1,855.193-559.668Z" fill="#232b59"/>
          </g>
          <g id="Grupo_12893" data-name="Grupo 12893">
            <path id="Trazado_11657" data-name="Trazado 11657" d="M886.568-559.668a1.142,1.142,0,0,1-.265-.031,1.163,1.163,0,0,1-.868-1.4c8.5-36.387,1.774-61.537-6.568-72.017a1.161,1.161,0,0,1,.185-1.632,1.16,1.16,0,0,1,1.632.186c9.082,11.407,15.693,36.836,7.014,73.992A1.162,1.162,0,0,1,886.568-559.668Z" fill="#232b59"/>
          </g>
          <g id="Grupo_12896" data-name="Grupo 12896">
            <g id="Grupo_12895" data-name="Grupo 12895">
              <g id="Grupo_12894" data-name="Grupo 12894">
                <path id="Trazado_11658" data-name="Trazado 11658" d="M893.3-541.762a.581.581,0,0,1-.578-.532c-.333-3.916-3.567-7.556-7.864-8.851-4.912-1.482-9.834.322-13.5,4.948a.579.579,0,0,1-.816.094.579.579,0,0,1-.094-.815c3.98-5.02,9.355-6.966,14.749-5.341,4.741,1.43,8.313,5.487,8.686,9.866a.583.583,0,0,1-.53.629Z" fill="#1aa6ab"/>
              </g>
            </g>
          </g>
          <g id="Grupo_12897" data-name="Grupo 12897">
            <path id="Trazado_11659" data-name="Trazado 11659" d="M882.694-519.344a.868.868,0,0,1-.616-.255.87.87,0,0,1,0-1.231c4.857-4.857,12.8-21.546,10.9-31.611-.589-3.12-2.115-5.239-4.537-6.3-3.681-1.608-6.958-1.484-9.741.371-5.776,3.855-8.93,14.58-8.654,29.424a.87.87,0,0,1-.855.888.923.923,0,0,1-.887-.854c-.288-15.451,3.149-26.716,9.429-30.907,3.262-2.176,7.207-2.355,11.406-.518,2.982,1.306,4.85,3.854,5.551,7.573,2,10.587-6.3,28.086-11.384,33.165A.869.869,0,0,1,882.694-519.344Z" fill="#232b59"/>
          </g>
          <g id="Grupo_12898" data-name="Grupo 12898">
            <path id="Trazado_11660" data-name="Trazado 11660" d="M860.136-550.835a6.567,6.567,0,0,1-6.56-6.56,6.567,6.567,0,0,1,6.56-6.559,6.567,6.567,0,0,1,6.56,6.559A6.567,6.567,0,0,1,860.136-550.835Zm0-11.377a4.823,4.823,0,0,0-4.817,4.817,4.823,4.823,0,0,0,4.817,4.818,4.823,4.823,0,0,0,4.817-4.818A4.823,4.823,0,0,0,860.136-562.212Z" fill="#232b59"/>
          </g>
          <path id="Trazado_11661" data-name="Trazado 11661" d="M869.179-529.8c-2.848-.436-2.654,6.487-.282,6.39S871.4-529.46,869.179-529.8Z" fill="#1aa6ab"/>
          <path id="Trazado_11662" data-name="Trazado 11662" d="M884.545-522.39c-2.077-2-5.9,3.776-3.909,5.062S886.165-520.834,884.545-522.39Z" fill="#1aa6ab"/>
          <path id="Trazado_11663" data-name="Trazado 11663" d="M868.57-524.1c-.072-.363.9-.438.981,0S868.643-523.737,868.57-524.1Z" fill="#1aa6ab"/>
          <path id="Trazado_11664" data-name="Trazado 11664" d="M880.588-518.059c.1-.357,1,.018.874.445S880.488-517.7,880.588-518.059Z" fill="#4778e3"/>
          <path id="Trazado_11665" data-name="Trazado 11665" d="M887.777-565.43c-1.888-.339-1.6,1.743-2.953,2.711-.96.689-4.962-.1-4.363,2.4.47,1.959,3.091.514,5.693,1.182,2.64.678,4.475,3.029,5.36,1.923,1.54-1.923-1.885-3.024-2.612-4.4S889.731-565.08,887.777-565.43Z" fill="#1aa6ab"/>
        </g>
      </g>
    </g>
    <g id="Grupo_12902" data-name="Grupo 12902">
      <path id="Trazado_11666" data-name="Trazado 11666" d="M1044.216-524.028a19.494,19.494,0,0,0-12.861-2.837c-4.98.9-8.437,4.485-8.984,5.959-.208-.025-7.537,1.831-15.633,4.6a73.8,73.8,0,0,0,6.9-9.258c3.262-5.043,3.979-5.091,6.965-8.045-11.366-4.072-19.433,6.465-16.1,16.364a7.369,7.369,0,0,0,.7,1.472c-1.437.479-6.8,2.425-12.428,4.813h2.323q.585-.242,1.171-.478a4.585,4.585,0,0,0-.017.478h2.989c-.757-.382-1.423-.71-1.924-.9,4.659-1.858,9.379-3.548,14.112-5.043a14.331,14.331,0,0,0,2.479,5.943h10.388a17.727,17.727,0,0,0-6.33-5.223,16.673,16.673,0,0,0-4.451-1.367q4.455-1.354,8.9-2.472a.463.463,0,0,0,.188-.094,11.305,11.305,0,0,0,3.136,1.4,15.21,15.21,0,0,0,11.4-.825,33.814,33.814,0,0,0,7.075-4.483Z" fill="#f87314"/>
      <path id="Trazado_11667" data-name="Trazado 11667" d="M984.429-525.687a14.624,14.624,0,0,0,1.1,14.726h3.828c2.4-7.97,1.943-10.3,1.436-21.456A15.12,15.12,0,0,0,984.429-525.687Z" fill="#f87314"/>
      <path id="Trazado_11668" data-name="Trazado 11668" d="M957.567-522.517c3.048,6.008,4.675,9.284,5.915,11.556H972.4C970.058-517.992,963.216-522.464,957.567-522.517Z" fill="#f87314"/>
    </g>
    <path id="Trazado_11669" data-name="Trazado 11669" d="M1084.239-531.564h-5.179v-5.179h-1.992v5.179h-5.179v1.992h5.179v5.179h1.992v-5.179h5.179Z" fill="#fff" opacity="0.55"/>
    <path id="Trazado_11670" data-name="Trazado 11670" d="M985.154-610.158h-5.179v-5.179h-1.992v5.179H972.8v1.992h5.179v5.179h1.992v-5.179h5.179Z" fill="#fff" opacity="0.55"/>
    <path id="Trazado_11671" data-name="Trazado 11671" d="M664.884-581.247H659.7v-5.179h-1.992v5.179h-5.179v1.992h5.179v5.179H659.7v-5.179h5.179Z" fill="#fff" opacity="0.55"/>
    <g id="Grupo_12903" data-name="Grupo 12903" opacity="0.55">
      <path id="Trazado_11672" data-name="Trazado 11672" d="M762-608.6a4.776,4.776,0,0,1-4.772-4.771A4.776,4.776,0,0,1,762-618.144a4.776,4.776,0,0,1,4.771,4.772A4.776,4.776,0,0,1,762-608.6Zm0-8.14a3.372,3.372,0,0,0-3.369,3.369A3.372,3.372,0,0,0,762-610a3.372,3.372,0,0,0,3.368-3.368A3.372,3.372,0,0,0,762-616.741Z" fill="#fff"/>
    </g>
    <g id="Grupo_12904" data-name="Grupo 12904" opacity="0.55">
      <path id="Trazado_11673" data-name="Trazado 11673" d="M1030.626-671.757a4.776,4.776,0,0,1-4.771-4.771,4.776,4.776,0,0,1,4.771-4.772,4.776,4.776,0,0,1,4.772,4.772A4.776,4.776,0,0,1,1030.626-671.757Zm0-8.14a3.372,3.372,0,0,0-3.368,3.369,3.372,3.372,0,0,0,3.368,3.368,3.372,3.372,0,0,0,3.369-3.368A3.372,3.372,0,0,0,1030.626-679.9Z" fill="#fff"/>
    </g>
  </g>
</svg>
